<?xml version="1.0" standalone="no"?><!DOCTYPE svg PUBLIC "-//W3C//DTD SVG 1.1//EN" "http://www.w3.org/Graphics/SVG/1.1/DTD/svg11.dtd" ><svg version="1.1" xmlns="http://www.w3.org/2000/svg"><defs><font horiz-adv-x="0" id="font"><font-face ascent="750" bbox="-168 -250 1923 1119" cap-height="716" descent="-250" font-family="BigCity Grotesque Pro" font-stretch="normal" font-style="normal" font-weight="300" units-per-em="1000" x-height="500" /><missing-glyph d="M50 750H450V-250H50ZM400 -200V700H100V-200Z" horiz-adv-x="500" /><glyph glyph-name=".null" horiz-adv-x="0" /><glyph d="M431 239 288 645 148 239ZM273 718H309L558 0H513L444 199H135L67 0H22Z" glyph-name="A" horiz-adv-x="580" unicode="A" /><glyph d="M353 185 242 490 132 185ZM225 551H263L463 0H419L365 149H120L67 0H25Z" glyph-name="A.sc" horiz-adv-x="488" /><glyph d="M381 237V675H369L163 237ZM344 716H734V675H427V385H696V345H427V41H734V0H381V196H146L54 0H9Z" glyph-name="AE" horiz-adv-x="787" unicode="&#198;" /><glyph d="M317 183V513H308L144 183ZM283 550H607V513H360V299H575V262H360V37H607V0H317V148H128L55 0H13Z" glyph-name="AE.sc" horiz-adv-x="659" /><glyph d="M381 237V675H369L163 237ZM344 716H734V675H427V385H696V345H427V41H734V0H381V196H146L54 0H9ZM450 815 650 918 668 876 463 785Z" glyph-name="AEacute" horiz-adv-x="787" unicode="&#508;" /><glyph d="M392 629 553 707 569 672 404 603ZM317 183V513H308L144 183ZM283 550H607V513H360V299H575V262H360V37H607V0H317V148H128L55 0H13Z" glyph-name="AEacute.sc" horiz-adv-x="659" /><glyph d="M437 239 288 653 145 239ZM934 239 790 652 644 239ZM272 718H308L543 57L777 718H813L1063 0H1017L948 199H630L559 -2H523L451 199H133L65 0H21Z" glyph-name="A_A" horiz-adv-x="1084" /><glyph d="M358 185 241 495 130 185ZM759 185 646 495 532 185ZM224 551H262L447 53L631 551H669L869 0H825L771 149H519L464 -1H426L370 149H118L65 0H24Z" glyph-name="A_A.sc" horiz-adv-x="894" /><glyph d="M437 239 288 653 145 239ZM934 239 790 652 644 239ZM272 718H308L543 57L777 718H813L1063 0H1017L948 199H630L559 -2H523L451 199H133L65 0H21ZM723 815 923 918 941 876 736 785Z" glyph-name="A_Aacute" horiz-adv-x="1084" /><glyph d="M589 629 751 707 767 672 602 603ZM358 185 241 495 130 185ZM759 185 646 495 532 185ZM224 551H262L447 53L631 551H669L869 0H825L771 149H519L464 -1H426L370 149H118L65 0H24Z" glyph-name="A_Aacute.sc" horiz-adv-x="894" /><glyph d="M437 239 288 653 145 239ZM934 239 790 652 644 239ZM272 718H308L543 57L777 718H813L1063 0H1017L948 199H630L559 -2H523L451 199H133L65 0H21ZM706 815Q692 815 681.5 825Q671 835 671 852Q671 869 681.5 879Q692 889 707 889Q723 889 733 879Q743 869 743 852Q743 835 733 825Q723 815 706 815ZM880 815Q865 815 855 825Q845 835 845 852Q845 869 855 879Q865 889 880 889Q896 889 906.5 879Q917 869 917 852Q917 835 906.5 825Q896 815 880 815Z" glyph-name="A_Adieresis" horiz-adv-x="1084" /><glyph d="M578 625Q564 625 556 633.5Q548 642 548 656Q548 670 556 678Q564 686 578 686Q592 686 601 678Q610 670 610 656Q610 642 601 633.5Q592 625 578 625ZM720 625Q706 625 697.5 633.5Q689 642 689 656Q689 670 697.5 678Q706 686 720 686Q734 686 742.5 678Q751 670 751 656Q751 642 742.5 633.5Q734 625 720 625ZM358 185 241 495 130 185ZM759 185 646 495 532 185ZM224 551H262L447 53L631 551H669L869 0H825L771 149H519L464 -1H426L370 149H118L65 0H24Z" glyph-name="A_Adieresis.sc" horiz-adv-x="894" /><glyph d="M437 239 288 653 145 239ZM934 239 790 652 644 239ZM272 718H308L543 57L777 718H813L1063 0H1017L948 199H630L559 -2H523L451 199H133L65 0H21ZM639 876 657 918 857 815 843 785Z" glyph-name="A_Agrave" horiz-adv-x="1084" /><glyph d="M525 672 541 707 703 629 690 603ZM358 185 241 495 130 185ZM759 185 646 495 532 185ZM224 551H262L447 53L631 551H669L869 0H825L771 149H519L464 -1H426L370 149H118L65 0H24Z" glyph-name="A_Agrave.sc" horiz-adv-x="894" /><glyph d="M437 239 288 653 145 239ZM934 239 790 652 644 239ZM272 718H308L543 57L777 718H813L1063 0H1017L948 199H630L559 -2H523L451 199H133L65 0H21ZM661 874H925V833H661Z" glyph-name="A_Amacron" horiz-adv-x="1084" /><glyph d="M542 674H755V639H542ZM358 185 241 495 130 185ZM759 185 646 495 532 185ZM224 551H262L447 53L631 551H669L869 0H825L771 149H519L464 -1H426L370 149H118L65 0H24Z" glyph-name="A_Amacron.sc" horiz-adv-x="894" /><glyph d="M437 239 288 653 145 239ZM934 239 790 652 644 239ZM998 -227Q960 -227 935.5 -204Q911 -181 911 -143Q911 -101 941.5 -61.5Q972 -22 1018 0H1017L948 199H630L559 -2H523L451 199H133L65 0H21L272 718H308L543 57L777 718H813L1063 0Q1012 -29 983 -64.5Q954 -100 954 -135Q954 -162 969.5 -176Q985 -190 1013 -190Q1039 -190 1059.5 -179Q1080 -168 1089 -160V-193Q1082 -199 1060 -213Q1038 -227 998 -227Z" glyph-name="A_Aogonek" horiz-adv-x="1084" /><glyph d="M825 0 771 149H519L464 -1H426L370 149H118L65 0H24L224 551H262L447 53L631 551H669L869 0Q829 -22 805.5 -49Q782 -76 782 -102Q782 -144 829 -144Q850 -144 866 -135.5Q882 -127 890 -122V-148Q883 -153 865 -164Q847 -175 815 -175Q784 -175 763.5 -156.5Q743 -138 743 -109Q743 -76 768 -46.5Q793 -17 829 0ZM358 185 241 495 130 185ZM759 185 646 495 532 185Z" glyph-name="A_Aogonek.sc" horiz-adv-x="894" /><glyph d="M437 239 288 653 145 239ZM934 239 790 652 644 239ZM272 718H308L543 57L777 718H813L1063 0H1017L948 199H630L559 -2H523L451 199H133L65 0H21ZM796 771Q749 771 720.5 796Q692 821 692 862Q692 899 720 925.5Q748 952 796 952Q843 952 872 926Q901 900 901 862Q901 821 872.5 796Q844 771 796 771ZM796 800Q828 800 846.5 817Q865 834 865 863Q865 888 845.5 905.5Q826 923 796 923Q764 923 745.5 905.5Q727 888 727 863Q727 834 746 817Q765 800 796 800Z" glyph-name="A_Aring" horiz-adv-x="1084" /><glyph d="M651 593Q613 593 590 612Q567 631 567 663Q567 692 589.5 712.5Q612 733 651 733Q689 733 712.5 712.5Q736 692 736 663Q736 631 713 612Q690 593 651 593ZM651 616Q676 616 691 629Q706 642 706 663Q706 683 690.5 696Q675 709 651 709Q626 709 611.5 696Q597 683 597 663Q597 642 611.5 629Q626 616 651 616ZM358 185 241 495 130 185ZM759 185 646 495 532 185ZM224 551H262L447 53L631 551H669L869 0H825L771 149H519L464 -1H426L370 149H118L65 0H24Z" glyph-name="A_Aring.sc" horiz-adv-x="894" /><glyph d="M437 239 288 653 145 239ZM934 239 790 652 644 239ZM272 718H308L543 57L777 718H813L1063 0H1017L948 199H630L559 -2H523L451 199H133L65 0H21ZM652 807Q653 836 662 858Q670 879 686 894Q702 909 732 909Q757 909 773 896.5Q789 884 803 870Q817 856 830 844Q843 832 862 832Q878 832 886.5 841.5Q895 851 900 863Q905 877 906 894H939Q938 866 929 845Q921 824 905.5 809.5Q890 795 861 795Q836 795 820 807.5Q804 820 790 834Q776 848 762.5 860.5Q749 873 732 873Q715 873 705.5 862.5Q696 852 691 840Q686 825 685 807Z" glyph-name="A_Atilde" horiz-adv-x="1084" /><glyph d="M533 620Q533 621 534.5 634Q536 647 542.5 662Q549 677 562 689Q575 701 599 701Q619 701 632.5 691.5Q646 682 657 671Q669 660 679 651.5Q689 643 705 643Q717 643 724 650Q731 657 735 666Q739 676 740 689H770Q770 688 768.5 675.5Q767 663 760.5 648.5Q754 634 741 622.5Q728 611 705 611Q685 611 671.5 620Q658 629 647 640Q635 651 624.5 660Q614 669 600 669Q586 669 578 661.5Q570 654 567 645Q563 634 562 620ZM358 185 241 495 130 185ZM759 185 646 495 532 185ZM224 551H262L447 53L631 551H669L869 0H825L771 149H519L464 -1H426L370 149H118L65 0H24Z" glyph-name="A_Atilde.sc" horiz-adv-x="894" /><glyph d="M272 718H308L542 68L764 716H809L558 -2H524L451 199H135L66 0H21ZM437 239 288 649 147 239Z" glyph-name="A_V" horiz-adv-x="830" /><glyph d="M357 185 241 492 131 185ZM224 551H262L446 61L620 550H663L463 -1H427L370 149H119L66 0H24Z" glyph-name="A_V.sc" horiz-adv-x="687" /><glyph d="M431 239 287 649 146 239ZM272 718H308L533 67L698 718H734L910 78L1120 716H1163L927 -2H891L715 633L551 -2H514L444 199H133L65 0H21Z" glyph-name="A_W" horiz-adv-x="1180" /><glyph d="M351 185 239 492 129 185ZM223 551H261L439 60L569 551H604L742 68L906 550H946L759 -1H722L585 476L456 -1H419L364 149H117L64 0H23Z" glyph-name="A_W.sc" horiz-adv-x="968" /><glyph d="M431 239 288 645 148 239ZM273 718H309L558 0H513L444 199H135L67 0H22ZM219 815 419 918 437 876 232 785Z" glyph-name="Aacute" horiz-adv-x="580" unicode="&#193;" /><glyph d="M184 629 345 707 361 672 196 603ZM353 185 242 490 132 185ZM225 551H263L463 0H419L365 149H120L67 0H25Z" glyph-name="Aacute.sc" horiz-adv-x="488" /><glyph d="M437 239 288 653 145 239ZM934 239 790 652 644 239ZM272 718H308L543 57L777 718H813L1063 0H1017L948 199H630L559 -2H523L451 199H133L65 0H21ZM218 815 418 918 436 876 231 785Z" glyph-name="Aacute_A" horiz-adv-x="1084" /><glyph d="M183 629 344 707 360 672 195 603ZM358 185 241 495 130 185ZM759 185 646 495 532 185ZM224 551H262L447 53L631 551H669L869 0H825L771 149H519L464 -1H426L370 149H118L65 0H24Z" glyph-name="Aacute_A.sc" horiz-adv-x="894" /><glyph d="M437 239 288 653 145 239ZM934 239 790 652 644 239ZM272 718H308L543 57L777 718H813L1063 0H1017L948 199H630L559 -2H523L451 199H133L65 0H21ZM723 815 923 918 941 876 736 785ZM218 815 418 918 436 876 231 785Z" glyph-name="Aacute_Aacute" horiz-adv-x="1084" /><glyph d="M589 629 751 707 767 672 602 603ZM183 629 344 707 360 672 195 603ZM358 185 241 495 130 185ZM759 185 646 495 532 185ZM224 551H262L447 53L631 551H669L869 0H825L771 149H519L464 -1H426L370 149H118L65 0H24Z" glyph-name="Aacute_Aacute.sc" horiz-adv-x="894" /><glyph d="M272 718H308L542 68L764 716H809L558 -2H524L451 199H135L66 0H21ZM437 239 288 649 147 239ZM218 815 418 918 436 876 231 785Z" glyph-name="Aacute_V" horiz-adv-x="830" /><glyph d="M183 629 344 707 360 672 195 603ZM358 185 241 492 131 185ZM224 551H262L446 61L620 550H663L463 -1H427L371 149H119L66 0H24Z" glyph-name="Aacute_V.sc" horiz-adv-x="687" /><glyph d="M431 239 288 645 148 239ZM273 718H309L558 0H513L444 199H135L67 0H22ZM290 789Q228 789 194 823Q160 857 158 914H197Q199 879 220.5 853.5Q242 828 290 828Q337 828 358.5 853.5Q380 879 382 914H421Q419 857 385.5 823Q352 789 290 789Z" glyph-name="Abreve" horiz-adv-x="580" unicode="&#258;" /><glyph d="M243 606Q194 606 166 632.5Q138 659 135 704H170Q172 678 189 658Q206 638 243 638Q281 638 298 658Q315 678 317 704H351Q349 659 321 632.5Q293 606 243 606ZM353 185 242 490 132 185ZM225 551H263L463 0H419L365 149H120L67 0H25Z" glyph-name="Abreve.sc" horiz-adv-x="488" /><glyph d="M272 718H308L542 68L764 716H809L558 -2H524L451 199H135L66 0H21ZM437 239 288 649 147 239ZM289 789Q227 789 193 823Q159 857 157 914H196Q198 879 219.5 853.5Q241 828 289 828Q336 828 357.5 853.5Q379 879 381 914H420Q418 857 384.5 823Q351 789 289 789Z" glyph-name="Abreve_V" horiz-adv-x="830" /><glyph d="M242 606Q193 606 165 632.5Q137 659 134 704H169Q171 678 188 658Q205 638 242 638Q280 638 297 658Q314 678 316 704H350Q348 659 320 632.5Q292 606 242 606ZM358 185 241 492 131 185ZM224 551H262L446 61L620 550H663L463 -1H427L371 149H119L66 0H24Z" glyph-name="Abreve_V.sc" horiz-adv-x="687" /><glyph d="M431 239 288 645 148 239ZM273 718H309L558 0H513L444 199H135L67 0H22ZM141 810 274 923H304L437 810L420 785L289 883L158 785Z" glyph-name="Acircumflex" horiz-adv-x="580" unicode="&#194;" /><glyph d="M122 623 229 711H256L364 623L349 603L243 678L137 603ZM353 185 242 490 132 185ZM225 551H263L463 0H419L365 149H120L67 0H25Z" glyph-name="Acircumflex.sc" horiz-adv-x="488" /><glyph d="M431 239 288 645 148 239ZM273 718H309L558 0H513L444 199H135L67 0H22ZM201 815Q187 815 176.5 825Q166 835 166 852Q166 869 176.5 879Q187 889 202 889Q218 889 228 879Q238 869 238 852Q238 835 228 825Q218 815 201 815ZM375 815Q360 815 350 825Q340 835 340 852Q340 869 350 879Q360 889 375 889Q391 889 401.5 879Q412 869 412 852Q412 835 401.5 825Q391 815 375 815Z" glyph-name="Adieresis" horiz-adv-x="580" unicode="&#196;" /><glyph d="M172 625Q158 625 149.5 633.5Q141 642 141 656Q141 670 149.5 678Q158 686 172 686Q186 686 195 678Q204 670 204 656Q204 642 195 633.5Q186 625 172 625ZM313 625Q299 625 291 633.5Q283 642 283 656Q283 670 291 678Q299 686 313 686Q327 686 336 678Q345 670 345 656Q345 642 336 633.5Q327 625 313 625ZM353 185 242 490 132 185ZM225 551H263L463 0H419L365 149H120L67 0H25Z" glyph-name="Adieresis.sc" horiz-adv-x="488" /><glyph d="M437 239 288 653 145 239ZM934 239 790 652 644 239ZM272 718H308L543 57L777 718H813L1063 0H1017L948 199H630L559 -2H523L451 199H133L65 0H21ZM201 815Q187 815 176.5 825Q166 835 166 852Q166 869 176.5 879Q187 889 202 889Q218 889 228 879Q238 869 238 852Q238 835 228 825Q218 815 201 815ZM375 815Q360 815 350 825Q340 835 340 852Q340 869 350 879Q360 889 375 889Q391 889 401.5 879Q412 869 412 852Q412 835 401.5 825Q391 815 375 815Z" glyph-name="Adieresis_A" horiz-adv-x="1084" /><glyph d="M171 625Q157 625 148.5 633.5Q140 642 140 656Q140 670 148.5 678Q157 686 171 686Q185 686 194 678Q203 670 203 656Q203 642 194 633.5Q185 625 171 625ZM312 625Q298 625 290 633.5Q282 642 282 656Q282 670 290 678Q298 686 312 686Q326 686 335 678Q344 670 344 656Q344 642 335 633.5Q326 625 312 625ZM358 185 241 495 130 185ZM759 185 646 495 532 185ZM224 551H262L447 53L631 551H669L869 0H825L771 149H519L464 -1H426L370 149H118L65 0H24Z" glyph-name="Adieresis_A.sc" horiz-adv-x="894" /><glyph d="M437 239 288 653 145 239ZM934 239 790 652 644 239ZM272 718H308L543 57L777 718H813L1063 0H1017L948 199H630L559 -2H523L451 199H133L65 0H21ZM706 815Q692 815 681.5 825Q671 835 671 852Q671 869 681.5 879Q692 889 707 889Q723 889 733 879Q743 869 743 852Q743 835 733 825Q723 815 706 815ZM880 815Q865 815 855 825Q845 835 845 852Q845 869 855 879Q865 889 880 889Q896 889 906.5 879Q917 869 917 852Q917 835 906.5 825Q896 815 880 815ZM201 815Q187 815 176.5 825Q166 835 166 852Q166 869 176.5 879Q187 889 202 889Q218 889 228 879Q238 869 238 852Q238 835 228 825Q218 815 201 815ZM375 815Q360 815 350 825Q340 835 340 852Q340 869 350 879Q360 889 375 889Q391 889 401.5 879Q412 869 412 852Q412 835 401.5 825Q391 815 375 815Z" glyph-name="Adieresis_Adieresis" horiz-adv-x="1084" /><glyph d="M578 625Q564 625 556 633.5Q548 642 548 656Q548 670 556 678Q564 686 578 686Q592 686 601 678Q610 670 610 656Q610 642 601 633.5Q592 625 578 625ZM720 625Q706 625 697.5 633.5Q689 642 689 656Q689 670 697.5 678Q706 686 720 686Q734 686 742.5 678Q751 670 751 656Q751 642 742.5 633.5Q734 625 720 625ZM171 625Q157 625 148.5 633.5Q140 642 140 656Q140 670 148.5 678Q157 686 171 686Q185 686 194 678Q203 670 203 656Q203 642 194 633.5Q185 625 171 625ZM312 625Q298 625 290 633.5Q282 642 282 656Q282 670 290 678Q298 686 312 686Q326 686 335 678Q344 670 344 656Q344 642 335 633.5Q326 625 312 625ZM358 185 241 495 130 185ZM759 185 646 495 532 185ZM224 551H262L447 53L631 551H669L869 0H825L771 149H519L464 -1H426L370 149H118L65 0H24Z" glyph-name="Adieresis_Adieresis.sc" horiz-adv-x="894" /><glyph d="M272 718H308L542 68L764 716H809L558 -2H524L451 199H135L66 0H21ZM437 239 288 649 147 239ZM201 815Q187 815 176.5 825Q166 835 166 852Q166 869 176.5 879Q187 889 202 889Q218 889 228 879Q238 869 238 852Q238 835 228 825Q218 815 201 815ZM375 815Q360 815 350 825Q340 835 340 852Q340 869 350 879Q360 889 375 889Q391 889 401.5 879Q412 869 412 852Q412 835 401.5 825Q391 815 375 815Z" glyph-name="Adieresis_V" horiz-adv-x="830" /><glyph d="M171 625Q157 625 148.5 633.5Q140 642 140 656Q140 670 148.5 678Q157 686 171 686Q185 686 194 678Q203 670 203 656Q203 642 194 633.5Q185 625 171 625ZM312 625Q298 625 290 633.5Q282 642 282 656Q282 670 290 678Q298 686 312 686Q326 686 335 678Q344 670 344 656Q344 642 335 633.5Q326 625 312 625ZM358 185 241 492 131 185ZM224 551H262L446 61L620 550H663L463 -1H427L371 149H119L66 0H24Z" glyph-name="Adieresis_V.sc" horiz-adv-x="687" /><glyph d="M431 239 288 645 148 239ZM273 718H309L558 0H513L444 199H135L67 0H22ZM134 876 152 918 352 815 338 785Z" glyph-name="Agrave" horiz-adv-x="580" unicode="&#192;" /><glyph d="M119 672 135 707 297 629 284 603ZM353 185 242 490 132 185ZM225 551H263L463 0H419L365 149H120L67 0H25Z" glyph-name="Agrave.sc" horiz-adv-x="488" /><glyph d="M437 239 288 653 145 239ZM934 239 790 652 644 239ZM272 718H308L543 57L777 718H813L1063 0H1017L948 199H630L559 -2H523L451 199H133L65 0H21ZM639 876 657 918 857 815 843 785ZM133 876 151 918 351 815 337 785Z" glyph-name="Agrave_Agrave" horiz-adv-x="1084" /><glyph d="M525 672 541 707 703 629 690 603ZM118 672 134 707 296 629 283 603ZM358 185 241 495 130 185ZM759 185 646 495 532 185ZM224 551H262L447 53L631 551H669L869 0H825L771 149H519L464 -1H426L370 149H118L65 0H24Z" glyph-name="Agrave_Agrave.sc" horiz-adv-x="894" /><glyph d="M272 718H308L542 68L764 716H809L558 -2H524L451 199H135L66 0H21ZM437 239 288 649 147 239ZM133 876 151 918 351 815 337 785Z" glyph-name="Agrave_V" horiz-adv-x="830" /><glyph d="M118 672 134 707 296 629 283 603ZM358 185 241 492 131 185ZM224 551H262L446 61L620 550H663L463 -1H427L371 149H119L66 0H24Z" glyph-name="Agrave_V.sc" horiz-adv-x="687" /><glyph d="M431 239 288 645 148 239ZM273 718H309L558 0H513L444 199H135L67 0H22ZM157 874H421V833H157Z" glyph-name="Amacron" horiz-adv-x="580" unicode="&#256;" /><glyph d="M136 674H350V639H136ZM353 185 242 490 132 185ZM225 551H263L463 0H419L365 149H120L67 0H25Z" glyph-name="Amacron.sc" horiz-adv-x="488" /><glyph d="M437 239 288 653 145 239ZM934 239 790 652 644 239ZM272 718H308L543 57L777 718H813L1063 0H1017L948 199H630L559 -2H523L451 199H133L65 0H21ZM156 874H420V833H156Z" glyph-name="Amacron_A" horiz-adv-x="1084" /><glyph d="M135 674H349V639H135ZM358 185 241 495 130 185ZM759 185 646 495 532 185ZM224 551H262L447 53L631 551H669L869 0H825L771 149H519L464 -1H426L370 149H118L65 0H24Z" glyph-name="Amacron_A.sc" horiz-adv-x="894" /><glyph d="M272 718H308L542 68L764 716H809L558 -2H524L451 199H135L66 0H21ZM437 239 288 649 147 239ZM156 874H420V833H156Z" glyph-name="Amacron_V" horiz-adv-x="830" /><glyph d="M135 674H349V639H135ZM358 185 241 492 131 185ZM224 551H262L446 61L620 550H663L463 -1H427L371 149H119L66 0H24Z" glyph-name="Amacron_V.sc" horiz-adv-x="687" /><glyph d="M431 239 288 645 148 239ZM558 0Q507 -29 478 -64.5Q449 -100 449 -135Q449 -162 464.5 -176Q480 -190 508 -190Q534 -190 554.5 -179Q575 -168 585 -160V-193Q578 -199 555.5 -213Q533 -227 493 -227Q455 -227 430.5 -204Q406 -181 406 -143Q406 -101 437 -61.5Q468 -22 513 0L444 199H135L67 0H22L273 718H309Z" glyph-name="Aogonek" horiz-adv-x="580" unicode="&#260;" /><glyph d="M419 0 365 149H120L67 0H25L225 551H263L463 0Q423 -22 399.5 -49Q376 -76 376 -102Q376 -122 388.5 -133Q401 -144 422 -144Q443 -144 459.5 -135.5Q476 -127 484 -122V-148Q477 -153 459 -164Q441 -175 409 -175Q378 -175 357.5 -156.5Q337 -138 337 -109Q337 -76 362 -46.5Q387 -17 423 0ZM353 185 242 490 132 185Z" glyph-name="Aogonek.sc" horiz-adv-x="488" /><glyph d="M431 239 288 645 148 239ZM273 718H309L558 0H513L444 199H135L67 0H22ZM292 771Q245 771 216.5 796Q188 821 188 862Q188 899 216 925.5Q244 952 292 952Q339 952 368 926Q397 900 397 862Q397 821 368.5 796Q340 771 292 771ZM292 800Q324 800 342.5 817Q361 834 361 863Q361 888 341.5 905.5Q322 923 292 923Q260 923 241.5 905.5Q223 888 223 863Q223 834 242 817Q261 800 292 800Z" glyph-name="Aring" horiz-adv-x="580" unicode="&#197;" /><glyph d="M245 593Q207 593 183.5 612Q160 631 160 663Q160 692 183 712.5Q206 733 245 733Q283 733 306.5 712.5Q330 692 330 663Q330 631 307 612Q284 593 245 593ZM245 616Q270 616 285 629Q300 642 300 663Q300 683 284.5 696Q269 709 245 709Q220 709 205 696Q190 683 190 663Q190 642 205 629Q220 616 245 616ZM353 185 242 490 132 185ZM225 551H263L463 0H419L365 149H120L67 0H25Z" glyph-name="Aring.sc" horiz-adv-x="488" /><glyph d="M437 239 288 653 145 239ZM934 239 790 652 644 239ZM272 718H308L543 57L777 718H813L1063 0H1017L948 199H630L559 -2H523L451 199H133L65 0H21ZM291 771Q244 771 215.5 796Q187 821 187 862Q187 899 215 925.5Q243 952 291 952Q338 952 367 926Q396 900 396 862Q396 821 367.5 796Q339 771 291 771ZM291 800Q323 800 341.5 817Q360 834 360 863Q360 888 340.5 905.5Q321 923 291 923Q259 923 240.5 905.5Q222 888 222 863Q222 834 241 817Q260 800 291 800Z" glyph-name="Aring_A" horiz-adv-x="1084" /><glyph d="M244 593Q206 593 182.5 612Q159 631 159 663Q159 692 182 712.5Q205 733 244 733Q282 733 305.5 712.5Q329 692 329 663Q329 631 306 612Q283 593 244 593ZM244 616Q269 616 284 629Q299 642 299 663Q299 683 283.5 696Q268 709 244 709Q219 709 204 696Q189 683 189 663Q189 642 204 629Q219 616 244 616ZM358 185 241 495 130 185ZM759 185 646 495 532 185ZM224 551H262L447 53L631 551H669L869 0H825L771 149H519L464 -1H426L370 149H118L65 0H24Z" glyph-name="Aring_A.sc" horiz-adv-x="894" /><glyph d="M437 239 288 653 145 239ZM934 239 790 652 644 239ZM272 718H308L543 57L777 718H813L1063 0H1017L948 199H630L559 -2H523L451 199H133L65 0H21ZM796 771Q749 771 720.5 796Q692 821 692 862Q692 899 720 925.5Q748 952 796 952Q843 952 872 926Q901 900 901 862Q901 821 872.5 796Q844 771 796 771ZM796 800Q828 800 846.5 817Q865 834 865 863Q865 888 845.5 905.5Q826 923 796 923Q764 923 745.5 905.5Q727 888 727 863Q727 834 746 817Q765 800 796 800ZM291 771Q244 771 215.5 796Q187 821 187 862Q187 899 215 925.5Q243 952 291 952Q338 952 367 926Q396 900 396 862Q396 821 367.5 796Q339 771 291 771ZM291 800Q323 800 341.5 817Q360 834 360 863Q360 888 340.5 905.5Q321 923 291 923Q259 923 240.5 905.5Q222 888 222 863Q222 834 241 817Q260 800 291 800Z" glyph-name="Aring_Aring" horiz-adv-x="1084" /><glyph d="M651 593Q613 593 590 612Q567 631 567 663Q567 692 589.5 712.5Q612 733 651 733Q689 733 712.5 712.5Q736 692 736 663Q736 631 713 612Q690 593 651 593ZM244 593Q206 593 182.5 612Q159 631 159 663Q159 692 182 712.5Q205 733 244 733Q282 733 305.5 712.5Q329 692 329 663Q329 631 306 612Q283 593 244 593ZM651 616Q676 616 691 629Q706 642 706 663Q706 683 690.5 696Q675 709 651 709Q626 709 611.5 696Q597 683 597 663Q597 642 611.5 629Q626 616 651 616ZM244 616Q269 616 284 629Q299 642 299 663Q299 683 283.5 696Q268 709 244 709Q219 709 204 696Q189 683 189 663Q189 642 204 629Q219 616 244 616ZM358 185 241 495 130 185ZM759 185 646 495 532 185ZM224 551H262L447 53L631 551H669L869 0H825L771 149H519L464 -1H426L370 149H118L65 0H24Z" glyph-name="Aring_Aring.sc" horiz-adv-x="894" /><glyph d="M272 718H308L542 68L764 716H809L558 -2H524L451 199H135L66 0H21ZM437 239 288 649 147 239ZM290 771Q243 771 214.5 796Q186 821 186 862Q186 899 214 925.5Q242 952 290 952Q337 952 366 926Q395 900 395 862Q395 821 366.5 796Q338 771 290 771ZM290 800Q322 800 340.5 817Q359 834 359 863Q359 888 339.5 905.5Q320 923 290 923Q258 923 239.5 905.5Q221 888 221 863Q221 834 240 817Q259 800 290 800Z" glyph-name="Aring_V" horiz-adv-x="830" /><glyph d="M243 593Q205 593 181.5 612Q158 631 158 663Q158 692 181.5 712.5Q205 733 243 733Q282 733 305.5 712.5Q329 692 329 663Q329 631 305.5 612Q282 593 243 593ZM243 616Q268 616 283 629Q298 642 298 663Q298 683 282.5 696Q267 709 243 709Q218 709 203.5 696Q189 683 189 663Q189 642 204 629Q219 616 243 616ZM357 185 241 492 131 185ZM224 551H262L446 61L620 550H663L463 -1H427L370 149H119L66 0H24Z" glyph-name="Aring_V.sc" horiz-adv-x="687" /><glyph d="M243 1016 443 1119 461 1077 256 986ZM431 239 288 645 148 239ZM273 718H309L558 0H513L444 199H135L67 0H22ZM292 771Q245 771 216.5 796Q188 821 188 862Q188 899 216 925.5Q244 952 292 952Q339 952 368 926Q397 900 397 862Q397 821 368.5 796Q340 771 292 771ZM292 800Q324 800 342.5 817Q361 834 361 863Q361 888 341.5 905.5Q322 923 292 923Q260 923 241.5 905.5Q223 888 223 863Q223 834 242 817Q261 800 292 800Z" glyph-name="Aringacute" horiz-adv-x="580" unicode="&#506;" /><glyph d="M202 785 365 864 381 828 215 759ZM245 593Q207 593 183.5 612Q160 631 160 663Q160 692 183 712.5Q206 733 245 733Q283 733 306.5 712.5Q330 692 330 663Q330 631 307 612Q284 593 245 593ZM245 616Q270 616 285 629Q300 642 300 663Q300 683 284.5 696Q269 709 245 709Q220 709 205 696Q190 683 190 663Q190 642 205 629Q220 616 245 616ZM353 185 242 490 132 185ZM225 551H263L463 0H419L365 149H120L67 0H25Z" glyph-name="Aringacute.sc" horiz-adv-x="488" /><glyph d="M431 239 288 645 148 239ZM273 718H309L558 0H513L444 199H135L67 0H22ZM148 807Q149 836 158 858Q166 879 182 894Q198 909 228 909Q253 909 269 896.5Q285 884 299 870Q313 856 326 844Q339 832 358 832Q374 832 382.5 841.5Q391 851 396 863Q401 877 402 894H435Q434 866 425 845Q417 824 401.5 809.5Q386 795 357 795Q332 795 316 807.5Q300 820 286 834Q272 848 258.5 860.5Q245 873 228 873Q211 873 201.5 862.5Q192 852 187 840Q182 825 181 807Z" glyph-name="Atilde" horiz-adv-x="580" unicode="&#195;" /><glyph d="M126 620Q126 621 127.5 634Q129 647 136 662Q143 677 156.5 689Q170 701 194 701Q214 701 226.5 691.5Q239 682 251 671Q262 660 273 651.5Q284 643 299 643Q311 643 318 650Q325 657 329 666Q333 676 334 689H363Q363 688 361.5 675.5Q360 663 354 648.5Q348 634 335 622.5Q322 611 299 611Q279 611 265.5 620Q252 629 241 640Q229 651 218.5 660Q208 669 194 669Q180 669 172 661.5Q164 654 161 645Q157 634 156 620ZM353 185 242 490 132 185ZM225 551H263L463 0H419L365 149H120L67 0H25Z" glyph-name="Atilde.sc" horiz-adv-x="488" /><glyph d="M99 716H258Q381 716 436 669Q491 622 491 536Q491 498 479 470.5Q467 443 448.5 424Q430 405 408.5 393Q387 381 369 375Q394 370 422 358Q450 346 473 325.5Q496 305 511.5 274Q527 243 527 201Q527 104 466.5 52Q406 0 291 0H99ZM275 390Q320 390 352.5 401.5Q385 413 405 432.5Q425 452 434.5 478.5Q444 505 444 535Q444 607 398.5 641.5Q353 676 256 676H145V390ZM288 40Q339 40 375.5 52Q412 64 435.5 85Q459 106 469.5 135.5Q480 165 480 200Q480 275 431 313Q382 351 287 351H145V40Z" glyph-name="B" horiz-adv-x="582" unicode="B" /><glyph d="M88 550H220Q321 550 365.5 513.5Q410 477 410 411Q410 382 400.5 361Q391 340 376.5 325.5Q362 311 345 302Q328 293 313 288Q333 284 355 275Q377 266 396 250Q415 234 427 211Q439 188 439 155Q439 80 389.5 40Q340 0 246 0H88ZM234 302Q304 302 335 333Q366 364 366 409Q366 463 330 489Q294 515 219 515H132V302ZM244 35Q324 35 359 68.5Q394 102 394 154Q394 211 355.5 238.5Q317 266 243 266H132V35Z" glyph-name="B.sc" horiz-adv-x="491" /><glyph d="M360 -8Q291 -8 236 14.5Q181 37 142 82Q103 127 82 193.5Q61 260 61 348Q61 439 81.5 509.5Q102 580 141 628Q180 676 235.5 700.5Q291 725 361 725Q397 725 424.5 720.5Q452 716 471 711Q493 705 509 697V657Q491 665 468 672Q447 677 420.5 681.5Q394 686 360 686Q243 686 176 600Q109 514 109 349Q109 192 176.5 111.5Q244 31 360 31Q397 31 425 36Q453 41 472 48Q494 55 509 64V25Q494 16 473 9Q453 2 425.5 -3Q398 -8 360 -8Z" glyph-name="C" horiz-adv-x="554" unicode="C" /><glyph d="M300 -6Q245 -6 200 11.5Q155 29 123 63.5Q91 98 73.5 149Q56 200 56 268Q56 408 121 482.5Q186 557 300 557Q329 557 351 553.5Q373 550 388 546Q406 541 419 535V499Q405 505 387 510Q371 514 349.5 517.5Q328 521 301 521Q208 521 155 456.5Q102 392 102 269Q102 150 155 89.5Q208 29 301 29Q330 29 352 33Q374 37 389 42Q407 48 420 55V19Q408 12 391 7Q375 1 353 -2.5Q331 -6 300 -6Z" glyph-name="C.sc" horiz-adv-x="464" /><glyph d="M359 -8Q290 -8 235 14.5Q180 37 141.5 81.5Q103 126 82 192Q61 258 61 345Q61 434 85.5 503Q110 572 156 619Q202 666 267.5 690.5Q333 715 415 715H967V674H747V-1H701V674H421Q349 674 291.5 653.5Q234 633 193 591.5Q152 550 130 488.5Q108 427 108 346Q108 190 176 110.5Q244 31 360 31Q397 31 424.5 36Q452 41 471 48Q493 55 509 64V25Q494 16 473 9Q453 2 425.5 -3Q398 -8 359 -8Z" glyph-name="C_T" horiz-adv-x="980" /><glyph d="M300 -6Q245 -6 200 11Q155 28 123 62.5Q91 97 73.5 148Q56 199 56 266Q56 334 76 387Q96 440 133.5 476Q171 512 224.5 530.5Q278 549 344 549H792V512H616V-1H573V512H349Q236 512 169 450Q102 388 102 266Q102 149 155 89Q208 29 301 29Q330 29 352 33Q374 37 389 42Q407 48 420 55V19Q408 12 391 7Q375 1 353 -2.5Q331 -6 300 -6Z" glyph-name="C_T.sc" horiz-adv-x="809" /><glyph d="M359 -7Q290 -7 235 15.5Q180 38 141.5 82.5Q103 127 82 193Q61 259 61 346Q61 435 85.5 504Q110 573 156 620Q202 667 267.5 691.5Q333 716 415 716H967V675H747V0H701V675H421Q349 675 291.5 654.5Q234 634 193 592.5Q152 551 130 489.5Q108 428 108 347Q108 191 176 111.5Q244 32 360 32Q397 32 424.5 37Q452 42 471 49Q493 56 509 65V26Q494 17 473 10Q453 3 425.5 -2Q398 -7 359 -7ZM571 898 588 923 725 825 861 923 878 898 739 785H709Z" glyph-name="C_Tcaron" horiz-adv-x="979" /><glyph d="M469 690 485 711 595 637 704 711 720 690 607 603H581ZM300 -5Q245 -5 200 12Q155 29 123 63.5Q91 98 73.5 149Q56 200 56 267Q56 335 76 388Q96 441 133.5 477Q171 513 224.5 531.5Q278 550 344 550H792V513H616V0H573V513H349Q236 513 169 451Q102 389 102 267Q102 150 155 90.5Q208 31 301 31Q330 31 352 35Q374 39 389 44Q407 49 420 56V20Q408 13 391 8Q375 2 353 -1.5Q331 -5 300 -5Z" glyph-name="C_Tcaron.sc" horiz-adv-x="809" /><glyph d="M359 -7Q290 -7 235 15.5Q180 38 141.5 82.5Q103 127 82 193Q61 259 61 346Q61 435 85.5 504Q110 573 156 620Q202 667 267.5 691.5Q333 716 415 716H967V675H747V0H701V675H421Q349 675 291.5 654.5Q234 634 193 592.5Q152 551 130 489.5Q108 428 108 347Q108 191 176 111.5Q244 32 360 32Q397 32 424.5 37Q452 42 471 49Q493 56 509 65V26Q494 17 473 10Q453 3 425.5 -2Q398 -7 359 -7ZM692 -225 725 -141Q708 -140 698 -130Q688 -120 688 -104Q688 -88 698 -76.5Q708 -65 726 -65Q744 -65 753 -77Q762 -89 762 -106Q762 -129 749 -162Q736 -195 718 -235Z" glyph-name="C_Tcommaaccent" horiz-adv-x="979" /><glyph d="M300 -5Q245 -5 200 12Q155 29 123 63.5Q91 98 73.5 149Q56 200 56 267Q56 335 76 388Q96 441 133.5 477Q171 513 224.5 531.5Q278 550 344 550H792V513H616V0H573V513H349Q236 513 169 451Q102 389 102 267Q102 150 155 90.5Q208 31 301 31Q330 31 352 35Q374 39 389 44Q407 49 420 56V20Q408 13 391 8Q375 2 353 -1.5Q331 -5 300 -5ZM567 -193 594 -128Q580 -126 571 -118.5Q562 -111 562 -97Q562 -84 570.5 -74.5Q579 -65 595 -65Q612 -65 619.5 -75Q627 -85 627 -99Q627 -118 616 -143.5Q605 -169 590 -201Z" glyph-name="C_Tcommaaccent.sc" horiz-adv-x="809" /><glyph d="M359 -8Q290 -8 235 14.5Q180 37 141.5 82Q103 127 82 193.5Q61 260 61 347Q61 436 85.5 505Q110 574 156 621Q202 668 267.5 692Q333 716 415 716H560L784 70L1005 716H1050L800 -2H764L527 675H421Q349 675 291.5 654.5Q234 634 193 592.5Q152 551 130 490Q108 429 108 348Q108 191 176 111Q244 31 360 31Q397 31 424.5 36Q452 41 471 48Q493 55 509 64V25Q494 16 473 9Q453 2 425.5 -3Q398 -8 359 -8Z" glyph-name="C_V" horiz-adv-x="1071" /><glyph d="M300 -6Q245 -6 200 11.5Q155 29 123 63Q91 97 73.5 148.5Q56 200 56 267Q56 335 76 388Q96 441 133.5 477Q171 513 224.5 531.5Q278 550 344 550H467L644 60L818 550H861L661 -1H622L435 513H349Q236 513 169 451Q102 389 102 268Q102 150 155 89.5Q208 29 301 29Q330 29 352 33Q374 37 389 42Q407 48 420 55V19Q408 12 391 7Q375 1 353 -2.5Q331 -6 300 -6Z" glyph-name="C_V.sc" horiz-adv-x="883" /><glyph d="M359 -8Q290 -8 235 14.5Q180 37 141.5 82Q103 127 82 193.5Q61 260 61 347Q61 436 85.5 505Q110 574 156 621Q202 668 267.5 692Q333 716 415 716H593L763 80L924 718H960L1121 82L1291 716H1334L1140 -2H1101L940 633L778 -2H739L558 675H421Q349 675 291.5 654.5Q234 634 193 592.5Q152 551 130 490Q108 429 108 348Q108 191 176 111Q244 31 360 31Q397 31 424.5 36Q452 41 471 48Q493 55 509 64V25Q494 16 473 9Q453 2 425.5 -3Q398 -8 359 -8Z" glyph-name="C_W" horiz-adv-x="1355" /><glyph d="M300 -6Q189 -6 122.5 63Q56 132 56 267Q56 335 76 387.5Q96 440 133.5 476Q171 512 224 531Q277 550 343 550H494L627 69L753 551H789L917 70L1050 550H1089L936 -1H896L769 475L642 -1H602L460 513H349Q234 513 168 451Q102 389 102 268Q102 150 155 89.5Q208 29 301 29Q330 29 352 33Q374 37 389 42Q407 48 420 55V19Q408 12 391 7Q375 1 353 -2.5Q331 -6 300 -6Z" glyph-name="C_W.sc" horiz-adv-x="1113" /><glyph d="M359 -8Q290 -8 235 14.5Q180 37 141.5 82Q103 127 82 193.5Q61 260 61 347Q61 436 85.5 505Q110 574 156 621Q202 668 267.5 692Q333 716 415 716H640L846 393L1049 716H1096L871 359L1100 0H1052L844 325L636 0H589L818 360L616 675H421Q349 675 291.5 654.5Q234 634 193 592.5Q152 551 130 490Q108 429 108 348Q108 191 176 111Q244 31 360 31Q397 31 424.5 36Q452 41 471 48Q493 55 509 64V25Q494 16 473 9Q453 2 425.5 -3Q398 -8 359 -8Z" glyph-name="C_X" horiz-adv-x="1123" /><glyph d="M300 -6Q189 -6 122.5 63Q56 132 56 267Q56 335 76 387.5Q96 440 133.5 476Q171 512 224 531Q277 550 343 550H532L693 308L853 550H897L717 276L900 0H854L690 244L528 0H484L666 276L508 513H349Q234 513 168 451Q102 389 102 268Q102 150 155 89.5Q208 29 301 29Q330 29 352 33Q374 37 389 42Q407 48 420 55V19Q408 12 391 7Q375 1 353 -2.5Q331 -6 300 -6Z" glyph-name="C_X.sc" horiz-adv-x="927" /><glyph d="M359 -8Q290 -8 235 14.5Q180 37 141.5 82Q103 127 82 193.5Q61 260 61 347Q61 436 85.5 505Q110 574 156 621Q202 668 267.5 692Q333 716 415 716H527L743 349L956 716H1002L765 307V0H719V306L502 675H421Q349 675 291.5 654.5Q234 634 193 592.5Q152 551 130 490Q108 429 108 348Q108 191 176 111Q244 31 360 31Q397 31 424.5 36Q452 41 471 48Q493 55 509 64V25Q494 16 473 9Q453 2 425.5 -3Q398 -8 359 -8Z" glyph-name="C_Y" horiz-adv-x="1021" /><glyph d="M300 -6Q245 -6 200 11.5Q155 29 123 63Q91 97 73.5 148.5Q56 200 56 267Q56 335 76 388Q96 441 133.5 477Q171 513 224.5 531.5Q278 550 344 550H439L609 273L777 550H820L630 235V0H586V235L415 513H349Q236 513 169 451.5Q102 390 102 268Q102 150 155 89.5Q208 29 301 29Q330 29 352 33Q374 37 389 42Q407 48 420 55V19Q408 12 391 7Q375 1 353 -2.5Q331 -6 300 -6Z" glyph-name="C_Y.sc" horiz-adv-x="841" /><glyph d="M359 -8Q290 -8 235 14.5Q180 37 141.5 82Q103 127 82 193.5Q61 260 61 347Q61 436 85.5 504.5Q110 573 156.5 620Q203 667 269.5 691.5Q336 716 419 716H1046V675L670 41H1046V0H620V41L998 675H421Q350 675 292.5 654Q235 633 194 592Q153 551 130.5 490Q108 429 108 348Q108 191 176 111Q244 31 360 31Q397 31 424.5 36Q452 41 471 48Q493 55 509 64V25Q494 16 473 9Q453 2 425.5 -3Q398 -8 359 -8Z" glyph-name="C_Z" horiz-adv-x="1087" /><glyph d="M300 -6Q245 -6 200 11.5Q155 29 123 63Q91 97 73.5 148.5Q56 200 56 267Q56 335 76 387.5Q96 440 134 476Q172 512 226 531Q280 550 347 550H855V513L556 37H855V0H508V37L809 513H349Q293 513 247.5 497.5Q202 482 169.5 451Q137 420 119.5 374Q102 328 102 268Q102 150 155 89.5Q208 29 301 29Q330 29 352 33Q374 37 389 42Q407 48 420 55V19Q408 12 391 7Q375 1 353 -2.5Q331 -6 300 -6Z" glyph-name="C_Z.sc" horiz-adv-x="898" /><glyph d="M679 898 696 923 832 825 969 923 986 898 847 785H817ZM359 -8Q290 -8 235 14.5Q180 37 141.5 82Q103 127 82 193.5Q61 260 61 347Q61 436 85.5 504.5Q110 573 156.5 620Q203 667 269.5 691.5Q336 716 419 716H1046V675L670 41H1046V0H620V41L998 675H421Q350 675 292.5 654Q235 633 194 592Q153 551 130.5 490Q108 429 108 348Q108 191 176 111Q244 31 360 31Q397 31 424.5 36Q452 41 471 48Q493 55 509 64V25Q494 16 473 9Q453 2 425.5 -3Q398 -8 359 -8Z" glyph-name="C_Zcaron" horiz-adv-x="1087" /><glyph d="M557 690 571 711 682 637 792 711 807 690 695 603H669ZM300 -6Q245 -6 200 11.5Q155 29 123 63Q91 97 73.5 148.5Q56 200 56 267Q56 335 76 387.5Q96 440 134 476Q172 512 226 531Q280 550 347 550H855V513L556 37H855V0H508V37L809 513H349Q293 513 247.5 497.5Q202 482 169.5 451Q137 420 119.5 374Q102 328 102 268Q102 150 155 89.5Q208 29 301 29Q330 29 352 33Q374 37 389 42Q407 48 420 55V19Q408 12 391 7Q375 1 353 -2.5Q331 -6 300 -6Z" glyph-name="C_Zcaron.sc" horiz-adv-x="898" /><glyph d="M830 -7Q785 -7 751.5 7Q718 21 683 46L675 0H640V730H561Q536 730 522.5 717Q509 704 509 674V657Q508 657 497 662Q486 667 466.5 672Q447 677 420 681.5Q393 686 360 686Q243 686 176 600Q109 514 109 349Q109 192 176.5 111.5Q244 31 360 31Q397 31 425 36Q453 41 472 48Q494 55 509 64V25Q494 16 473 9Q453 2 425.5 -3Q398 -8 360 -8Q291 -8 236 14.5Q181 37 142 82Q103 127 82 193.5Q61 260 61 348Q61 439 81.5 509.5Q102 580 141 628Q180 676 235.5 700.5Q291 725 361 725Q399 725 428.5 719Q458 713 474 708Q480 735 497.5 750.5Q515 766 548 766H685V441Q702 460 725 475Q747 488 776 498Q805 508 845 508Q896 508 934 489.5Q972 471 997.5 438.5Q1023 406 1036 361Q1049 316 1049 263Q1049 196 1032 145.5Q1015 95 986 61Q957 27 917 10Q877 -7 830 -7ZM822 31Q861 31 894 45.5Q927 60 951 88.5Q975 117 989 160.5Q1003 204 1003 262Q1003 306 993 344Q983 382 962 410Q941 438 909.5 454Q878 470 835 470Q797 470 769 459Q741 448 723 435Q701 420 685 400V76Q703 63 724 54Q744 44 768.5 37.5Q793 31 822 31Z" glyph-name="C_b" horiz-adv-x="1105" /><glyph d="M509 25Q494 16 473 9Q453 2 425.5 -3Q398 -8 360 -8Q291 -8 236 14.5Q181 37 142 82Q103 127 82 193.5Q61 260 61 348Q61 439 81.5 509.5Q102 580 141 628Q180 676 235.5 700.5Q291 725 361 725Q399 725 428.5 719Q458 713 474 708Q480 735 497.5 750.5Q515 766 549 766H685V423Q706 447 733 466Q758 483 790.5 495.5Q823 508 866 508Q957 508 996.5 455Q1036 402 1036 303V0H991V296Q991 389 957 429.5Q923 470 851 470Q813 470 782.5 457.5Q752 445 731 430Q705 412 685 390V0H640V730H562Q537 730 523 717Q509 704 509 674V657Q508 657 497.5 662Q487 667 467.5 672Q448 677 420.5 681.5Q393 686 360 686Q243 686 176 600Q109 514 109 349Q109 192 176.5 111.5Q244 31 360 31Q397 31 425 36Q453 41 472 48Q494 55 509 64Z" glyph-name="C_h" horiz-adv-x="1116" /><glyph d="M509 25Q494 16 473 9Q453 2 425.5 -3Q398 -8 360 -8Q291 -8 236 14.5Q181 37 142 82Q103 127 82 193.5Q61 260 61 348Q61 439 81.5 509.5Q102 580 141 628Q180 676 235.5 700.5Q291 725 361 725Q399 725 428.5 719Q458 713 474 708Q480 735 497 750.5Q514 766 547 766H685V277H753L940 500H990L791 264L997 0H940L753 242H685V0H640V730H561Q536 730 522.5 717Q509 704 509 674V657Q508 657 497.5 662Q487 667 467.5 672Q448 677 420.5 681.5Q393 686 360 686Q243 686 176 600Q109 514 109 349Q109 192 176.5 111.5Q244 31 360 31Q397 31 425 36Q453 41 472 48Q494 55 509 64Z" glyph-name="C_k" horiz-adv-x="1011" /><glyph d="M708 -7Q671 -7 655 15.5Q639 38 639 87V730H561Q509 730 509 674V657Q508 657 497.5 662Q487 667 467.5 672Q448 677 420.5 681.5Q393 686 360 686Q243 686 176 600Q109 514 109 349Q109 192 176.5 111.5Q244 31 360 31Q397 31 425 36Q453 41 472 48Q494 55 509 64V25Q494 16 473 9Q453 2 425.5 -3Q398 -8 360 -8Q291 -8 236 14.5Q181 37 142 82Q103 127 82 193.5Q61 260 61 348Q61 439 81.5 509.5Q102 580 141 628Q180 676 235.5 700.5Q291 725 361 725Q399 725 428.5 719Q458 713 474 708Q480 735 497 750.5Q514 766 547 766H684V110Q684 65 694 47Q704 29 732 29Q738 29 743 31Q746 32 748 33V1Q743 -1 737 -3Q731 -5 724 -6Q717 -7 708 -7Z" glyph-name="C_l" horiz-adv-x="786" /><glyph d="M708 -7Q671 -7 654.5 15.5Q638 38 639 87V344L548 300V338L639 382V730H561Q536 730 522 717Q508 704 509 674V657Q508 657 497.5 662Q487 667 467.5 672Q448 677 420.5 681.5Q393 686 360 686Q243 686 176 600Q109 514 109 349Q109 192 176.5 111.5Q244 31 360 31Q397 31 425 36Q453 41 472 48Q494 55 509 64V25Q494 16 473 9Q453 2 425.5 -3Q398 -8 360 -8Q291 -8 236 14.5Q181 37 142 82Q103 127 82 193.5Q61 260 61 348Q61 439 81.5 509.5Q102 580 141 628Q180 676 235.5 700.5Q291 725 361 725Q399 725 428.5 719Q458 713 474 708Q480 735 497 750.5Q514 766 547 766H684V405L781 452V413L684 366V110Q684 65 694 47Q704 29 732 29Q738 29 743 31Q746 32 748 33V1Q743 -1 737 -3Q731 -5 724 -6Q717 -7 708 -7Z" glyph-name="C_lslash" horiz-adv-x="817" /><glyph d="M433 -8Q351 -8 282 15.5Q213 39 164 85.5Q115 132 87.5 201.5Q60 271 60 363Q60 449 80.5 516Q101 583 140 629.5Q179 676 234.5 700.5Q290 725 360 725Q396 725 423.5 720.5Q451 716 470 711Q492 705 508 697V657Q490 665 467 672Q446 677 419.5 681.5Q393 686 359 686Q301 686 254.5 664.5Q208 643 175.5 601.5Q143 560 125.5 501Q108 442 108 367Q108 281 133 217.5Q158 154 203 112Q248 70 311 49.5Q374 29 450 29H682Q750 29 793.5 54Q837 79 837 128Q837 174 806 196.5Q775 219 721 236Q694 245 667 256Q640 267 618.5 283.5Q597 300 583.5 324Q570 348 570 382Q570 412 582.5 435Q595 458 617 474.5Q639 491 669 499.5Q699 508 734 508Q763 508 785.5 504.5Q808 501 823 496Q841 491 854 484V447Q839 454 821 460Q804 465 782.5 468.5Q761 472 734 472Q683 472 648 449.5Q613 427 613 381Q613 357 624 340Q635 323 653.5 310Q672 297 696.5 288Q721 279 748 270Q808 253 843.5 221.5Q879 190 879 133Q879 65 823.5 28.5Q768 -8 678 -8Z" glyph-name="C_s" horiz-adv-x="926" /><glyph d="M433 -8Q351 -8 282 15.5Q213 39 164 85.5Q115 132 87.5 201.5Q60 271 60 363Q60 449 80.5 516Q101 583 140 629.5Q179 676 234.5 700.5Q290 725 360 725Q396 725 423.5 720.5Q451 716 470 711Q492 705 508 697V657Q490 665 467 672Q446 677 419.5 681.5Q393 686 359 686Q301 686 254.5 664.5Q208 643 175.5 601.5Q143 560 125.5 501Q108 442 108 367Q108 281 133 217.5Q158 154 203 112Q248 70 311 49.5Q374 29 450 29H682Q750 29 793.5 54Q837 79 837 128Q837 174 806 196.5Q775 219 721 236Q694 245 667 256Q640 267 618.5 283.5Q597 300 583.5 324Q570 348 570 382Q570 412 582.5 435Q595 458 617 474.5Q639 491 669 499.5Q699 508 734 508Q763 508 785.5 504.5Q808 501 823 496Q841 491 854 484V447Q839 454 821 460Q804 465 782.5 468.5Q761 472 734 472Q683 472 648 449.5Q613 427 613 381Q613 357 624 340Q635 323 653.5 310Q672 297 696.5 288Q721 279 748 270Q808 253 843.5 221.5Q879 190 879 133Q879 65 823.5 28.5Q768 -8 678 -8ZM576 732 597 755 716 641 834 755 855 732 726 600H706Z" glyph-name="C_scaron" horiz-adv-x="926" /><glyph d="M433 -8Q351 -8 282 15.5Q213 39 164 85.5Q115 132 87.5 201.5Q60 271 60 363Q60 449 80.5 516Q101 583 140 629.5Q179 676 234.5 700.5Q290 725 360 725Q396 725 423.5 720.5Q451 716 470 711Q492 705 508 697V657Q490 665 467 672Q446 677 419.5 681.5Q393 686 359 686Q301 686 254.5 664.5Q208 643 175.5 601.5Q143 560 125.5 501Q108 442 108 367Q108 281 133 217.5Q158 154 203 112Q248 70 311 49.5Q374 29 450 29H682Q750 29 793.5 54Q837 79 837 128Q837 174 806 196.5Q775 219 721 236Q694 245 667 256Q640 267 618.5 283.5Q597 300 583.5 324Q570 348 570 382Q570 412 582.5 435Q595 458 617 474.5Q639 491 669 499.5Q699 508 734 508Q763 508 785.5 504.5Q808 501 823 496Q841 491 854 484V447Q839 454 821 460Q804 465 782.5 468.5Q761 472 734 472Q683 472 648 449.5Q613 427 613 381Q613 357 624 340Q635 323 653.5 310Q672 297 696.5 288Q721 279 748 270Q808 253 843.5 221.5Q879 190 879 133Q879 65 823.5 28.5Q768 -8 678 -8ZM696 -225 729 -141Q712 -140 702 -130Q692 -120 692 -104Q692 -88 702 -76.5Q712 -65 730 -65Q748 -65 757 -77Q766 -89 766 -106Q766 -129 753 -162Q740 -195 722 -235Z" glyph-name="C_scommaaccent" horiz-adv-x="926" /><glyph d="M360 -8Q291 -8 236 14.5Q181 37 142 82Q103 127 82 193.5Q61 260 61 348Q61 439 81.5 509.5Q102 580 141 628Q180 676 235.5 700.5Q291 725 361 725Q397 725 424.5 720.5Q452 716 471 711Q493 705 509 697V657Q491 665 468 672Q447 677 420.5 681.5Q394 686 360 686Q243 686 176 600Q109 514 109 349Q109 192 176.5 111.5Q244 31 360 31Q397 31 425 36Q453 41 472 48Q494 55 509 64V25Q494 16 473 9Q453 2 425.5 -3Q398 -8 360 -8ZM247 815 447 918 465 876 260 785Z" glyph-name="Cacute" horiz-adv-x="554" unicode="&#262;" /><glyph d="M278 788 364 962 399 942 306 773ZM360 -8Q291 -8 236 14.5Q181 37 142 82Q103 127 82 193.5Q61 260 61 348Q61 439 81.5 509.5Q102 580 141 628Q180 676 235.5 700.5Q291 725 361 725Q397 725 424.5 720.5Q452 716 471 711Q493 705 509 697V657Q491 665 468 672Q447 677 420.5 681.5Q394 686 360 686Q243 686 176 600Q109 514 109 349Q109 192 176.5 111.5Q244 31 360 31Q397 31 425 36Q453 41 472 48Q494 55 509 64V25Q494 16 473 9Q453 2 425.5 -3Q398 -8 360 -8Z" glyph-name="Cacute.pl" horiz-adv-x="554" /><glyph d="M232 607 301 740 332 723 257 594ZM300 -6Q245 -6 200 11.5Q155 29 123 63.5Q91 98 73.5 149Q56 200 56 268Q56 408 121 482.5Q186 557 300 557Q329 557 351 553.5Q373 550 388 546Q406 541 419 535V499Q405 505 387 510Q371 514 349.5 517.5Q328 521 301 521Q208 521 155 456.5Q102 392 102 269Q102 150 155 89.5Q208 29 301 29Q330 29 352 33Q374 37 389 42Q407 48 420 55V19Q408 12 391 7Q375 1 353 -2.5Q331 -6 300 -6Z" glyph-name="Cacute.pl.sc" horiz-adv-x="464" /><glyph d="M206 629 367 707 383 672 218 603ZM300 -6Q245 -6 200 11.5Q155 29 123 63.5Q91 98 73.5 149Q56 200 56 268Q56 408 121 482.5Q186 557 300 557Q329 557 351 553.5Q373 550 388 546Q406 541 419 535V499Q405 505 387 510Q371 514 349.5 517.5Q328 521 301 521Q208 521 155 456.5Q102 392 102 269Q102 150 155 89.5Q208 29 301 29Q330 29 352 33Q374 37 389 42Q407 48 420 55V19Q408 12 391 7Q375 1 353 -2.5Q331 -6 300 -6Z" glyph-name="Cacute.sc" horiz-adv-x="464" /><glyph d="M252 815 451 918 469 876 265 785ZM359 -8Q290 -8 235 14.5Q180 37 141.5 82Q103 127 82 193.5Q61 260 61 347Q61 436 85.5 505Q110 574 156 621Q202 668 267.5 692Q333 716 415 716H593L763 80L924 718H960L1121 82L1291 716H1334L1140 -2H1101L940 633L778 -2H739L558 675H421Q349 675 291.5 654.5Q234 634 193 592.5Q152 551 130 490Q108 429 108 348Q108 191 176 111Q244 31 360 31Q397 31 424.5 36Q452 41 471 48Q493 55 509 64V25Q494 16 473 9Q453 2 425.5 -3Q398 -8 359 -8Z" glyph-name="Cacute_W" horiz-adv-x="1355" /><glyph d="M210 629 372 707 388 672 222 603ZM300 -6Q189 -6 122.5 63Q56 132 56 267Q56 335 76 387.5Q96 440 133.5 476Q171 512 224 531Q277 550 343 550H494L627 69L753 551H789L917 70L1050 550H1089L936 -1H896L769 475L642 -1H602L460 513H349Q234 513 168 451Q102 389 102 268Q102 150 155 89.5Q208 29 301 29Q330 29 352 33Q374 37 389 42Q407 48 420 55V19Q408 12 391 7Q375 1 353 -2.5Q331 -6 300 -6Z" glyph-name="Cacute_W.sc" horiz-adv-x="1113" /><glyph d="M252 815 452 918 470 876 265 785ZM830 -7Q785 -7 751.5 7Q718 21 683 46L675 0H640V730H561Q509 730 509 674V657Q508 657 497.5 662Q487 667 467.5 672Q448 677 420.5 681.5Q393 686 360 686Q243 686 176 600Q109 514 109 349Q109 192 176.5 111.5Q244 31 360 31Q397 31 425 36Q453 41 472 48Q494 55 509 64V25Q494 16 473 9Q453 2 425.5 -3Q398 -8 360 -8Q291 -8 236 14.5Q181 37 142 82Q103 127 82 193.5Q61 260 61 348Q61 439 81.5 509.5Q102 580 141 628Q180 676 235.5 700.5Q291 725 361 725Q399 725 429 719Q459 713 475 708Q480 735 497.5 750.5Q515 766 548 766H685V441Q702 460 725 475Q747 488 776 498Q805 508 845 508Q896 508 934 489.5Q972 471 997.5 438.5Q1023 406 1036 361Q1049 316 1049 263Q1049 196 1032 145.5Q1015 95 986 61Q957 27 917 10Q877 -7 830 -7ZM822 31Q861 31 894 45.5Q927 60 951 88.5Q975 117 989 160.5Q1003 204 1003 262Q1003 306 993 344Q983 382 962 410Q941 438 909.5 454Q878 470 835 470Q797 470 769 459Q741 448 723 435Q701 420 685 400V76Q703 63 724 54Q744 44 768.5 37.5Q793 31 822 31Z" glyph-name="Cacute_b" horiz-adv-x="1105" /><glyph d="M252 815 452 918 470 876 265 785ZM509 25Q494 16 473 9Q453 2 425.5 -3Q398 -8 360 -8Q291 -8 236 14.5Q181 37 142 82Q103 127 82 193.5Q61 260 61 348Q61 439 81.5 509.5Q102 580 141 628Q180 676 235.5 700.5Q291 725 361 725Q399 725 429 719Q459 713 475 708Q480 735 497.5 750.5Q515 766 547 766H685V277H753L940 500H990L791 264L997 0H940L753 242H685V0H640V730H561Q509 730 509 674V657Q508 657 497.5 662Q487 667 467.5 672Q448 677 420.5 681.5Q393 686 360 686Q243 686 176 600Q109 514 109 349Q109 192 176.5 111.5Q244 31 360 31Q397 31 425 36Q453 41 472 48Q494 55 509 64Z" glyph-name="Cacute_k" horiz-adv-x="1011" /><glyph d="M252 815 452 918 470 876 265 785ZM708 -7Q671 -7 654.5 15.5Q638 38 639 87V730H561Q509 730 509 674V657Q508 657 497.5 662Q487 667 467.5 672Q448 677 420.5 681.5Q393 686 360 686Q243 686 176 600Q109 514 109 349Q109 192 176.5 111.5Q244 31 360 31Q397 31 425 36Q453 41 472 48Q494 55 509 64V25Q494 16 473 9Q453 2 425.5 -3Q398 -8 360 -8Q291 -8 236 14.5Q181 37 142 82Q103 127 82 193.5Q61 260 61 348Q61 439 81.5 509.5Q102 580 141 628Q180 676 235.5 700.5Q291 725 361 725Q399 725 429 719Q459 713 475 708Q480 735 497.5 750.5Q515 766 547 766H684V110Q684 65 693.5 47.5Q703 30 731 29Q737 29 743 31Q746 32 748 33V1Q743 -1 737 -3Q731 -5 724 -6Q717 -7 708 -7Z" glyph-name="Cacute_l" horiz-adv-x="786" /><glyph d="M433 -8Q351 -8 282 15.5Q213 39 164 85.5Q115 132 87.5 201.5Q60 271 60 363Q60 449 80.5 516Q101 583 140 629.5Q179 676 234.5 700.5Q290 725 360 725Q396 725 423.5 720.5Q451 716 470 711Q492 705 508 697V657Q490 665 467 672Q446 677 419.5 681.5Q393 686 359 686Q301 686 254.5 664.5Q208 643 175.5 601.5Q143 560 125.5 501Q108 442 108 367Q108 281 133 217.5Q158 154 203 112Q248 70 311 49.5Q374 29 450 29H682Q750 29 793.5 54Q837 79 837 128Q837 174 806 196.5Q775 219 721 236Q694 245 667 256Q640 267 618.5 283.5Q597 300 583.5 324Q570 348 570 382Q570 412 582.5 435Q595 458 617 474.5Q639 491 669 499.5Q699 508 734 508Q763 508 785.5 504.5Q808 501 823 496Q841 491 854 484V447Q839 454 821 460Q804 465 782.5 468.5Q761 472 734 472Q683 472 648 449.5Q613 427 613 381Q613 357 624 340Q635 323 653.5 310Q672 297 696.5 288Q721 279 748 270Q808 253 843.5 221.5Q879 190 879 133Q879 65 823.5 28.5Q768 -8 678 -8ZM251 815 451 918 469 876 264 785Z" glyph-name="Cacute_s" horiz-adv-x="926" /><glyph d="M360 -8Q291 -8 236 14.5Q181 37 142 82Q103 127 82 193.5Q61 260 61 348Q61 439 81.5 509.5Q102 580 141 628Q180 676 235.5 700.5Q291 725 361 725Q397 725 424.5 720.5Q452 716 471 711Q493 705 509 697V657Q491 665 468 672Q447 677 420.5 681.5Q394 686 360 686Q243 686 176 600Q109 514 109 349Q109 192 176.5 111.5Q244 31 360 31Q397 31 425 36Q453 41 472 48Q494 55 509 64V25Q494 16 473 9Q453 2 425.5 -3Q398 -8 360 -8ZM174 898 191 923 328 825 464 923 481 898 342 785H312Z" glyph-name="Ccaron" horiz-adv-x="554" unicode="&#268;" /><glyph d="M147 690 162 711 272 637 382 711 398 690 286 603H259ZM300 -6Q245 -6 200 11.5Q155 29 123 63.5Q91 98 73.5 149Q56 200 56 268Q56 408 121 482.5Q186 557 300 557Q329 557 351 553.5Q373 550 388 546Q406 541 419 535V499Q405 505 387 510Q371 514 349.5 517.5Q328 521 301 521Q208 521 155 456.5Q102 392 102 269Q102 150 155 89.5Q208 29 301 29Q330 29 352 33Q374 37 389 42Q407 48 420 55V19Q408 12 391 7Q375 1 353 -2.5Q331 -6 300 -6Z" glyph-name="Ccaron.sc" horiz-adv-x="464" /><glyph d="M359 -8Q290 -8 235 14.5Q180 37 141.5 81.5Q103 126 82 192Q61 258 61 345Q61 434 85.5 503Q110 572 156 619Q202 666 267.5 690.5Q333 715 415 715H967V674H747V-1H701V674H421Q349 674 291.5 653.5Q234 633 193 591.5Q152 550 130 488.5Q108 427 108 346Q108 190 176 110.5Q244 31 360 31Q397 31 424.5 36Q452 41 471 48Q493 55 509 64V25Q494 16 473 9Q453 2 425.5 -3Q398 -8 359 -8ZM179 898 196 923 333 825 469 923 486 898 347 785H317Z" glyph-name="Ccaron_T" horiz-adv-x="980" /><glyph d="M151 690 167 711 277 637 387 711 402 690 290 603H263ZM300 -6Q245 -6 200 11Q155 28 123 62.5Q91 97 73.5 148Q56 199 56 266Q56 334 76 387Q96 440 133.5 476Q171 512 224.5 530.5Q278 549 344 549H792V512H616V-1H573V512H349Q236 512 169 450Q102 388 102 266Q102 149 155 89Q208 29 301 29Q330 29 352 33Q374 37 389 42Q407 48 420 55V19Q408 12 391 7Q375 1 353 -2.5Q331 -6 300 -6Z" glyph-name="Ccaron_T.sc" horiz-adv-x="809" /><glyph d="M179 898 196 923 332 825 469 923 486 898 347 785H317ZM359 -8Q290 -8 235 14.5Q180 37 141.5 82Q103 127 82 193.5Q61 260 61 347Q61 436 85.5 505Q110 574 156 621Q202 668 267.5 692Q333 716 415 716H560L784 70L1005 716H1050L800 -2H764L527 675H421Q349 675 291.5 654.5Q234 634 193 592.5Q152 551 130 490Q108 429 108 348Q108 191 176 111Q244 31 360 31Q397 31 424.5 36Q452 41 471 48Q493 55 509 64V25Q494 16 473 9Q453 2 425.5 -3Q398 -8 359 -8Z" glyph-name="Ccaron_V" horiz-adv-x="1071" /><glyph d="M151 690 167 711 277 637 387 711 402 690 290 603H263ZM300 -6Q245 -6 200 11.5Q155 29 123 63Q91 97 73.5 148.5Q56 200 56 267Q56 335 76 388Q96 441 133.5 477Q171 513 224.5 531.5Q278 550 344 550H467L644 60L818 550H861L661 -1H622L435 513H349Q236 513 169 451Q102 389 102 268Q102 150 155 89.5Q208 29 301 29Q330 29 352 33Q374 37 389 42Q407 48 420 55V19Q408 12 391 7Q375 1 353 -2.5Q331 -6 300 -6Z" glyph-name="Ccaron_V.sc" horiz-adv-x="883" /><glyph d="M179 898 196 923 332 825 469 923 486 898 347 785H317ZM359 -8Q290 -8 235 14.5Q180 37 141.5 82Q103 127 82 193.5Q61 260 61 347Q61 436 85.5 505Q110 574 156 621Q202 668 267.5 692Q333 716 415 716H527L743 349L956 716H1002L765 307V0H719V306L502 675H421Q349 675 291.5 654.5Q234 634 193 592.5Q152 551 130 490Q108 429 108 348Q108 191 176 111Q244 31 360 31Q397 31 424.5 36Q452 41 471 48Q493 55 509 64V25Q494 16 473 9Q453 2 425.5 -3Q398 -8 359 -8Z" glyph-name="Ccaron_Y" horiz-adv-x="1021" /><glyph d="M151 690 167 711 277 637 387 711 402 690 290 603H263ZM300 -6Q245 -6 200 11.5Q155 29 123 63Q91 97 73.5 148.5Q56 200 56 267Q56 335 76 388Q96 441 133.5 477Q171 513 224.5 531.5Q278 550 344 550H439L609 273L777 550H820L630 235V0H586V235L415 513H349Q236 513 169 451.5Q102 390 102 268Q102 150 155 89.5Q208 29 301 29Q330 29 352 33Q374 37 389 42Q407 48 420 55V19Q408 12 391 7Q375 1 353 -2.5Q331 -6 300 -6Z" glyph-name="Ccaron_Y.sc" horiz-adv-x="841" /><glyph d="M174 898 191 923 328 825 464 923 481 898 342 785H312ZM830 -7Q785 -7 751.5 7Q718 21 683 46L675 0H640V730H561Q509 730 509 674V657Q508 657 497 662Q486 667 466.5 672Q447 677 420 681.5Q393 686 360 686Q243 686 176 600Q109 514 109 349Q109 192 176.5 111.5Q244 31 360 31Q397 31 425 36Q453 41 472 48Q494 55 509 64V25Q494 16 473 9Q453 2 425.5 -3Q398 -8 360 -8Q291 -8 236 14.5Q181 37 142 82Q103 127 82 193.5Q61 260 61 348Q61 439 81.5 509.5Q102 580 141 628Q180 676 235.5 700.5Q291 725 361 725Q399 725 429 719Q459 713 475 708Q480 735 497.5 750.5Q515 766 548 766H685V441Q702 460 725 475Q747 488 776 498Q805 508 845 508Q896 508 934 489.5Q972 471 997.5 438.5Q1023 406 1036 361Q1049 316 1049 263Q1049 196 1032 145.5Q1015 95 986 61Q957 27 917 10Q877 -7 830 -7ZM822 31Q861 31 894 45.5Q927 60 951 88.5Q975 117 989 160.5Q1003 204 1003 262Q1003 306 993 344Q983 382 962 410Q941 438 909.5 454Q878 470 835 470Q797 470 769 459Q741 448 723 435Q701 420 685 400V76Q703 63 724 54Q744 44 768.5 37.5Q793 31 822 31Z" glyph-name="Ccaron_b" horiz-adv-x="1105" /><glyph d="M174 898 191 923 328 825 464 923 481 898 342 785H312ZM509 25Q494 16 473 9Q453 2 425.5 -3Q398 -8 360 -8Q291 -8 236 14.5Q181 37 142 82Q103 127 82 193.5Q61 260 61 348Q61 439 81.5 509.5Q102 580 141 628Q180 676 235.5 700.5Q291 725 361 725Q399 725 429 719Q459 713 475 708Q480 735 497.5 750.5Q515 766 547 766H685V277H753L940 500H990L791 264L997 0H940L753 242H685V0H640V730H561Q509 730 509 674V657Q508 657 497 662Q486 667 466.5 672Q447 677 420 681.5Q393 686 360 686Q243 686 176 600Q109 514 109 349Q109 192 176.5 111.5Q244 31 360 31Q397 31 425 36Q453 41 472 48Q494 55 509 64Z" glyph-name="Ccaron_k" horiz-adv-x="1011" /><glyph d="M174 898 191 923 328 825 464 923 481 898 342 785H312ZM708 -7Q671 -7 655 15.5Q639 38 639 87V730H561Q509 730 509 674V657Q508 657 497 662Q486 667 466.5 672Q447 677 420 681.5Q393 686 360 686Q243 686 176 600Q109 514 109 349Q109 192 176.5 111.5Q244 31 360 31Q397 31 425 36Q453 41 472 48Q494 55 509 64V25Q494 16 473 9Q453 2 425.5 -3Q398 -8 360 -8Q291 -8 236 14.5Q181 37 142 82Q103 127 82 193.5Q61 260 61 348Q61 439 81.5 509.5Q102 580 141 628Q180 676 235.5 700.5Q291 725 361 725Q399 725 429 719Q459 713 475 708Q480 735 497.5 750.5Q515 766 547 766H684V110Q684 65 693.5 47.5Q703 30 731 29Q737 29 743 31Q746 32 748 33V1Q743 -1 737 -3Q731 -5 724 -6Q717 -7 708 -7Z" glyph-name="Ccaron_l" horiz-adv-x="786" /><glyph d="M174 898 191 923 328 825 464 923 481 898 342 785H312ZM758 615 791 699Q774 700 764 710Q754 720 754 736Q754 752 764 763.5Q774 775 792 775Q810 775 819 763Q828 751 828 734Q828 711 815 678Q802 645 784 605ZM708 -7Q671 -7 655 15.5Q639 38 639 87V730H561Q509 730 509 674V657Q508 657 497.5 662Q487 667 467.5 672Q448 677 420.5 681.5Q393 686 360 686Q243 686 176 600Q109 514 109 349Q109 192 176.5 111.5Q244 31 360 31Q397 31 425 36Q453 41 472 48Q494 55 509 64V25Q494 16 473 9Q453 2 425.5 -3Q398 -8 360 -8Q291 -8 236 14.5Q181 37 142 82Q103 127 82 193.5Q61 260 61 348Q61 439 81.5 509.5Q102 580 141 628Q180 676 235.5 700.5Q291 725 361 725Q399 725 429 719Q459 713 475 708Q480 735 497.5 750.5Q515 766 547 766H684V110Q684 65 694 47Q704 29 732 29Q738 29 743 31Q746 32 748 33V1Q743 -1 737 -3Q731 -5 724 -6Q717 -7 708 -7Z" glyph-name="Ccaron_lcaron" horiz-adv-x="812" /><glyph d="M433 -8Q351 -8 282 15.5Q213 39 164 85.5Q115 132 87.5 201.5Q60 271 60 363Q60 449 80.5 516Q101 583 140 629.5Q179 676 234.5 700.5Q290 725 360 725Q396 725 423.5 720.5Q451 716 470 711Q492 705 508 697V657Q490 665 467 672Q446 677 419.5 681.5Q393 686 359 686Q301 686 254.5 664.5Q208 643 175.5 601.5Q143 560 125.5 501Q108 442 108 367Q108 281 133 217.5Q158 154 203 112Q248 70 311 49.5Q374 29 450 29H682Q750 29 793.5 54Q837 79 837 128Q837 174 806 196.5Q775 219 721 236Q694 245 667 256Q640 267 618.5 283.5Q597 300 583.5 324Q570 348 570 382Q570 412 582.5 435Q595 458 617 474.5Q639 491 669 499.5Q699 508 734 508Q763 508 785.5 504.5Q808 501 823 496Q841 491 854 484V447Q839 454 821 460Q804 465 782.5 468.5Q761 472 734 472Q683 472 648 449.5Q613 427 613 381Q613 357 624 340Q635 323 653.5 310Q672 297 696.5 288Q721 279 748 270Q808 253 843.5 221.5Q879 190 879 133Q879 65 823.5 28.5Q768 -8 678 -8ZM173 898 190 923 327 825 463 923 480 898 341 785H311Z" glyph-name="Ccaron_s" horiz-adv-x="926" /><glyph d="M433 -8Q351 -8 282 15.5Q213 39 164 85.5Q115 132 87.5 201.5Q60 271 60 363Q60 449 80.5 516Q101 583 140 629.5Q179 676 234.5 700.5Q290 725 360 725Q396 725 423.5 720.5Q451 716 470 711Q492 705 508 697V657Q490 665 467 672Q446 677 419.5 681.5Q393 686 359 686Q301 686 254.5 664.5Q208 643 175.5 601.5Q143 560 125.5 501Q108 442 108 367Q108 281 133 217.5Q158 154 203 112Q248 70 311 49.5Q374 29 450 29H682Q750 29 793.5 54Q837 79 837 128Q837 174 806 196.5Q775 219 721 236Q694 245 667 256Q640 267 618.5 283.5Q597 300 583.5 324Q570 348 570 382Q570 412 582.5 435Q595 458 617 474.5Q639 491 669 499.5Q699 508 734 508Q763 508 785.5 504.5Q808 501 823 496Q841 491 854 484V447Q839 454 821 460Q804 465 782.5 468.5Q761 472 734 472Q683 472 648 449.5Q613 427 613 381Q613 357 624 340Q635 323 653.5 310Q672 297 696.5 288Q721 279 748 270Q808 253 843.5 221.5Q879 190 879 133Q879 65 823.5 28.5Q768 -8 678 -8ZM576 732 597 755 716 641 834 755 855 732 726 600H706ZM173 898 190 923 327 825 463 923 480 898 341 785H311Z" glyph-name="Ccaron_scaron" horiz-adv-x="926" /><glyph d="M454 -139Q454 -165 441 -184Q428 -203 405 -215.5Q382 -228 351 -232.5Q320 -237 283 -234V-204Q339 -206 373.5 -191Q408 -176 408 -142Q408 -115 382.5 -101Q357 -87 294 -88L303 -4Q190 13 125.5 101.5Q61 190 61 348Q61 439 81.5 509.5Q102 580 141 628Q180 676 235.5 700.5Q291 725 361 725Q397 725 424.5 720.5Q452 716 471 711Q493 705 509 697V657Q491 665 468 672Q447 677 420.5 681.5Q394 686 360 686Q243 686 176 600Q109 514 109 349Q109 192 176.5 111.5Q244 31 360 31Q397 31 425 36Q453 41 472 48Q494 55 509 64V25Q494 16 473 9Q453 2 426 -3Q399 -8 361 -8Q355 -8 349.5 -8Q344 -8 339 -7L334 -55Q396 -58 425 -78.5Q454 -99 454 -139Z" glyph-name="Ccedilla" horiz-adv-x="554" unicode="&#199;" /><glyph d="M367 -106Q367 -146 327 -165.5Q287 -185 227 -179V-155Q272 -157 299 -145.5Q326 -134 326 -108Q326 -88 306.5 -77.5Q287 -67 245 -67H236L243 -1Q157 16 106.5 83Q56 150 56 268Q56 408 121 482.5Q186 557 300 557Q329 557 351 553.5Q373 550 388 546Q406 541 419 535V499Q405 505 387 510Q371 514 349.5 517.5Q328 521 301 521Q208 521 155 456.5Q102 392 102 269Q102 150 155 89.5Q208 29 301 29Q330 29 352 33Q374 37 389 42Q407 48 420 55V19Q408 12 391 7Q375 1 353.5 -2.5Q332 -6 301 -6Q294 -6 288 -6Q282 -6 276 -4L272 -42Q367 -45 367 -106Z" glyph-name="Ccedilla.sc" horiz-adv-x="464" /><glyph d="M442 -139Q442 -165 429 -184Q416 -203 393 -215.5Q370 -228 339 -232.5Q308 -237 271 -234V-204Q327 -206 362 -191Q397 -176 397 -142Q397 -115 371.5 -101Q346 -87 283 -88L291 -2Q182 18 121 105.5Q60 193 60 345Q60 434 85 503Q110 572 156 619Q202 666 267.5 690.5Q333 715 414 715H967V674H746V-1H701V674H421Q349 674 291 653.5Q233 633 192.5 591.5Q152 550 130 488.5Q108 427 108 346Q108 190 175.5 110.5Q243 31 359 31Q396 31 424 36Q452 41 471 48Q493 55 508 64V25Q493 16 472 9Q452 2 425 -3Q398 -8 360 -8Q351 -8 343.5 -7.5Q336 -7 328 -6L323 -55Q442 -61 442 -139Z" glyph-name="Ccedilla_T" horiz-adv-x="979" /><glyph d="M367 -106Q367 -146 327 -165.5Q287 -185 227 -179V-155Q272 -157 299 -145.5Q326 -134 326 -108Q326 -88 306.5 -77.5Q287 -67 245 -67H236L243 -1Q157 15 106.5 82Q56 149 56 266Q56 334 76 387Q96 440 133.5 476Q171 512 224.5 530.5Q278 549 344 549H792V512H616V-1H573V512H349Q236 512 169 450Q102 388 102 266Q102 149 155 89Q208 29 301 29Q330 29 352 33Q374 37 389 42Q407 48 420 55V19Q408 12 391 7Q375 1 353.5 -2.5Q332 -6 301 -6Q294 -6 288 -6Q282 -6 276 -4L272 -42Q367 -45 367 -106Z" glyph-name="Ccedilla_T.sc" horiz-adv-x="809" /><glyph d="M442 -139Q442 -165 429 -184Q416 -203 393 -215.5Q370 -228 339 -232.5Q308 -237 271 -234V-204Q327 -206 362 -191Q397 -176 397 -142Q397 -115 371.5 -101Q346 -87 283 -88L291 -2Q182 18 121 106Q60 194 60 347Q60 436 85 505Q110 574 156 621Q202 668 267.5 692Q333 716 414 716H527L742 349L956 716H1002L764 307V0H719V306L501 675H421Q349 675 291 654.5Q233 634 192.5 592.5Q152 551 130 490Q108 429 108 348Q108 191 175.5 111Q243 31 359 31Q396 31 424 36Q452 41 471 48Q493 55 508 64V25Q493 16 472 9Q452 2 425 -3Q398 -8 360 -8Q351 -8 343.5 -7.5Q336 -7 328 -6L323 -55Q442 -61 442 -139Z" glyph-name="Ccedilla_Y" horiz-adv-x="1020" /><glyph d="M367 -106Q367 -146 327 -165.5Q287 -185 227 -179V-155Q272 -157 299 -145.5Q326 -134 326 -108Q326 -88 306.5 -77.5Q287 -67 245 -67H236L243 -1Q157 15 106.5 82Q56 149 56 267Q56 335 76 388Q96 441 133.5 477Q171 513 224.5 531.5Q278 550 344 550H439L609 273L777 550H820L630 235V0H586V235L415 513H349Q236 513 169 451.5Q102 390 102 268Q102 150 155 89.5Q208 29 301 29Q330 29 352 33Q374 37 389 42Q407 48 420 55V19Q408 12 391 7Q375 1 353.5 -2.5Q332 -6 301 -6Q294 -6 288 -6Q282 -6 276 -4L272 -42Q367 -45 367 -106Z" glyph-name="Ccedilla_Y.sc" horiz-adv-x="841" /><glyph d="M822 31Q861 31 894 45.5Q927 60 951 88.5Q975 117 989 160.5Q1003 204 1003 262Q1003 306 993 344Q983 382 962 410Q941 438 909.5 454Q878 470 835 470Q797 470 769 459Q741 448 723 435Q701 420 685 400V76Q703 63 724 54Q744 44 768.5 37.5Q793 31 822 31ZM443 -139Q443 -165 430 -184Q417 -203 394 -215.5Q371 -228 340 -232.5Q309 -237 272 -234V-204Q328 -206 363 -191Q398 -176 398 -142Q398 -115 372.5 -101Q347 -87 284 -88L293 -2Q184 18 122.5 106.5Q61 195 61 348Q61 439 81.5 509.5Q102 580 141 628Q180 676 235.5 700.5Q291 725 361 725Q399 725 428.5 719Q458 713 474 708Q480 735 497.5 750.5Q515 766 548 766H685V441Q702 460 725 475Q747 488 776 498Q805 508 845 508Q896 508 934 489.5Q972 471 997.5 438.5Q1023 406 1036 361Q1049 316 1049 263Q1049 196 1032 145.5Q1015 95 986 61Q957 27 917 10Q877 -7 830 -7Q785 -7 751.5 7Q718 21 683 46L675 0H640V730H561Q509 730 509 674V657Q508 657 497.5 662Q487 667 467.5 672Q448 677 420.5 681.5Q393 686 360 686Q243 686 176 600Q109 514 109 349Q109 192 176.5 111.5Q244 31 360 31Q397 31 425 36Q453 41 472 48Q494 55 509 64V25Q494 16 473 9Q453 2 426 -3Q399 -8 361 -8Q352 -8 344.5 -7.5Q337 -7 329 -6L324 -55Q443 -61 443 -139Z" glyph-name="Ccedilla_b" horiz-adv-x="1105" /><glyph d="M443 -139Q443 -165 430 -184Q417 -203 394 -215.5Q371 -228 340 -232.5Q309 -237 272 -234V-204Q328 -206 363 -191Q398 -176 398 -142Q398 -115 372.5 -101Q347 -87 284 -88L293 -2Q184 18 122.5 106.5Q61 195 61 348Q61 439 81.5 509.5Q102 580 141 628Q180 676 235.5 700.5Q291 725 361 725Q399 725 429 719Q459 713 475 708Q480 735 497.5 750.5Q515 766 549 766H685V423Q706 447 733 466Q758 483 790.5 495.5Q823 508 866 508Q957 508 996.5 455Q1036 402 1036 303V0H991V296Q991 389 957 429.5Q923 470 851 470Q813 470 782.5 457.5Q752 445 731 430Q705 412 685 390V0H640V730H562Q537 730 523 717Q509 704 509 674V657Q508 657 497.5 662Q487 667 467.5 672Q448 677 420.5 681.5Q393 686 360 686Q243 686 176 600Q109 514 109 349Q109 192 176.5 111.5Q244 31 360 31Q397 31 425 36Q453 41 472 48Q494 55 509 64V25Q494 16 473 9Q453 2 426 -3Q399 -8 361 -8Q352 -8 344.5 -7.5Q337 -7 329 -6L324 -55Q443 -61 443 -139Z" glyph-name="Ccedilla_h" horiz-adv-x="1116" /><glyph d="M443 -139Q443 -165 430 -184Q417 -203 394 -215.5Q371 -228 340 -232.5Q309 -237 272 -234V-204Q328 -206 363 -191Q398 -176 398 -142Q398 -115 372.5 -101Q347 -87 284 -88L293 -2Q184 18 122.5 106.5Q61 195 61 348Q61 439 81.5 509.5Q102 580 141 628Q180 676 235.5 700.5Q291 725 361 725Q399 725 429 719Q459 713 475 708Q480 735 497.5 750.5Q515 766 547 766H685V277H753L940 500H990L791 264L997 0H940L753 242H685V0H640V730H561Q536 730 522.5 717Q509 704 509 674V657Q508 657 497.5 662Q487 667 467.5 672Q448 677 420.5 681.5Q393 686 360 686Q243 686 176 600Q109 514 109 349Q109 192 176.5 111.5Q244 31 360 31Q397 31 425 36Q453 41 472 48Q494 55 509 64V25Q494 16 473 9Q453 2 426 -3Q399 -8 361 -8Q352 -8 344.5 -7.5Q337 -7 329 -6L324 -55Q443 -61 443 -139Z" glyph-name="Ccedilla_k" horiz-adv-x="1011" /><glyph d="M443 -139Q443 -165 430 -184Q417 -203 394 -215.5Q371 -228 340 -232.5Q309 -237 272 -234V-204Q328 -206 363 -191Q398 -176 398 -142Q398 -115 372.5 -101Q347 -87 284 -88L293 -2Q184 18 122.5 106.5Q61 195 61 348Q61 439 81.5 509.5Q102 580 141 628Q180 676 235.5 700.5Q291 725 361 725Q399 725 429 719Q459 713 475 708Q480 735 497.5 750.5Q515 766 547 766H684V110Q684 65 693.5 47.5Q703 30 731 29Q737 29 743 31Q746 32 748 33V1Q743 -1 737 -3Q731 -5 724 -6Q717 -7 708 -7Q671 -7 655 15.5Q639 38 639 87V730H561Q536 730 522.5 717Q509 704 509 674V657Q508 657 497 662Q486 667 466.5 672Q447 677 420 681.5Q393 686 360 686Q243 686 176 600Q109 514 109 349Q109 192 176.5 111.5Q244 31 360 31Q397 31 425 36Q453 41 472 48Q494 55 509 64V25Q494 16 473 9Q453 2 426 -3Q399 -8 361 -8Q352 -8 344.5 -7.5Q337 -7 329 -6L324 -55Q443 -61 443 -139Z" glyph-name="Ccedilla_l" horiz-adv-x="786" /><glyph d="M442 -138Q442 -164 429 -183Q416 -202 393 -214.5Q370 -227 339 -232Q308 -237 271 -234V-204Q327 -206 362 -191Q397 -176 397 -142Q397 -115 371.5 -101Q346 -87 283 -88L293 12Q187 45 123.5 133Q60 221 60 363Q60 449 80.5 516Q101 583 140 629.5Q179 676 234.5 700.5Q290 725 360 725Q396 725 423.5 720.5Q451 716 470 711Q492 705 508 697V657Q490 665 467 672Q446 677 419.5 681.5Q393 686 359 686Q301 686 254.5 664.5Q208 643 175.5 601.5Q143 560 125.5 501Q108 442 108 367Q108 281 133 217.5Q158 154 203 112Q248 70 311 49.5Q374 29 450 29H682Q750 29 793.5 54Q837 79 837 128Q837 174 806 196.5Q775 219 721 236Q694 245 667 256Q640 267 618.5 283.5Q597 300 583.5 324Q570 348 570 382Q570 412 582.5 435Q595 458 617 474.5Q639 491 669 499.5Q699 508 734 508Q763 508 785.5 504.5Q808 501 823 496Q841 491 854 484V447Q839 454 821 460Q804 465 782.5 468.5Q761 472 734 472Q683 472 648 449.5Q613 427 613 381Q613 357 624 340Q635 323 653.5 310Q672 297 696.5 288Q721 279 748 270Q808 253 843.5 221.5Q879 190 879 133Q879 65 823.5 28.5Q768 -8 678 -8H433Q405 -8 379.5 -5Q354 -2 329 3L323 -55Q442 -59 442 -138Z" glyph-name="Ccedilla_s" horiz-adv-x="926" /><glyph d="M360 -8Q291 -8 236 14.5Q181 37 142 82Q103 127 82 193.5Q61 260 61 348Q61 439 81.5 509.5Q102 580 141 628Q180 676 235.5 700.5Q291 725 361 725Q397 725 424.5 720.5Q452 716 471 711Q493 705 509 697V657Q491 665 468 672Q447 677 420.5 681.5Q394 686 360 686Q243 686 176 600Q109 514 109 349Q109 192 176.5 111.5Q244 31 360 31Q397 31 425 36Q453 41 472 48Q494 55 509 64V25Q494 16 473 9Q453 2 425.5 -3Q398 -8 360 -8ZM181 810 314 923H344L477 810L460 785L329 883L198 785Z" glyph-name="Ccircumflex" horiz-adv-x="554" unicode="&#264;" /><glyph d="M152 623 260 711H287L394 623L379 603L273 678L167 603ZM300 -6Q245 -6 200 11.5Q155 29 123 63.5Q91 98 73.5 149Q56 200 56 268Q56 408 121 482.5Q186 557 300 557Q329 557 351 553.5Q373 550 388 546Q406 541 419 535V499Q405 505 387 510Q371 514 349.5 517.5Q328 521 301 521Q208 521 155 456.5Q102 392 102 269Q102 150 155 89.5Q208 29 301 29Q330 29 352 33Q374 37 389 42Q407 48 420 55V19Q408 12 391 7Q375 1 353 -2.5Q331 -6 300 -6Z" glyph-name="Ccircumflex.sc" horiz-adv-x="464" /><glyph d="M360 -8Q291 -8 236 14.5Q181 37 142 82Q103 127 82 193.5Q61 260 61 348Q61 439 81.5 509.5Q102 580 141 628Q180 676 235.5 700.5Q291 725 361 725Q397 725 424.5 720.5Q452 716 471 711Q493 705 509 697V657Q491 665 468 672Q447 677 420.5 681.5Q394 686 360 686Q243 686 176 600Q109 514 109 349Q109 192 176.5 111.5Q244 31 360 31Q397 31 425 36Q453 41 472 48Q494 55 509 64V25Q494 16 473 9Q453 2 425.5 -3Q398 -8 360 -8ZM324 815Q309 815 298.5 825.5Q288 836 288 853Q288 870 298.5 880.5Q309 891 324 891Q341 891 351.5 880.5Q362 870 362 853Q362 836 351.5 825.5Q341 815 324 815Z" glyph-name="Cdotaccent" horiz-adv-x="554" unicode="&#266;" /><glyph d="M270 625Q256 625 247.5 633.5Q239 642 239 656Q239 687 270 687Q286 687 294 679Q302 671 302 657Q302 643 293.5 634Q285 625 270 625ZM300 -6Q245 -6 200 11.5Q155 29 123 63.5Q91 98 73.5 149Q56 200 56 268Q56 408 121 482.5Q186 557 300 557Q329 557 351 553.5Q373 550 388 546Q406 541 419 535V499Q405 505 387 510Q371 514 349.5 517.5Q328 521 301 521Q208 521 155 456.5Q102 392 102 269Q102 150 155 89.5Q208 29 301 29Q330 29 352 33Q374 37 389 42Q407 48 420 55V19Q408 12 391 7Q375 1 353 -2.5Q331 -6 300 -6Z" glyph-name="Cdotaccent.sc" horiz-adv-x="464" /><glyph d="M359 -8Q290 -8 235 14.5Q180 37 141.5 81.5Q103 126 82 192Q61 258 61 345Q61 434 85.5 503Q110 572 156 619Q202 666 267.5 690.5Q333 715 415 715H967V674H747V-1H701V674H421Q349 674 291.5 653.5Q234 633 193 591.5Q152 550 130 488.5Q108 427 108 346Q108 190 176 110.5Q244 31 360 31Q397 31 424.5 36Q452 41 471 48Q493 55 509 64V25Q494 16 473 9Q453 2 425.5 -3Q398 -8 359 -8ZM324 815Q309 815 298.5 825.5Q288 836 288 853Q288 870 298.5 880.5Q309 891 324 891Q341 891 351.5 880.5Q362 870 362 853Q362 836 351.5 825.5Q341 815 324 815Z" glyph-name="Cdotaccent_T" horiz-adv-x="980" /><glyph d="M270 625Q256 625 247.5 633.5Q239 642 239 656Q239 687 270 687Q286 687 294 679Q302 671 302 657Q302 643 293.5 634Q285 625 270 625ZM300 -6Q245 -6 200 11Q155 28 123 62.5Q91 97 73.5 148Q56 199 56 266Q56 334 76 387Q96 440 133.5 476Q171 512 224.5 530.5Q278 549 344 549H792V512H616V-1H573V512H349Q236 512 169 450Q102 388 102 266Q102 149 155 89Q208 29 301 29Q330 29 352 33Q374 37 389 42Q407 48 420 55V19Q408 12 391 7Q375 1 353 -2.5Q331 -6 300 -6Z" glyph-name="Cdotaccent_T.sc" horiz-adv-x="809" /><glyph d="M324 815Q309 815 298.5 825.5Q288 836 288 853Q288 870 298.5 880.5Q309 891 325 891Q342 891 352 880.5Q362 870 362 853Q362 836 351.5 825.5Q341 815 324 815ZM509 25Q494 16 473 9Q453 2 425.5 -3Q398 -8 360 -8Q291 -8 236 14.5Q181 37 142 82Q103 127 82 193.5Q61 260 61 348Q61 439 81.5 509.5Q102 580 141 628Q180 676 235.5 700.5Q291 725 361 725Q399 725 429 719Q459 713 475 708Q480 735 497.5 750.5Q515 766 547 766H685V277H753L940 500H990L791 264L997 0H940L753 242H685V0H640V730H561Q509 730 509 674V657Q508 657 497.5 662Q487 667 467.5 672Q448 677 420.5 681.5Q393 686 360 686Q243 686 176 600Q109 514 109 349Q109 192 176.5 111.5Q244 31 360 31Q397 31 425 36Q453 41 472 48Q494 55 509 64Z" glyph-name="Cdotaccent_k" horiz-adv-x="1011" /><glyph d="M324 815Q309 815 298.5 825.5Q288 836 288 853Q288 870 298.5 880.5Q309 891 325 891Q342 891 352 880.5Q362 870 362 853Q362 836 351.5 825.5Q341 815 324 815ZM708 -7Q671 -7 654.5 15.5Q638 38 639 87V730H561Q509 730 509 674V657Q508 657 497.5 662Q487 667 467.5 672Q448 677 420.5 681.5Q393 686 360 686Q243 686 176 600Q109 514 109 349Q109 192 176.5 111.5Q244 31 360 31Q397 31 425 36Q453 41 472 48Q494 55 509 64V25Q494 16 473 9Q453 2 425.5 -3Q398 -8 360 -8Q291 -8 236 14.5Q181 37 142 82Q103 127 82 193.5Q61 260 61 348Q61 439 81.5 509.5Q102 580 141 628Q180 676 235.5 700.5Q291 725 361 725Q399 725 429 719Q459 713 475 708Q480 735 497.5 750.5Q515 766 547 766H684V110Q684 65 693.5 47.5Q703 30 730 29Q736 29 743 31Q746 32 748 33V1Q743 -1 737 -3Q731 -5 724 -6Q717 -7 708 -7Z" glyph-name="Cdotaccent_l" horiz-adv-x="786" /><glyph d="M99 716H278Q440 716 519.5 625Q599 534 599 369Q599 194 520 97Q441 0 278 0H99ZM278 41Q417 41 484.5 126.5Q552 212 552 369Q552 520 483.5 597.5Q415 675 278 675H145V41Z" glyph-name="D" horiz-adv-x="660" unicode="D" /><glyph d="M88 550H233Q366 550 430.5 479Q495 408 495 283Q495 150 431 75Q367 0 233 0H88ZM234 37Q345 37 397.5 101.5Q450 166 450 283Q450 395 396.5 454Q343 513 234 513H132V37Z" glyph-name="D.sc" horiz-adv-x="552" /><glyph d="M99 716H276Q397 716 475.5 661Q554 606 578 494Q590 554 616.5 598Q643 642 679.5 670Q716 698 761 711.5Q806 725 855 725Q891 725 918.5 720.5Q946 716 965 711Q987 705 1003 697V657Q985 665 963 672Q942 677 915.5 681.5Q889 686 855 686Q737 686 670 600Q603 514 603 349Q603 266 622 206Q641 146 675 107Q709 68 755 49.5Q801 31 855 31Q892 31 920 36Q948 41 967 48Q989 55 1004 64V25Q989 16 968 9Q948 2 920.5 -3Q893 -8 854 -8Q751 -8 676 48Q601 104 575 222Q544 109 468 54.5Q392 0 277 0H99ZM278 41Q418 41 487 126Q556 211 556 369Q556 520 485.5 597.5Q415 675 278 675H144V41Z" glyph-name="D_C" horiz-adv-x="1048" /><glyph d="M88 550H233Q330 550 392.5 509Q455 468 475 384Q486 429 507 461.5Q528 494 557.5 515.5Q587 537 623 547Q659 557 698 557Q727 557 748.5 553.5Q770 550 786 546Q803 541 816 535V499Q802 505 784 510Q768 514 746.5 517.5Q725 521 698 521Q605 521 552 456.5Q499 392 499 269Q499 207 514 161.5Q529 116 555.5 86.5Q582 57 618.5 43Q655 29 698 29Q727 29 749.5 33Q772 37 787 42Q804 48 817 55V19Q805 12 788 7Q772 1 749.5 -2.5Q727 -6 696 -6Q614 -6 554 35.5Q494 77 473 166Q447 81 386 40.5Q325 0 234 0H88ZM235 37Q345 37 399.5 101.5Q454 166 454 283Q454 395 398.5 454Q343 513 235 513H132V37Z" glyph-name="D_C.sc" horiz-adv-x="861" /><glyph d="M99 716H276Q397 716 475.5 661Q554 606 578 494Q590 554 616.5 598Q643 642 679.5 670Q716 698 761 711.5Q806 725 855 725Q891 725 918.5 720.5Q946 716 965 711Q987 705 1003 697V657Q985 665 963 672Q942 677 915.5 681.5Q889 686 855 686Q737 686 670 600Q603 514 603 349Q603 266 622 206Q641 146 675 107Q709 68 755 49.5Q801 31 855 31Q892 31 920 36Q948 41 967 48Q989 55 1004 64V25Q989 16 968 9Q948 2 920.5 -3Q893 -8 854 -8Q751 -8 676 48Q601 104 575 222Q544 109 468 54.5Q392 0 277 0H99ZM278 41Q418 41 487 126Q556 211 556 369Q556 520 485.5 597.5Q415 675 278 675H144V41ZM669 898 686 923 823 825 959 923 976 898 837 785H807Z" glyph-name="D_Ccaron" horiz-adv-x="1048" /><glyph d="M544 690 559 711 670 637 780 711 795 690 683 603H656ZM88 550H233Q330 550 392.5 509Q455 468 475 384Q486 429 507 461.5Q528 494 557.5 515.5Q587 537 623 547Q659 557 698 557Q727 557 748.5 553.5Q770 550 786 546Q803 541 816 535V499Q802 505 784 510Q768 514 746.5 517.5Q725 521 698 521Q605 521 552 456.5Q499 392 499 269Q499 207 514 161.5Q529 116 555.5 86.5Q582 57 618.5 43Q655 29 698 29Q727 29 749.5 33Q772 37 787 42Q804 48 817 55V19Q805 12 788 7Q772 1 749.5 -2.5Q727 -6 696 -6Q614 -6 554 35.5Q494 77 473 166Q447 81 386 40.5Q325 0 234 0H88ZM235 37Q345 37 399.5 101.5Q454 166 454 283Q454 395 398.5 454Q343 513 235 513H132V37Z" glyph-name="D_Ccaron.sc" horiz-adv-x="861" /><glyph d="M278 41Q418 41 487 126Q556 211 556 369Q556 520 485.5 597.5Q415 675 278 675H144V41ZM938 -139Q938 -165 925 -184Q912 -203 889 -215.5Q866 -228 835 -232.5Q804 -237 767 -234V-204Q823 -206 857.5 -191Q892 -176 892 -142Q892 -115 866.5 -101Q841 -87 778 -88L787 -2Q708 14 652 68.5Q596 123 575 222Q544 109 468 54.5Q392 0 277 0H99V716H276Q397 716 475.5 661Q554 606 578 494Q590 554 616.5 598Q643 642 679.5 670Q716 698 761 711.5Q806 725 855 725Q891 725 918.5 720.5Q946 716 965 711Q987 705 1003 697V657Q985 665 963 672Q942 677 915.5 681.5Q889 686 855 686Q737 686 670 600Q603 514 603 349Q603 266 622 206Q641 146 675 107Q709 68 755 49.5Q801 31 855 31Q892 31 920 36Q948 41 967 48Q989 55 1004 64V25Q989 16 968 9Q948 2 920.5 -3Q893 -8 855 -8Q847 -8 839 -7.5Q831 -7 823 -6L818 -55Q880 -58 909 -78.5Q938 -99 938 -139Z" glyph-name="D_Ccedilla" horiz-adv-x="1048" /><glyph d="M235 37Q345 37 399.5 101.5Q454 166 454 283Q454 395 398.5 454Q343 513 235 513H132V37ZM764 -106Q764 -146 724 -165.5Q684 -185 624 -179V-155Q669 -157 696 -145.5Q723 -134 723 -108Q723 -67 643 -67H633L640 -1Q579 10 534.5 51Q490 92 473 166Q447 81 386 40.5Q325 0 234 0H88V550H233Q330 550 392.5 509Q455 468 475 384Q486 429 507 461.5Q528 494 557.5 515.5Q587 537 623 547Q659 557 698 557Q727 557 748.5 553.5Q770 550 786 546Q803 541 816 535V499Q802 505 784 510Q768 514 746.5 517.5Q725 521 698 521Q605 521 552 456.5Q499 392 499 269Q499 207 514 161.5Q529 116 555.5 86.5Q582 57 618.5 43Q655 29 698 29Q727 29 749.5 33Q772 37 787 42Q804 48 817 55V19Q805 12 788 7Q772 1 750.5 -2.5Q729 -6 698 -6Q691 -6 685 -6Q679 -6 673 -4L669 -42Q764 -45 764 -106Z" glyph-name="D_Ccedilla.sc" horiz-adv-x="861" /><glyph d="M99 716H277Q403 716 478 658.5Q553 601 579 495Q605 603 679 664Q753 725 871 725Q915 725 947 719.5Q979 714 1000 707Q1025 699 1042 689V650Q1023 660 997 668Q974 675 943 680.5Q912 686 872 686Q796 686 744.5 660.5Q693 635 661 591Q629 547 615 487.5Q601 428 601 360Q601 292 615.5 232Q630 172 662 127.5Q694 83 747 57Q800 31 876 31Q902 31 923.5 35Q945 39 962 43.5Q979 48 990.5 52.5Q1002 57 1007 58V344H808V384H1050V29Q1029 19 1002 11Q978 3 947 -2.5Q916 -8 876 -8Q811 -8 760.5 9.5Q710 27 673 58.5Q636 90 612 134.5Q588 179 577 232Q547 118 472 59Q397 0 277 0H99ZM278 41Q418 41 487 126Q556 211 556 369Q556 520 485.5 597.5Q415 675 278 675H144V41Z" glyph-name="D_G" horiz-adv-x="1122" /><glyph d="M88 550H234Q334 550 394.5 507Q455 464 476 384Q498 465 557.5 511Q617 557 711 557Q746 557 772 552.5Q798 548 815 543Q836 537 850 529V494Q834 502 814 508Q795 513 770.5 517Q746 521 714 521Q654 521 613 502Q572 483 546.5 450Q521 417 509.5 372Q498 327 498 276Q498 225 509.5 180Q521 135 546.5 101.5Q572 68 613 48.5Q654 29 714 29Q755 29 782 38Q809 47 816 49V260H661V297H857V22Q840 14 818 8Q798 2 772.5 -2.5Q747 -7 715 -7Q612 -7 553 43Q494 93 474 173Q450 88 390 44Q330 0 234 0H88ZM235 37Q345 37 399.5 101.5Q454 166 454 283Q454 395 398.5 454Q343 513 235 513H132V37Z" glyph-name="D_G.sc" horiz-adv-x="923" /><glyph d="M841 815Q826 815 815.5 825.5Q805 836 805 853Q805 870 815.5 880.5Q826 891 841 891Q858 891 868.5 880.5Q879 870 879 853Q879 836 868.5 825.5Q858 815 841 815ZM99 716H277Q403 716 478 658.5Q553 601 579 495Q605 603 679 664Q753 725 871 725Q915 725 947 719.5Q979 714 1000 707Q1025 699 1042 689V650Q1023 660 997 668Q974 675 943 680.5Q912 686 872 686Q796 686 744.5 660.5Q693 635 661 591Q629 547 615 487.5Q601 428 601 360Q601 292 615.5 232Q630 172 662 127.5Q694 83 747 57Q800 31 876 31Q902 31 923.5 35Q945 39 962 43.5Q979 48 990.5 52.5Q1002 57 1007 58V344H808V384H1050V29Q1029 19 1002 11Q978 3 947 -2.5Q916 -8 876 -8Q811 -8 760.5 9.5Q710 27 673 58.5Q636 90 612 134.5Q588 179 577 232Q547 118 472 59Q397 0 277 0H99ZM278 41Q418 41 487 126Q556 211 556 369Q556 520 485.5 597.5Q415 675 278 675H144V41Z" glyph-name="D_Gdotaccent" horiz-adv-x="1122" /><glyph d="M687 625Q673 625 664.5 633.5Q656 642 656 656Q656 670 664.5 678.5Q673 687 687 687Q702 687 711 679Q720 671 720 657Q720 643 711 634Q702 625 687 625ZM88 550H234Q334 550 394.5 507Q455 464 476 384Q498 465 557.5 511Q617 557 711 557Q746 557 772 552.5Q798 548 815 543Q836 537 850 529V494Q834 502 814 508Q795 513 770.5 517Q746 521 714 521Q654 521 613 502Q572 483 546.5 450Q521 417 509.5 372Q498 327 498 276Q498 225 509.5 180Q521 135 546.5 101.5Q572 68 613 48.5Q654 29 714 29Q755 29 782 38Q809 47 816 49V260H661V297H857V22Q840 14 818 8Q798 2 772.5 -2.5Q747 -7 715 -7Q612 -7 553 43Q494 93 474 173Q450 88 390 44Q330 0 234 0H88ZM235 37Q345 37 399.5 101.5Q454 166 454 283Q454 395 398.5 454Q343 513 235 513H132V37Z" glyph-name="D_Gdotaccent.sc" horiz-adv-x="923" /><glyph d="M99 716H277Q403 716 480 660Q557 604 583 498Q609 616 675.5 670.5Q742 725 838 725Q902 725 953 703Q1004 681 1040 636Q1076 591 1095.5 522Q1115 453 1115 359Q1115 175 1040.5 83.5Q966 -8 838 -8Q742 -8 672 50Q602 108 580 223Q550 113 473.5 56.5Q397 0 277 0H99ZM838 31Q890 31 932.5 50Q975 69 1005 109Q1035 149 1051.5 211Q1068 273 1068 359Q1068 447 1051.5 509Q1035 571 1004.5 610.5Q974 650 931.5 668Q889 686 838 686Q786 686 743.5 667.5Q701 649 670.5 609.5Q640 570 623.5 508Q607 446 607 359Q607 273 623.5 211Q640 149 670.5 109Q701 69 743.5 50Q786 31 838 31ZM278 41Q420 41 490.5 126Q561 211 561 369Q561 520 489 597.5Q417 675 278 675H144V41Z" glyph-name="D_O" horiz-adv-x="1177" /><glyph d="M88 550H234Q334 550 395 508Q456 466 479 388Q499 475 552.5 516Q606 557 683 557Q787 557 848 488Q909 419 909 276Q909 134 848.5 64Q788 -6 683 -6Q605 -6 550 37Q495 80 477 166Q451 85 390.5 42.5Q330 0 234 0H88ZM683 29Q765 29 814.5 88Q864 147 864 276Q864 341 851 387.5Q838 434 814.5 463.5Q791 493 757.5 507Q724 521 683 521Q642 521 608.5 507Q575 493 551.5 463.5Q528 434 515 387.5Q502 341 502 276Q502 147 551.5 88Q601 29 683 29ZM235 37Q347 37 402 101.5Q457 166 457 283Q457 395 400.5 454Q344 513 235 513H132V37Z" glyph-name="D_O.sc" horiz-adv-x="967" /><glyph d="M99 716H277Q403 716 480 660Q557 604 583 498Q609 616 675.5 670.5Q742 725 838 725Q902 725 953 703Q1004 681 1040 636Q1076 591 1095.5 522Q1115 453 1115 359Q1115 175 1040.5 83.5Q966 -8 838 -8Q742 -8 672 50Q602 108 580 223Q550 113 473.5 56.5Q397 0 277 0H99ZM838 31Q890 31 932.5 50Q975 69 1005 109Q1035 149 1051.5 211Q1068 273 1068 359Q1068 447 1051.5 509Q1035 571 1004.5 610.5Q974 650 931.5 668Q889 686 838 686Q786 686 743.5 667.5Q701 649 670.5 609.5Q640 570 623.5 508Q607 446 607 359Q607 273 623.5 211Q640 149 670.5 109Q701 69 743.5 50Q786 31 838 31ZM278 41Q420 41 490.5 126Q561 211 561 369Q561 520 489 597.5Q417 675 278 675H144V41ZM781 815 981 918 999 876 794 785Z" glyph-name="D_Oacute" horiz-adv-x="1177" /><glyph d="M635 629 797 707 813 672 647 603ZM88 550H234Q334 550 395 508Q456 466 479 388Q499 475 552.5 516Q606 557 683 557Q787 557 848 488Q909 419 909 276Q909 134 848.5 64Q788 -6 683 -6Q605 -6 550 37Q495 80 477 166Q451 85 390.5 42.5Q330 0 234 0H88ZM683 29Q765 29 814.5 88Q864 147 864 276Q864 341 851 387.5Q838 434 814.5 463.5Q791 493 757.5 507Q724 521 683 521Q642 521 608.5 507Q575 493 551.5 463.5Q528 434 515 387.5Q502 341 502 276Q502 147 551.5 88Q601 29 683 29ZM235 37Q347 37 402 101.5Q457 166 457 283Q457 395 400.5 454Q344 513 235 513H132V37Z" glyph-name="D_Oacute.sc" horiz-adv-x="967" /><glyph d="M99 716H277Q403 716 480 660Q557 604 583 498Q609 616 675.5 670.5Q742 725 838 725Q902 725 953 703Q1004 681 1040 636Q1076 591 1095.5 522Q1115 453 1115 359Q1115 175 1040.5 83.5Q966 -8 838 -8Q742 -8 672 50Q602 108 580 223Q550 113 473.5 56.5Q397 0 277 0H99ZM838 31Q890 31 932.5 50Q975 69 1005 109Q1035 149 1051.5 211Q1068 273 1068 359Q1068 447 1051.5 509Q1035 571 1004.5 610.5Q974 650 931.5 668Q889 686 838 686Q786 686 743.5 667.5Q701 649 670.5 609.5Q640 570 623.5 508Q607 446 607 359Q607 273 623.5 211Q640 149 670.5 109Q701 69 743.5 50Q786 31 838 31ZM278 41Q420 41 490.5 126Q561 211 561 369Q561 520 489 597.5Q417 675 278 675H144V41ZM694 810 827 923H857L990 810L973 785L842 883L711 785Z" glyph-name="D_Ocircumflex" horiz-adv-x="1177" /><glyph d="M565 623 672 711H700L808 623L792 603L686 678L581 603ZM88 550H234Q334 550 395 508Q456 466 479 388Q499 475 552.5 516Q606 557 683 557Q787 557 848 488Q909 419 909 276Q909 134 848.5 64Q788 -6 683 -6Q605 -6 550 37Q495 80 477 166Q451 85 390.5 42.5Q330 0 234 0H88ZM683 29Q765 29 814.5 88Q864 147 864 276Q864 341 851 387.5Q838 434 814.5 463.5Q791 493 757.5 507Q724 521 683 521Q642 521 608.5 507Q575 493 551.5 463.5Q528 434 515 387.5Q502 341 502 276Q502 147 551.5 88Q601 29 683 29ZM235 37Q347 37 402 101.5Q457 166 457 283Q457 395 400.5 454Q344 513 235 513H132V37Z" glyph-name="D_Ocircumflex.sc" horiz-adv-x="967" /><glyph d="M99 716H277Q403 716 480 660Q557 604 583 498Q609 616 675.5 670.5Q742 725 838 725Q902 725 953 703Q1004 681 1040 636Q1076 591 1095.5 522Q1115 453 1115 359Q1115 175 1040.5 83.5Q966 -8 838 -8Q742 -8 672 50Q602 108 580 223Q550 113 473.5 56.5Q397 0 277 0H99ZM838 31Q890 31 932.5 50Q975 69 1005 109Q1035 149 1051.5 211Q1068 273 1068 359Q1068 447 1051.5 509Q1035 571 1004.5 610.5Q974 650 931.5 668Q889 686 838 686Q786 686 743.5 667.5Q701 649 670.5 609.5Q640 570 623.5 508Q607 446 607 359Q607 273 623.5 211Q640 149 670.5 109Q701 69 743.5 50Q786 31 838 31ZM278 41Q420 41 490.5 126Q561 211 561 369Q561 520 489 597.5Q417 675 278 675H144V41ZM755 815Q741 815 730.5 825Q720 835 720 852Q720 869 730.5 879Q741 889 756 889Q772 889 782 879Q792 869 792 852Q792 835 782 825Q772 815 755 815ZM929 815Q914 815 904 825Q894 835 894 852Q894 869 904 879Q914 889 929 889Q945 889 955.5 879Q966 869 966 852Q966 835 955.5 825Q945 815 929 815Z" glyph-name="D_Odieresis" horiz-adv-x="1177" /><glyph d="M616 625Q602 625 593.5 633.5Q585 642 585 656Q585 670 593.5 678Q602 686 616 686Q630 686 638.5 678Q647 670 647 656Q647 642 638.5 633.5Q630 625 616 625ZM757 625Q743 625 734.5 633.5Q726 642 726 656Q726 670 734.5 678Q743 686 757 686Q771 686 780 678Q789 670 789 656Q789 642 780 633.5Q771 625 757 625ZM88 550H234Q334 550 395 508Q456 466 479 388Q499 475 552.5 516Q606 557 683 557Q787 557 848 488Q909 419 909 276Q909 134 848.5 64Q788 -6 683 -6Q605 -6 550 37Q495 80 477 166Q451 85 390.5 42.5Q330 0 234 0H88ZM683 29Q765 29 814.5 88Q864 147 864 276Q864 341 851 387.5Q838 434 814.5 463.5Q791 493 757.5 507Q724 521 683 521Q642 521 608.5 507Q575 493 551.5 463.5Q528 434 515 387.5Q502 341 502 276Q502 147 551.5 88Q601 29 683 29ZM235 37Q347 37 402 101.5Q457 166 457 283Q457 395 400.5 454Q344 513 235 513H132V37Z" glyph-name="D_Odieresis.sc" horiz-adv-x="967" /><glyph d="M99 716H277Q403 716 480 660Q557 604 583 498Q609 616 675.5 670.5Q742 725 838 725Q902 725 953 703Q1004 681 1040 636Q1076 591 1095.5 522Q1115 453 1115 359Q1115 175 1040.5 83.5Q966 -8 838 -8Q742 -8 672 50Q602 108 580 223Q550 113 473.5 56.5Q397 0 277 0H99ZM838 31Q890 31 932.5 50Q975 69 1005 109Q1035 149 1051.5 211Q1068 273 1068 359Q1068 447 1051.5 509Q1035 571 1004.5 610.5Q974 650 931.5 668Q889 686 838 686Q786 686 743.5 667.5Q701 649 670.5 609.5Q640 570 623.5 508Q607 446 607 359Q607 273 623.5 211Q640 149 670.5 109Q701 69 743.5 50Q786 31 838 31ZM278 41Q420 41 490.5 126Q561 211 561 369Q561 520 489 597.5Q417 675 278 675H144V41ZM683 876 701 918 901 815 887 785Z" glyph-name="D_Ograve" horiz-adv-x="1177" /><glyph d="M560 672 576 707 738 629 725 603ZM88 550H234Q334 550 395 508Q456 466 479 388Q499 475 552.5 516Q606 557 683 557Q787 557 848 488Q909 419 909 276Q909 134 848.5 64Q788 -6 683 -6Q605 -6 550 37Q495 80 477 166Q451 85 390.5 42.5Q330 0 234 0H88ZM683 29Q765 29 814.5 88Q864 147 864 276Q864 341 851 387.5Q838 434 814.5 463.5Q791 493 757.5 507Q724 521 683 521Q642 521 608.5 507Q575 493 551.5 463.5Q528 434 515 387.5Q502 341 502 276Q502 147 551.5 88Q601 29 683 29ZM235 37Q347 37 402 101.5Q457 166 457 283Q457 395 400.5 454Q344 513 235 513H132V37Z" glyph-name="D_Ograve.sc" horiz-adv-x="967" /><glyph d="M99 716H277Q403 716 480 660Q557 604 583 498Q609 616 675.5 670.5Q742 725 838 725Q902 725 953 703Q1004 681 1040 636Q1076 591 1095.5 522Q1115 453 1115 359Q1115 175 1040.5 83.5Q966 -8 838 -8Q742 -8 672 50Q602 108 580 223Q550 113 473.5 56.5Q397 0 277 0H99ZM838 31Q890 31 932.5 50Q975 69 1005 109Q1035 149 1051.5 211Q1068 273 1068 359Q1068 447 1051.5 509Q1035 571 1004.5 610.5Q974 650 931.5 668Q889 686 838 686Q786 686 743.5 667.5Q701 649 670.5 609.5Q640 570 623.5 508Q607 446 607 359Q607 273 623.5 211Q640 149 670.5 109Q701 69 743.5 50Q786 31 838 31ZM278 41Q420 41 490.5 126Q561 211 561 369Q561 520 489 597.5Q417 675 278 675H144V41ZM726 806 858 951 893 922 753 785ZM862 815 1061 918 1079 876 875 785Z" glyph-name="D_Ohungarumlaut" horiz-adv-x="1177" /><glyph d="M591 621 697 733 728 709 615 603ZM703 628 862 707 879 673 716 603ZM88 550H234Q334 550 395 508Q456 466 479 388Q499 475 552.5 516Q606 557 683 557Q787 557 848 488Q909 419 909 276Q909 134 848.5 64Q788 -6 683 -6Q605 -6 550 37Q495 80 477 166Q451 85 390.5 42.5Q330 0 234 0H88ZM683 29Q765 29 814.5 88Q864 147 864 276Q864 341 851 387.5Q838 434 814.5 463.5Q791 493 757.5 507Q724 521 683 521Q642 521 608.5 507Q575 493 551.5 463.5Q528 434 515 387.5Q502 341 502 276Q502 147 551.5 88Q601 29 683 29ZM235 37Q347 37 402 101.5Q457 166 457 283Q457 395 400.5 454Q344 513 235 513H132V37Z" glyph-name="D_Ohungarumlaut.sc" horiz-adv-x="967" /><glyph d="M607 359Q607 280 621 222Q635 164 661 124L993 621Q964 655 924.5 670.5Q885 686 838 686Q786 686 743.5 667.5Q701 649 670.5 609.5Q640 570 623.5 508Q607 446 607 359ZM278 41Q420 41 490.5 126Q561 211 561 369Q561 520 489 597.5Q417 675 278 675H144V41ZM838 31Q890 31 932.5 50Q975 69 1005 109Q1035 149 1051.5 211Q1068 273 1068 359Q1068 437 1055 494Q1042 551 1018 590L685 94Q714 61 753.5 46Q793 31 838 31ZM838 -8Q786 -8 742 8.5Q698 25 663 59L613 -15H569L636 84Q593 137 580 223Q550 113 473.5 56.5Q397 0 277 0H99V716H277Q403 716 480 660Q557 604 583 498Q609 616 675.5 670.5Q742 725 838 725Q892 725 936.5 708.5Q981 692 1016 657L1067 731H1111L1044 631Q1079 586 1097 518Q1115 450 1115 359Q1115 175 1040.5 83.5Q966 -8 838 -8Z" glyph-name="D_Oslash" horiz-adv-x="1178" /><glyph d="M502 276Q502 217 512.5 173.5Q523 130 543 100L805 472Q782 498 751 509.5Q720 521 683 521Q642 521 608.5 507Q575 493 551.5 463.5Q528 434 515 387.5Q502 341 502 276ZM235 37Q347 37 402 101.5Q457 166 457 283Q457 395 400.5 454Q344 513 235 513H132V37ZM683 29Q765 29 814.5 88Q864 147 864 276Q864 333 854 374.5Q844 416 826 445L564 74Q611 29 683 29ZM683 -6Q599 -6 544 43L504 -13H464L519 65Q488 102 477 166Q451 85 390.5 42.5Q330 0 234 0H88V550H234Q334 550 395 508Q456 466 479 388Q499 475 552.5 516Q606 557 683 557Q726 557 762.5 544Q799 531 826 505L868 563H907L851 483Q879 448 894 396.5Q909 345 909 276Q909 134 848.5 64Q788 -6 683 -6Z" glyph-name="D_Oslash.sc" horiz-adv-x="977" /><glyph d="M99 716H277Q403 716 480 660Q557 604 583 498Q609 616 675.5 670.5Q742 725 838 725Q902 725 953 703Q1004 681 1040 636Q1076 591 1095.5 522Q1115 453 1115 359Q1115 175 1040.5 83.5Q966 -8 838 -8Q742 -8 672 50Q602 108 580 223Q550 113 473.5 56.5Q397 0 277 0H99ZM838 31Q890 31 932.5 50Q975 69 1005 109Q1035 149 1051.5 211Q1068 273 1068 359Q1068 447 1051.5 509Q1035 571 1004.5 610.5Q974 650 931.5 668Q889 686 838 686Q786 686 743.5 667.5Q701 649 670.5 609.5Q640 570 623.5 508Q607 446 607 359Q607 273 623.5 211Q640 149 670.5 109Q701 69 743.5 50Q786 31 838 31ZM278 41Q420 41 490.5 126Q561 211 561 369Q561 520 489 597.5Q417 675 278 675H144V41ZM699 807Q700 836 709 858Q717 879 733 894Q749 909 779 909Q804 909 820 896.5Q836 884 850 870Q864 856 877 844Q890 832 909 832Q925 832 933.5 841.5Q942 851 947 863Q952 877 953 894H986Q985 866 976 845Q968 824 952.5 809.5Q937 795 908 795Q883 795 867 807.5Q851 820 837 834Q823 848 809.5 860.5Q796 873 779 873Q762 873 752.5 862.5Q743 852 738 840Q733 825 732 807Z" glyph-name="D_Otilde" horiz-adv-x="1177" /><glyph d="M568 620Q568 621 569.5 634Q571 647 577.5 662Q584 677 597.5 689Q611 701 635 701Q655 701 668 691.5Q681 682 692 671Q704 660 714.5 651.5Q725 643 740 643Q753 643 760 650Q767 657 771 666Q775 676 776 689H805Q805 688 803.5 675.5Q802 663 795.5 648.5Q789 634 776 622.5Q763 611 740 611Q720 611 707 620Q694 629 682 640Q670 651 659.5 660Q649 669 635 669Q621 669 613.5 661.5Q606 654 603 645Q599 634 598 620ZM88 550H234Q334 550 395 508Q456 466 479 388Q499 475 552.5 516Q606 557 683 557Q787 557 848 488Q909 419 909 276Q909 134 848.5 64Q788 -6 683 -6Q605 -6 550 37Q495 80 477 166Q451 85 390.5 42.5Q330 0 234 0H88ZM683 29Q765 29 814.5 88Q864 147 864 276Q864 341 851 387.5Q838 434 814.5 463.5Q791 493 757.5 507Q724 521 683 521Q642 521 608.5 507Q575 493 551.5 463.5Q528 434 515 387.5Q502 341 502 276Q502 147 551.5 88Q601 29 683 29ZM235 37Q347 37 402 101.5Q457 166 457 283Q457 395 400.5 454Q344 513 235 513H132V37Z" glyph-name="D_Otilde.sc" horiz-adv-x="967" /><glyph d="M99 716H278Q440 716 519.5 625Q599 534 599 369Q599 194 520 97Q441 0 278 0H99ZM278 41Q417 41 484.5 126.5Q552 212 552 369Q552 520 483.5 597.5Q415 675 278 675H145V41ZM154 898 171 923 308 825 444 923 461 898 322 785H292Z" glyph-name="Dcaron" horiz-adv-x="660" unicode="&#270;" /><glyph d="M133 690 148 711 258 637 368 711 383 690 272 603H244ZM88 0V550H233Q366 550 430.5 479Q495 408 495 283Q495 150 431 75Q367 0 233 0ZM132 37H234Q345 37 397.5 101.5Q450 166 450 283Q450 395 396.5 454Q343 513 234 513H132Z" glyph-name="Dcaron.sc" horiz-adv-x="552" /><glyph d="M99 716H277Q403 716 480 660Q557 604 583 498Q609 616 675.5 670.5Q742 725 838 725Q902 725 953 703Q1004 681 1040 636Q1076 591 1095.5 522Q1115 453 1115 359Q1115 175 1040.5 83.5Q966 -8 838 -8Q742 -8 672 50Q602 108 580 223Q550 113 473.5 56.5Q397 0 277 0H99ZM838 31Q890 31 932.5 50Q975 69 1005 109Q1035 149 1051.5 211Q1068 273 1068 359Q1068 447 1051.5 509Q1035 571 1004.5 610.5Q974 650 931.5 668Q889 686 838 686Q786 686 743.5 667.5Q701 649 670.5 609.5Q640 570 623.5 508Q607 446 607 359Q607 273 623.5 211Q640 149 670.5 109Q701 69 743.5 50Q786 31 838 31ZM278 41Q420 41 490.5 126Q561 211 561 369Q561 520 489 597.5Q417 675 278 675H144V41ZM154 898 171 923 308 825 444 923 461 898 322 785H292Z" glyph-name="Dcaron_O" horiz-adv-x="1177" /><glyph d="M133 690 148 711 258 637 368 711 383 690 272 603H244ZM88 550H234Q334 550 395 508Q456 466 479 388Q499 475 552.5 516Q606 557 683 557Q787 557 848 488Q909 419 909 276Q909 134 848.5 64Q788 -6 683 -6Q605 -6 550 37Q495 80 477 166Q451 85 390.5 42.5Q330 0 234 0H88ZM683 29Q765 29 814.5 88Q864 147 864 276Q864 341 851 387.5Q838 434 814.5 463.5Q791 493 757.5 507Q724 521 683 521Q642 521 608.5 507Q575 493 551.5 463.5Q528 434 515 387.5Q502 341 502 276Q502 147 551.5 88Q601 29 683 29ZM235 37Q347 37 402 101.5Q457 166 457 283Q457 395 400.5 454Q344 513 235 513H132V37Z" glyph-name="Dcaron_O.sc" horiz-adv-x="967" /><glyph d="M107 0V345H17V386H107V716H285Q447 716 526.5 625Q606 534 606 369Q606 194 527 97Q448 0 285 0ZM285 41Q425 41 492 126.5Q559 212 559 369Q559 520 490.5 597.5Q422 675 285 675H152V386H285V345H152V41Z" glyph-name="Dcroat" horiz-adv-x="667" unicode="&#272;" /><glyph d="M94 0V263H23V298H94V550H239Q372 550 436 479Q500 408 500 283Q500 150 436.5 75Q373 0 239 0ZM240 37Q350 37 402.5 101.5Q455 166 455 283Q455 395 401.5 454Q348 513 240 513H138V298H244V263H138V37Z" glyph-name="Dcroat.sc" horiz-adv-x="557" /><glyph d="M26 0 40 35 307 719H340L610 36L624 0ZM562 41 322 648 85 41Z" glyph-name="Delta" horiz-adv-x="650" unicode="&#916;" /><glyph d="M28 29 242 552H276L492 30L493 0H27ZM446 36 258 492 71 36Z" glyph-name="Delta.sc" horiz-adv-x="520" /><glyph d="M99 716H457V675H145V385H419V345H145V41H457V0H99Z" glyph-name="E" horiz-adv-x="510" unicode="E" /><glyph d="M88 550H382V513H132V299H351V262H132V37H382V0H88Z" glyph-name="E.sc" horiz-adv-x="434" /><glyph d="M880 239 735 646 592 239ZM99 716H456V675H144V385H418V345H144V41H478L720 718H756L1010 0H964L894 199H578L509 0H99Z" glyph-name="E_A" horiz-adv-x="1031" /><glyph d="M719 185 606 490 494 185ZM88 550H382V513H132V299H351V262H132V37H399L590 551H628L831 0H787L732 149H482L428 0H88Z" glyph-name="E_A.sc" horiz-adv-x="855" /><glyph d="M880 239 735 646 592 239ZM99 716H456V675H144V385H418V345H144V41H478L720 718H756L1010 0H964L894 199H578L509 0H99ZM666 815 866 918 884 876 679 785Z" glyph-name="E_Aacute" horiz-adv-x="1031" /><glyph d="M548 629 710 707 726 672 560 603ZM719 185 606 490 494 185ZM88 550H382V513H132V299H351V262H132V37H399L590 551H628L831 0H787L732 149H482L428 0H88Z" glyph-name="E_Aacute.sc" horiz-adv-x="855" /><glyph d="M880 239 735 646 592 239ZM99 716H456V675H144V385H418V345H144V41H478L720 718H756L1010 0H964L894 199H578L509 0H99ZM737 789Q675 789 641 823Q607 857 605 914H644Q646 879 667.5 853.5Q689 828 737 828Q784 828 805.5 853.5Q827 879 829 914H868Q866 857 832.5 823Q799 789 737 789Z" glyph-name="E_Abreve" horiz-adv-x="1031" /><glyph d="M608 606Q558 606 530 632.5Q502 659 500 704H535Q537 678 553.5 658Q570 638 608 638Q646 638 662.5 658Q679 678 681 704H716Q714 659 686 632.5Q658 606 608 606ZM719 185 606 490 494 185ZM88 550H382V513H132V299H351V262H132V37H399L590 551H628L831 0H787L732 149H482L428 0H88Z" glyph-name="E_Abreve.sc" horiz-adv-x="855" /><glyph d="M880 239 735 646 592 239ZM99 716H456V675H144V385H418V345H144V41H478L720 718H756L1010 0H964L894 199H578L509 0H99ZM588 810 721 923H751L884 810L867 785L736 883L605 785Z" glyph-name="E_Acircumflex" horiz-adv-x="1031" /><glyph d="M487 623 594 711H621L729 623L714 603L608 678L502 603ZM719 185 606 490 494 185ZM88 550H382V513H132V299H351V262H132V37H399L590 551H628L831 0H787L732 149H482L428 0H88Z" glyph-name="E_Acircumflex.sc" horiz-adv-x="855" /><glyph d="M880 239 735 646 592 239ZM99 716H456V675H144V385H418V345H144V41H478L720 718H756L1010 0H964L894 199H578L509 0H99ZM648 815Q634 815 623.5 825Q613 835 613 852Q613 869 623.5 879Q634 889 649 889Q665 889 675 879Q685 869 685 852Q685 835 675 825Q665 815 648 815ZM822 815Q807 815 797 825Q787 835 787 852Q787 869 797 879Q807 889 822 889Q838 889 848.5 879Q859 869 859 852Q859 835 848.5 825Q838 815 822 815Z" glyph-name="E_Adieresis" horiz-adv-x="1031" /><glyph d="M536 625Q523 625 514.5 633.5Q506 642 506 656Q506 670 514.5 678Q523 686 536 686Q551 686 559.5 678Q568 670 568 656Q568 642 559.5 633.5Q551 625 536 625ZM678 625Q664 625 656 633.5Q648 642 648 656Q648 670 656 678Q664 686 678 686Q692 686 701 678Q710 670 710 656Q710 642 701 633.5Q692 625 678 625ZM719 185 606 490 494 185ZM88 550H382V513H132V299H351V262H132V37H399L590 551H628L831 0H787L732 149H482L428 0H88Z" glyph-name="E_Adieresis.sc" horiz-adv-x="855" /><glyph d="M880 239 735 646 592 239ZM99 716H456V675H144V385H418V345H144V41H478L720 718H756L1010 0H964L894 199H578L509 0H99ZM581 876 599 918 799 815 785 785Z" glyph-name="E_Agrave" horiz-adv-x="1031" /><glyph d="M483 672 499 707 661 629 649 603ZM719 185 606 490 494 185ZM88 550H382V513H132V299H351V262H132V37H399L590 551H628L831 0H787L732 149H482L428 0H88Z" glyph-name="E_Agrave.sc" horiz-adv-x="855" /><glyph d="M880 239 735 646 592 239ZM99 716H456V675H144V385H418V345H144V41H478L720 718H756L1010 0H964L894 199H578L509 0H99ZM604 874H868V833H604Z" glyph-name="E_Amacron" horiz-adv-x="1031" /><glyph d="M501 674H714V639H501ZM719 185 606 490 494 185ZM88 550H382V513H132V299H351V262H132V37H399L590 551H628L831 0H787L732 149H482L428 0H88Z" glyph-name="E_Amacron.sc" horiz-adv-x="855" /><glyph d="M880 239 735 646 592 239ZM964 0 894 199H578L509 0H99V716H456V675H144V385H418V345H144V41H478L720 718H756L1010 0Q959 -29 930 -64.5Q901 -100 901 -135Q901 -162 916.5 -176Q932 -190 960 -190Q986 -190 1006.5 -179Q1027 -168 1036 -160V-193Q1029 -199 1007 -213Q985 -227 945 -227Q907 -227 882.5 -204Q858 -181 858 -143Q858 -101 888.5 -61.5Q919 -22 965 0Z" glyph-name="E_Aogonek" horiz-adv-x="1031" /><glyph d="M787 0 732 149H482L428 0H88V550H382V513H132V299H351V262H132V37H399L590 551H628L831 0Q791 -22 767.5 -49Q744 -76 744 -102Q744 -144 791 -144Q812 -144 828 -135.5Q844 -127 852 -122V-148Q845 -153 827 -164Q809 -175 778 -175Q746 -175 725.5 -156.5Q705 -138 705 -109Q705 -76 730 -46.5Q755 -17 791 0ZM719 185 606 490 494 185Z" glyph-name="E_Aogonek.sc" horiz-adv-x="855" /><glyph d="M880 239 735 646 592 239ZM99 716H456V675H144V385H418V345H144V41H478L720 718H756L1010 0H964L894 199H578L509 0H99ZM739 771Q692 771 663.5 796Q635 821 635 862Q635 899 663 925.5Q691 952 739 952Q786 952 815 926Q844 900 844 862Q844 821 815.5 796Q787 771 739 771ZM739 800Q771 800 789.5 817Q808 834 808 863Q808 888 788.5 905.5Q769 923 739 923Q707 923 688.5 905.5Q670 888 670 863Q670 834 689 817Q708 800 739 800Z" glyph-name="E_Aring" horiz-adv-x="1031" /><glyph d="M609 593Q571 593 548 612Q525 631 525 663Q525 692 548 712.5Q571 733 609 733Q647 733 671 712.5Q695 692 695 663Q695 631 671.5 612Q648 593 609 593ZM609 616Q634 616 649 629Q664 642 664 663Q664 683 648.5 696Q633 709 609 709Q584 709 569.5 696Q555 683 555 663Q555 642 570 629Q585 616 609 616ZM719 185 606 490 494 185ZM88 550H382V513H132V299H351V262H132V37H399L590 551H628L831 0H787L732 149H482L428 0H88Z" glyph-name="E_Aring.sc" horiz-adv-x="855" /><glyph d="M880 239 735 646 592 239ZM99 716H456V675H144V385H418V345H144V41H478L720 718H756L1010 0H964L894 199H578L509 0H99ZM595 807Q596 836 605 858Q613 879 629 894Q645 909 675 909Q700 909 716 896.5Q732 884 746 870Q760 856 773 844Q786 832 805 832Q821 832 829.5 841.5Q838 851 843 863Q848 877 849 894H882Q881 866 872 845Q864 824 848.5 809.5Q833 795 804 795Q779 795 763 807.5Q747 820 733 834Q719 848 705.5 860.5Q692 873 675 873Q658 873 648.5 862.5Q639 852 634 840Q629 825 628 807Z" glyph-name="E_Atilde" horiz-adv-x="1031" /><glyph d="M491 620Q491 621 492.5 634Q494 647 500.5 662Q507 677 520.5 689Q534 701 558 701Q578 701 591 691.5Q604 682 615 671Q627 660 638 651.5Q649 643 663 643Q676 643 683 650Q690 657 694 666Q698 676 699 689H728Q728 688 726.5 675.5Q725 663 719 648.5Q713 634 700 622.5Q687 611 664 611Q643 611 630 620Q617 629 605 640Q594 651 583 660Q572 669 558 669Q544 669 536.5 661.5Q529 654 525 645Q521 634 520 620ZM719 185 606 490 494 185ZM88 550H382V513H132V299H351V262H132V37H399L590 551H628L831 0H787L732 149H482L428 0H88Z" glyph-name="E_Atilde.sc" horiz-adv-x="855" /><glyph d="M531 41V675H144V385H413V345H144V41ZM99 716H888V675H576V385H850V345H576V41H888V0H99Z" glyph-name="E_E" horiz-adv-x="941" /><glyph d="M88 550H734V513H483V299H702V262H483V37H734V0H88ZM440 37V513H132V299H346V262H132V37Z" glyph-name="E_E.sc" horiz-adv-x="786" /><glyph d="M629 815 829 918 847 876 643 785ZM531 41V675H144V385H413V345H144V41ZM99 716H888V675H576V385H850V345H576V41H888V0H99Z" glyph-name="E_Eacute" horiz-adv-x="941" /><glyph d="M522 629 683 707 700 672 534 603ZM88 550H734V513H483V299H702V262H483V37H734V0H88ZM440 37V513H132V299H346V262H132V37Z" glyph-name="E_Eacute.sc" horiz-adv-x="786" /><glyph d="M556 810 689 923H719L853 810L836 785L705 883L573 785ZM531 41V675H144V385H413V345H144V41ZM99 716H888V675H576V385H850V345H576V41H888V0H99Z" glyph-name="E_Ecircumflex" horiz-adv-x="941" /><glyph d="M462 623 570 711H597L705 623L689 603L583 678L477 603ZM88 550H734V513H483V299H702V262H483V37H734V0H88ZM440 37V513H132V299H346V262H132V37Z" glyph-name="E_Ecircumflex.sc" horiz-adv-x="786" /><glyph d="M628 815Q614 815 603.5 825Q593 835 593 852Q593 869 603.5 879Q614 889 629 889Q645 889 655 879Q665 869 665 852Q665 835 655 825Q645 815 628 815ZM802 815Q787 815 777 825Q767 835 767 852Q767 869 777 879Q787 889 802 889Q818 889 828.5 879Q839 869 839 852Q839 835 828.5 825Q818 815 802 815ZM531 41V675H144V385H413V345H144V41ZM99 716H888V675H576V385H850V345H576V41H888V0H99Z" glyph-name="E_Edieresis" horiz-adv-x="941" /><glyph d="M521 625Q507 625 499 633.5Q491 642 491 656Q491 670 499 678Q507 686 521 686Q535 686 544 678Q553 670 553 656Q553 642 544 633.5Q535 625 521 625ZM662 625Q648 625 640 633.5Q632 642 632 656Q632 670 640 678Q648 686 662 686Q676 686 685 678Q694 670 694 656Q694 642 685 633.5Q676 625 662 625ZM88 550H734V513H483V299H702V262H483V37H734V0H88ZM440 37V513H132V299H346V262H132V37Z" glyph-name="E_Edieresis.sc" horiz-adv-x="786" /><glyph d="M581 874H845V833H581ZM531 41V675H144V385H413V345H144V41ZM99 716H888V675H576V385H850V345H576V41H888V0H99Z" glyph-name="E_Emacron" horiz-adv-x="941" /><glyph d="M483 674H696V639H483ZM88 550H734V513H483V299H702V262H483V37H734V0H88ZM440 37V513H132V299H346V262H132V37Z" glyph-name="E_Emacron.sc" horiz-adv-x="786" /><glyph d="M531 41V675H144V385H413V345H144V41ZM99 716H888V675H576V385H850V345H576V41H888V0Q837 -29 808 -64.5Q779 -100 779 -135Q779 -162 794.5 -176Q810 -190 838 -190Q864 -190 884 -179Q904 -168 914 -160V-193Q907 -199 885 -213Q863 -227 823 -227Q785 -227 760.5 -204Q736 -181 736 -143Q736 -101 766.5 -61.5Q797 -22 843 0H99Z" glyph-name="E_Eogonek" horiz-adv-x="941" /><glyph d="M88 0V550H734V513H483V299H702V262H483V37H734V0Q694 -22 670.5 -49Q647 -76 647 -102Q647 -144 693 -144Q714 -144 730 -135.5Q746 -127 754 -122V-148Q748 -153 730 -164Q712 -175 680 -175Q648 -175 628 -156.5Q608 -138 608 -109Q608 -76 633 -46.5Q658 -17 693 0ZM440 37V513H132V299H346V262H132V37Z" glyph-name="E_Eogonek.sc" horiz-adv-x="786" /><glyph d="M99 716H457V675H145V385H419V345H145V41H457V0H99ZM198 815 398 918 416 876 211 785Z" glyph-name="Eacute" horiz-adv-x="510" unicode="&#201;" /><glyph d="M170 629 332 707 348 672 183 603ZM88 550H382V513H132V299H351V262H132V37H382V0H88Z" glyph-name="Eacute.sc" horiz-adv-x="434" /><glyph d="M880 239 735 646 592 239ZM99 716H456V675H144V385H418V345H144V41H478L720 718H756L1010 0H964L894 199H578L509 0H99ZM197 815 397 918 415 876 210 785Z" glyph-name="Eacute_A" horiz-adv-x="1031" /><glyph d="M170 629 332 707 348 672 183 603ZM719 185 606 490 494 185ZM88 550H382V513H132V299H351V262H132V37H399L590 551H628L831 0H787L732 149H482L428 0H88Z" glyph-name="Eacute_A.sc" horiz-adv-x="855" /><glyph d="M880 239 735 646 592 239ZM99 716H456V675H144V385H418V345H144V41H478L720 718H756L1010 0H964L894 199H578L509 0H99ZM666 815 866 918 884 876 679 785ZM197 815 397 918 415 876 210 785Z" glyph-name="Eacute_Aacute" horiz-adv-x="1031" /><glyph d="M548 629 710 707 726 672 560 603ZM170 629 332 707 348 672 183 603ZM719 185 606 490 494 185ZM88 550H382V513H132V299H351V262H132V37H399L590 551H628L831 0H787L732 149H482L428 0H88Z" glyph-name="Eacute_Aacute.sc" horiz-adv-x="855" /><glyph d="M880 239 735 646 592 239ZM99 716H456V675H144V385H418V345H144V41H478L720 718H756L1010 0H964L894 199H578L509 0H99ZM588 810 721 923H751L884 810L867 785L736 883L605 785ZM197 815 397 918 415 876 210 785Z" glyph-name="Eacute_Acircumflex" horiz-adv-x="1031" /><glyph d="M487 623 594 711H621L729 623L714 603L608 678L502 603ZM170 629 332 707 348 672 183 603ZM719 185 606 490 494 185ZM88 550H382V513H132V299H351V262H132V37H399L590 551H628L831 0H787L732 149H482L428 0H88Z" glyph-name="Eacute_Acircumflex.sc" horiz-adv-x="855" /><glyph d="M880 239 735 646 592 239ZM99 716H456V675H144V385H418V345H144V41H478L720 718H756L1010 0H964L894 199H578L509 0H99ZM739 771Q692 771 663.5 796Q635 821 635 862Q635 899 663 925.5Q691 952 739 952Q786 952 815 926Q844 900 844 862Q844 821 815.5 796Q787 771 739 771ZM739 800Q771 800 789.5 817Q808 834 808 863Q808 888 788.5 905.5Q769 923 739 923Q707 923 688.5 905.5Q670 888 670 863Q670 834 689 817Q708 800 739 800ZM197 815 397 918 415 876 210 785Z" glyph-name="Eacute_Aring" horiz-adv-x="1031" /><glyph d="M609 593Q571 593 548 612Q525 631 525 663Q525 692 548 712.5Q571 733 609 733Q647 733 671 712.5Q695 692 695 663Q695 631 671.5 612Q648 593 609 593ZM609 616Q634 616 649 629Q664 642 664 663Q664 683 648.5 696Q633 709 609 709Q584 709 569.5 696Q555 683 555 663Q555 642 570 629Q585 616 609 616ZM170 629 332 707 348 672 183 603ZM719 185 606 490 494 185ZM88 550H382V513H132V299H351V262H132V37H399L590 551H628L831 0H787L732 149H482L428 0H88Z" glyph-name="Eacute_Aring.sc" horiz-adv-x="855" /><glyph d="M197 815 397 918 415 876 211 785ZM531 41V675H144V385H413V345H144V41ZM99 716H888V675H576V385H850V345H576V41H888V0H99Z" glyph-name="Eacute_E" horiz-adv-x="941" /><glyph d="M170 629 332 707 348 672 183 603ZM88 550H734V513H483V299H702V262H483V37H734V0H88ZM440 37V513H132V299H346V262H132V37Z" glyph-name="Eacute_E.sc" horiz-adv-x="786" /><glyph d="M197 815 397 918 415 876 211 785ZM629 815 829 918 847 876 643 785ZM531 41V675H144V385H413V345H144V41ZM99 716H888V675H576V385H850V345H576V41H888V0H99Z" glyph-name="Eacute_Eacute" horiz-adv-x="941" /><glyph d="M522 629 683 707 700 672 534 603ZM170 629 332 707 348 672 183 603ZM88 550H734V513H483V299H702V262H483V37H734V0H88ZM440 37V513H132V299H346V262H132V37Z" glyph-name="Eacute_Eacute.sc" horiz-adv-x="786" /><glyph d="M197 815 397 918 415 876 211 785ZM578 876 596 918 795 815 782 785ZM531 41V675H144V385H413V345H144V41ZM99 716H888V675H576V385H850V345H576V41H888V0H99Z" glyph-name="Eacute_Egrave" horiz-adv-x="941" /><glyph d="M480 672 496 707 658 629 646 603ZM170 629 332 707 348 672 183 603ZM88 550H734V513H483V299H702V262H483V37H734V0H88ZM440 37V513H132V299H346V262H132V37Z" glyph-name="Eacute_Egrave.sc" horiz-adv-x="786" /><glyph d="M99 716H457V675H145V385H419V345H145V41H457V0H99ZM278 789Q216 789 182 823Q148 857 146 914H185Q187 879 208.5 853.5Q230 828 278 828Q325 828 346.5 853.5Q368 879 370 914H409Q407 857 373.5 823Q340 789 278 789Z" glyph-name="Ebreve" horiz-adv-x="510" unicode="&#276;" /><glyph d="M235 606Q185 606 157 632.5Q129 659 127 704H161Q163 678 180 658Q197 638 235 638Q273 638 289.5 658Q306 678 308 704H343Q341 659 313 632.5Q285 606 235 606ZM88 550H382V513H132V299H351V262H132V37H382V0H88Z" glyph-name="Ebreve.sc" horiz-adv-x="434" /><glyph d="M99 716H457V675H145V385H419V345H145V41H457V0H99ZM124 898 141 923 278 825 414 923 431 898 292 785H262Z" glyph-name="Ecaron" horiz-adv-x="510" unicode="&#282;" /><glyph d="M110 690 124 711 235 637 345 711 361 690 248 603H221ZM88 550H382V513H132V299H351V262H132V37H382V0H88Z" glyph-name="Ecaron.sc" horiz-adv-x="434" /><glyph d="M99 716H457V675H145V385H419V345H145V41H457V0H99ZM125 810 258 923H288L421 810L404 785L273 883L142 785Z" glyph-name="Ecircumflex" horiz-adv-x="510" unicode="&#202;" /><glyph d="M111 623 218 711H246L353 623L337 603L232 678L126 603ZM88 550H382V513H132V299H351V262H132V37H382V0H88Z" glyph-name="Ecircumflex.sc" horiz-adv-x="434" /><glyph d="M125 810 258 923H288L421 810L404 785L273 883L141 785ZM531 41V675H144V385H413V345H144V41ZM99 716H888V675H576V385H850V345H576V41H888V0H99Z" glyph-name="Ecircumflex_E" horiz-adv-x="941" /><glyph d="M111 623 218 711H246L353 623L337 603L232 678L126 603ZM88 550H734V513H483V299H702V262H483V37H734V0H88ZM440 37V513H132V299H346V262H132V37Z" glyph-name="Ecircumflex_E.sc" horiz-adv-x="786" /><glyph d="M197 815Q183 815 172.5 825Q162 835 162 852Q162 869 172.5 879Q183 889 198 889Q214 889 224 879Q234 869 234 852Q234 835 224 825Q214 815 197 815ZM371 815Q356 815 346 825Q336 835 336 852Q336 869 346 879Q356 889 371 889Q387 889 397.5 879Q408 869 408 852Q408 835 397.5 825Q387 815 371 815ZM99 716H457V675H145V385H419V345H145V41H457V0H99Z" glyph-name="Edieresis" horiz-adv-x="510" unicode="&#203;" /><glyph d="M169 625Q155 625 147 633.5Q139 642 139 656Q139 670 147 678Q155 686 169 686Q183 686 192 678Q201 670 201 656Q201 642 192 633.5Q183 625 169 625ZM311 625Q297 625 288.5 633.5Q280 642 280 656Q280 670 288.5 678Q297 686 311 686Q325 686 333.5 678Q342 670 342 656Q342 642 333.5 633.5Q325 625 311 625ZM88 550H382V513H132V299H351V262H132V37H382V0H88Z" glyph-name="Edieresis.sc" horiz-adv-x="434" /><glyph d="M880 239 735 646 592 239ZM99 716H456V675H144V385H418V345H144V41H478L720 718H756L1010 0H964L894 199H578L509 0H99ZM196 815Q182 815 171.5 825Q161 835 161 852Q161 869 171.5 879Q182 889 197 889Q213 889 223 879Q233 869 233 852Q233 835 223 825Q213 815 196 815ZM370 815Q355 815 345 825Q335 835 335 852Q335 869 345 879Q355 889 370 889Q386 889 396.5 879Q407 869 407 852Q407 835 396.5 825Q386 815 370 815Z" glyph-name="Edieresis_A" horiz-adv-x="1031" /><glyph d="M169 625Q155 625 147 633.5Q139 642 139 656Q139 670 147 678Q155 686 169 686Q183 686 192 678Q201 670 201 656Q201 642 192 633.5Q183 625 169 625ZM311 625Q297 625 288.5 633.5Q280 642 280 656Q280 670 288.5 678Q297 686 311 686Q325 686 333.5 678Q342 670 342 656Q342 642 333.5 633.5Q325 625 311 625ZM719 185 606 490 494 185ZM88 550H382V513H132V299H351V262H132V37H399L590 551H628L831 0H787L732 149H482L428 0H88Z" glyph-name="Edieresis_A.sc" horiz-adv-x="855" /><glyph d="M196 815Q182 815 171.5 825Q161 835 161 852Q161 869 171.5 879Q182 889 197 889Q213 889 223 879Q233 869 233 852Q233 835 223 825Q213 815 196 815ZM370 815Q355 815 345 825Q335 835 335 852Q335 869 345 879Q355 889 371 889Q386 889 396.5 879Q407 869 407 852Q407 835 396.5 825Q386 815 370 815ZM531 41V675H144V385H413V345H144V41ZM99 716H888V675H576V385H850V345H576V41H888V0H99Z" glyph-name="Edieresis_E" horiz-adv-x="941" /><glyph d="M169 625Q155 625 147 633.5Q139 642 139 656Q139 670 147 678Q155 686 169 686Q183 686 192 678Q201 670 201 656Q201 642 192 633.5Q183 625 169 625ZM311 625Q297 625 288.5 633.5Q280 642 280 656Q280 670 288.5 678Q297 686 311 686Q325 686 333.5 678Q342 670 342 656Q342 642 333.5 633.5Q325 625 311 625ZM88 550H734V513H483V299H702V262H483V37H734V0H88ZM440 37V513H132V299H346V262H132V37Z" glyph-name="Edieresis_E.sc" horiz-adv-x="786" /><glyph d="M99 716H457V675H145V385H419V345H145V41H457V0H99ZM287 815Q272 815 261.5 825.5Q251 836 251 853Q251 870 261.5 880.5Q272 891 287 891Q304 891 314.5 880.5Q325 870 325 853Q325 836 314.5 825.5Q304 815 287 815Z" glyph-name="Edotaccent" horiz-adv-x="510" unicode="&#278;" /><glyph d="M242 625Q228 625 219.5 633.5Q211 642 211 656Q211 687 243 687Q258 687 266.5 679Q275 671 275 657Q275 643 266.5 634Q258 625 242 625ZM88 550H382V513H132V299H351V262H132V37H382V0H88Z" glyph-name="Edotaccent.sc" horiz-adv-x="434" /><glyph d="M287 815Q271 815 261 825.5Q251 836 251 853Q251 870 261 880.5Q271 891 287 891Q304 891 314.5 880.5Q325 870 325 853Q325 836 314.5 825.5Q304 815 287 815ZM531 41V675H144V385H413V345H144V41ZM99 716H888V675H576V385H850V345H576V41H888V0H99Z" glyph-name="Edotaccent_E" horiz-adv-x="941" /><glyph d="M242 625Q228 625 219.5 633.5Q211 642 211 656Q211 687 243 687Q258 687 266.5 679Q275 671 275 657Q275 643 266.5 634Q258 625 242 625ZM88 550H734V513H483V299H702V262H483V37H734V0H88ZM440 37V513H132V299H346V262H132V37Z" glyph-name="Edotaccent_E.sc" horiz-adv-x="786" /><glyph d="M99 716H457V675H145V385H419V345H145V41H457V0H99ZM148 876 166 918 366 815 352 785Z" glyph-name="Egrave" horiz-adv-x="510" unicode="&#200;" /><glyph d="M130 672 146 707 307 629 295 603ZM88 550H382V513H132V299H351V262H132V37H382V0H88Z" glyph-name="Egrave.sc" horiz-adv-x="434" /><glyph d="M880 239 735 646 592 239ZM99 716H456V675H144V385H418V345H144V41H478L720 718H756L1010 0H964L894 199H578L509 0H99ZM147 876 165 918 365 815 351 785Z" glyph-name="Egrave_A" horiz-adv-x="1031" /><glyph d="M128 672 144 707 306 629 295 603ZM719 185 606 490 494 185ZM88 550H382V513H132V299H351V262H132V37H399L590 551H628L831 0H787L732 149H482L428 0H88Z" glyph-name="Egrave_A.sc" horiz-adv-x="855" /><glyph d="M147 876 165 918 365 815 352 785ZM531 41V675H144V385H413V345H144V41ZM99 716H888V675H576V385H850V345H576V41H888V0H99Z" glyph-name="Egrave_E" horiz-adv-x="941" /><glyph d="M129 672 145 707 307 629 295 603ZM88 550H734V513H483V299H702V262H483V37H734V0H88ZM440 37V513H132V299H346V262H132V37Z" glyph-name="Egrave_E.sc" horiz-adv-x="786" /><glyph d="M99 716H457V675H145V385H419V345H145V41H457V0H99ZM149 874H413V833H149Z" glyph-name="Emacron" horiz-adv-x="510" unicode="&#274;" /><glyph d="M131 674H344V639H131ZM88 550H382V513H132V299H351V262H132V37H382V0H88Z" glyph-name="Emacron.sc" horiz-adv-x="434" /><glyph d="M99 716H142L548 81V716H591V-88Q591 -233 469 -233Q451 -233 436.5 -230.5Q422 -228 411 -225Q399 -221 389 -216V-177Q399 -182 411 -186Q422 -189 435.5 -191.5Q449 -194 465 -194Q509 -194 528.5 -169Q548 -144 548 -87V1L142 635V0H99Z" glyph-name="Eng" horiz-adv-x="690" unicode="&#330;" /><glyph d="M88 550H128L450 73V550H490V-61Q490 -121 464 -149.5Q438 -178 387 -178Q373 -178 361 -176Q349 -174 341 -172Q331 -169 323 -166V-129Q331 -133 340 -136Q348 -138 358.5 -140Q369 -142 382 -142Q417 -142 433 -123.5Q449 -105 449 -62V1L129 477V0H88Z" glyph-name="Eng.sc" horiz-adv-x="578" /><glyph d="M99 0V716H457V675H145V385H419V345H145V41H457V0Q406 -29 377 -64.5Q348 -100 348 -135Q348 -190 406 -190Q432 -190 452.5 -179Q473 -168 483 -160V-193Q476 -199 453.5 -213Q431 -227 392 -227Q354 -227 329 -204Q304 -181 304 -143Q304 -101 335 -61.5Q366 -22 411 0Z" glyph-name="Eogonek" horiz-adv-x="510" unicode="&#280;" /><glyph d="M88 0V550H382V513H132V299H351V262H132V37H382V0Q342 -22 318.5 -49Q295 -76 295 -102Q295 -144 342 -144Q363 -144 379 -135.5Q395 -127 403 -122V-148Q396 -153 378 -164Q360 -175 328 -175Q297 -175 276.5 -156.5Q256 -138 256 -109Q256 -76 281 -46.5Q306 -17 342 0Z" glyph-name="Eogonek.sc" horiz-adv-x="434" /><glyph d="M107 0V345H17V386H107V716H285Q447 716 526.5 625Q606 534 606 369Q606 194 527 97Q448 0 285 0ZM285 41Q425 41 492 126.5Q559 212 559 369Q559 520 490.5 597.5Q422 675 285 675H152V386H285V345H152V41Z" glyph-name="Eth" horiz-adv-x="667" unicode="&#208;" /><glyph d="M94 0V263H23V298H94V550H239Q372 550 436 479Q500 408 500 283Q500 150 436.5 75Q373 0 239 0ZM240 37Q350 37 402.5 101.5Q455 166 455 283Q455 395 401.5 454Q348 513 240 513H138V298H244V263H138V37Z" glyph-name="Eth.sc" horiz-adv-x="557" /><glyph d="M56 409V446H153Q173 584 250 654.5Q327 725 445 725Q480 725 507 720.5Q534 716 554 711Q576 705 593 697V657Q574 665 551 672Q530 677 503.5 681.5Q477 686 444 686Q348 686 282 625Q216 564 199 446H498L482 409ZM593 25Q578 16 556 9Q536 2 508.5 -3Q481 -8 444 -8Q324 -8 245 63.5Q166 135 149 274H56V311H449L434 274H198Q213 153 278.5 92Q344 31 444 31Q480 31 507.5 36Q535 41 554 48Q576 55 593 64Z" glyph-name="Euro" horiz-adv-x="655" unicode="&#8364;" /><glyph d="M61 287V325H148Q156 369 176.5 403Q197 437 227.5 460Q258 483 297 495.5Q336 508 381 508Q416 508 441.5 503.5Q467 499 483 494Q502 488 515 480V440Q501 448 481 455Q463 460 439 464.5Q415 469 383 469Q308 469 259 430Q210 391 196 325H452L437 287ZM519 25Q505 16 484 9Q465 2 438 -3Q411 -8 373 -8Q285 -8 223.5 37.5Q162 83 146 168H61V205H404L388 168H195Q211 102 260.5 66.5Q310 31 379 31Q413 31 439 36Q465 41 483 48Q504 55 519 64Z" glyph-name="Euro.old" horiz-adv-x="582" /><glyph d="M62 287V325H149Q157 369 177.5 403Q198 437 228.5 460Q259 483 298 495.5Q337 508 382 508Q417 508 442.5 503.5Q468 499 484 494Q503 488 516 480V440Q502 448 482 455Q464 460 440 464.5Q416 469 384 469Q309 469 260 430Q211 391 197 325H453L438 287ZM520 25Q506 16 485 9Q466 2 439 -3Q412 -8 374 -8Q286 -8 224.5 37.5Q163 83 147 168H62V205H405L389 168H196Q212 102 261.5 66.5Q311 31 380 31Q414 31 440 36Q466 41 484 48Q505 55 520 64Z" glyph-name="Euro.oldtab" horiz-adv-x="584" /><glyph d="M52 313V345H129Q146 449 209 503Q272 557 366 557Q395 557 417 553.5Q439 550 455 546Q473 541 487 535L484 500Q470 506 451 511Q435 515 414 518Q393 521 367 521Q292 521 240.5 476.5Q189 432 175 345H412L399 313ZM487 19Q474 12 457 7Q441 1 419 -2.5Q397 -6 367 -6Q270 -6 205.5 48Q141 102 127 209H52V241H373L360 209H173Q186 119 238 74Q290 29 368 29Q396 29 418 33Q440 37 456 42Q474 48 487 55Z" glyph-name="Euro.sc" horiz-adv-x="545" /><glyph d="M21 409V446H118Q138 584 215 654.5Q292 725 410 725Q445 725 472 720.5Q499 716 519 711Q541 705 558 697V657Q539 665 516 672Q495 677 468.5 681.5Q442 686 409 686Q313 686 247 625Q181 564 164 446H463L447 409ZM558 25Q543 16 521 9Q501 2 473.5 -3Q446 -8 409 -8Q289 -8 210 63.5Q131 135 114 274H21V311H414L399 274H163Q178 153 243.5 92Q309 31 409 31Q445 31 472.5 36Q500 41 519 48Q541 55 558 64Z" glyph-name="Euro.tab" horiz-adv-x="584" /><glyph d="M99 716H450V675H145V380H412V339H145V0H99Z" glyph-name="F" horiz-adv-x="481" unicode="F" /><glyph d="M88 550H376V513H132V294H346V257H132V0H88Z" glyph-name="F.sc" horiz-adv-x="410" /><glyph d="M99 0V716H583V41H896V0H538V675H144V380H412V339H144V0Z" glyph-name="F_L" horiz-adv-x="908" /><glyph d="M88 0V550H487V37H737V0H444V513H132V294H344V257H132V0Z" glyph-name="F_L.sc" horiz-adv-x="755" /><glyph d="M839 566 872 650Q856 651 845.5 661Q835 671 835 687Q835 703 845 714.5Q855 726 873 726Q892 726 901 714Q910 702 910 685Q910 662 896.5 629Q883 596 865 556ZM99 0V716H583V41H896V0H538V675H144V380H412V339H144V0Z" glyph-name="F_Lcaron" horiz-adv-x="949" /><glyph d="M690 433 717 498Q703 499 694 507Q685 515 685 529Q685 542 693.5 551Q702 560 719 560Q735 560 742.5 550Q750 540 750 526Q750 508 739 482Q728 456 713 424ZM88 0V550H487V37H737V0H444V513H132V294H344V257H132V0Z" glyph-name="F_Lcaron.sc" horiz-adv-x="790" /><glyph d="M377 -8Q290 -8 230 20Q170 48 132.5 97.5Q95 147 78 214Q61 281 61 358Q61 436 78.5 503Q96 570 133.5 619.5Q171 669 230 697Q289 725 373 725Q416 725 448 719.5Q480 714 501 707Q526 699 543 689V650Q524 660 499 668Q475 675 444.5 680.5Q414 686 374 686Q299 686 248.5 660.5Q198 635 166.5 591Q135 547 121.5 487.5Q108 428 108 360Q108 292 122 232Q136 172 167.5 127.5Q199 83 250.5 57Q302 31 377 31Q403 31 425 35Q447 39 464 43.5Q481 48 492.5 52.5Q504 57 509 58V344H309V384H552V29Q531 19 504 11Q479 3 448 -2.5Q417 -8 377 -8Z" glyph-name="G" horiz-adv-x="623" unicode="G" /><glyph d="M316 -7Q246 -7 196.5 14.5Q147 36 116 74Q85 112 71 163.5Q57 215 57 275Q57 335 71.5 386.5Q86 438 116.5 476Q147 514 195.5 535.5Q244 557 312 557Q347 557 373 552.5Q399 548 416 543Q437 537 451 529V494Q435 502 415 508Q396 513 371 517Q346 521 314 521Q255 521 214.5 502Q174 483 149 450Q124 417 113 372Q102 327 102 276Q102 225 113 180Q124 135 149.5 101.5Q175 68 215.5 48.5Q256 29 315 29Q356 29 383 38Q410 47 417 49V260H261V297H458V22Q441 14 419 8Q399 2 373.5 -2.5Q348 -7 316 -7Z" glyph-name="G.sc" horiz-adv-x="523" /><glyph d="M377 -8Q290 -8 230 20Q170 48 132.5 97.5Q95 147 78 214Q61 281 61 358Q61 436 78.5 503Q96 570 133.5 619.5Q171 669 230 697Q289 725 373 725Q416 725 448 719.5Q480 714 501 707Q526 699 543 689V650Q524 660 499 668Q475 675 444.5 680.5Q414 686 374 686Q299 686 248.5 660.5Q198 635 166.5 591Q135 547 121.5 487.5Q108 428 108 360Q108 292 122 232Q136 172 167.5 127.5Q199 83 250.5 57Q302 31 377 31Q403 31 425 35Q447 39 464 43.5Q481 48 492.5 52.5Q504 57 509 58V346H309V387H913V716H959V0H913V346H552V29Q531 19 504 11Q479 3 448 -2.5Q417 -8 377 -8Z" glyph-name="G_H" horiz-adv-x="1058" /><glyph d="M316 -7Q246 -7 196.5 14.5Q147 36 116 74Q85 112 71 163.5Q57 215 57 275Q57 335 71.5 386.5Q86 438 116.5 476Q147 514 195.5 535.5Q244 557 312 557Q347 557 373 552.5Q399 548 416 543Q437 537 451 529V494Q435 502 415 508Q396 513 371 517Q346 521 314 521Q255 521 214.5 502Q174 483 149 450Q124 417 113 372Q102 327 102 276Q102 225 113 180Q124 135 149.5 101.5Q175 68 215.5 48.5Q256 29 315 29Q356 29 383 38Q410 47 417 49V262H261V298H743V550H787V0H743V261H458V22Q441 14 419 8Q399 2 373.5 -2.5Q348 -7 316 -7Z" glyph-name="G_H.sc" horiz-adv-x="875" /><glyph d="M377 -8Q290 -8 230 20Q170 48 132.5 97.5Q95 147 78 214Q61 281 61 358Q61 436 78.5 503Q96 570 133.5 619.5Q171 669 230 697Q289 725 373 725Q416 725 448 719.5Q480 714 501 707Q526 699 543 689V650Q524 660 499 668Q475 675 444.5 680.5Q414 686 374 686Q299 686 248.5 660.5Q198 635 166.5 591Q135 547 121.5 487.5Q108 428 108 360Q108 292 122 232Q136 172 167.5 127.5Q199 83 250.5 57Q302 31 377 31Q403 31 425 35Q447 39 464 43.5Q481 48 492.5 52.5Q504 57 509 58V347H309V386H633L880 716H929L670 370L935 0H881L632 347H552V29Q531 19 504 11Q479 3 448 -2.5Q417 -8 377 -8Z" glyph-name="G_K" horiz-adv-x="953" /><glyph d="M316 -7Q246 -7 196.5 14.5Q147 36 116 74Q85 112 71 163.5Q57 215 57 275Q57 335 71.5 386.5Q86 438 116.5 476Q147 514 195.5 535.5Q244 557 312 557Q347 557 373 552.5Q399 548 416 543Q437 537 451 529V494Q435 502 415 508Q396 513 371 517Q346 521 314 521Q255 521 214.5 502Q174 483 149 450Q124 417 113 372Q102 327 102 276Q102 225 113 180Q124 135 149.5 101.5Q175 68 215.5 48.5Q256 29 315 29Q356 29 383 38Q410 47 417 49V262H261V298H520L716 550H763L556 284L768 0H717L520 262H458V22Q441 14 419 8Q399 2 373.5 -2.5Q348 -7 316 -7Z" glyph-name="G_K.sc" horiz-adv-x="791" /><glyph d="M916 -7Q872 -7 838 7Q804 21 769 46L762 0H727V730H605Q574 730 558.5 715.5Q543 701 543 666V650Q543 650 531 656Q519 662 497.5 668.5Q476 675 444.5 680.5Q413 686 374 686Q299 686 248.5 660.5Q198 635 166.5 591Q135 547 121.5 487.5Q108 428 108 360Q108 292 122 232Q136 172 167.5 127.5Q199 83 250.5 57Q302 31 377 31Q403 31 425 35Q447 39 464 43.5Q481 48 492.5 52.5Q504 57 509 58V344H309V384H552V29Q531 19 504 11Q479 3 448 -2.5Q417 -8 377 -8Q290 -8 230 20Q170 48 132.5 97.5Q95 147 78 214Q61 281 61 358Q61 436 78.5 503Q96 570 133.5 619.5Q171 669 230 697Q289 725 373 725Q424 725 457.5 716.5Q491 708 509 701Q514 732 533.5 749Q553 766 591 766H772V441Q789 460 812 475Q834 488 863 498Q892 508 932 508Q983 508 1021 489.5Q1059 471 1084.5 438.5Q1110 406 1123 361Q1136 316 1136 263Q1136 196 1119 145.5Q1102 95 1072.5 61Q1043 27 1003 10Q963 -7 916 -7ZM772 76Q789 63 811 54Q830 44 854.5 37.5Q879 31 909 31Q948 31 981 45.5Q1014 60 1038 88.5Q1062 117 1075.5 160.5Q1089 204 1089 262Q1089 306 1079 344Q1069 382 1048 410Q1027 438 995.5 454Q964 470 921 470Q884 470 856 459Q828 448 809 435Q787 420 772 400Z" glyph-name="G_b" horiz-adv-x="1192" /><glyph d="M552 29Q531 19 504 11Q479 3 448 -2.5Q417 -8 377 -8Q290 -8 230 20Q170 48 132.5 97.5Q95 147 78 214Q61 281 61 358Q61 436 78.5 503Q96 570 133.5 619.5Q171 669 230 697Q289 725 373 725Q424 725 457.5 716.5Q491 708 509 701Q514 732 533.5 749Q553 766 591 766H771V423Q792 447 820 466Q845 483 877.5 495.5Q910 508 953 508Q1043 508 1082.5 455Q1122 402 1122 303V0H1077V296Q1077 389 1043 429.5Q1009 470 937 470Q899 470 868.5 457.5Q838 445 817 430Q791 412 771 390V0H726V730H605Q574 730 558.5 715Q543 700 543 666V650Q543 650 531 656Q519 662 497.5 668.5Q476 675 444.5 680.5Q413 686 374 686Q299 686 248.5 660.5Q198 635 166.5 591Q135 547 121.5 487.5Q108 428 108 360Q108 292 122 232Q136 172 167.5 127.5Q199 83 250.5 57Q302 31 377 31Q403 31 425 35Q447 39 464 43.5Q481 48 492.5 52.5Q504 57 509 58V344H309V384H552Z" glyph-name="G_h" horiz-adv-x="1203" /><glyph d="M552 29Q531 19 504 11Q479 3 448 -2.5Q417 -8 377 -8Q290 -8 230 20Q170 48 132.5 97.5Q95 147 78 214Q61 281 61 358Q61 436 78.5 503Q96 570 133.5 619.5Q171 669 230 697Q289 725 373 725Q424 725 457.5 716.5Q491 708 509 701Q514 732 533 749Q552 766 590 766H771V277H840L1026 500H1076L877 264L1084 0H1027L839 242H771V0H726V730H605Q574 730 558.5 715.5Q543 701 543 666V650Q543 650 531 656Q519 662 497.5 668.5Q476 675 444.5 680.5Q413 686 374 686Q299 686 248.5 660.5Q198 635 166.5 591Q135 547 121.5 487.5Q108 428 108 360Q108 292 122 232Q136 172 167.5 127.5Q199 83 250.5 57Q302 31 377 31Q403 31 425 35Q447 39 464 43.5Q481 48 492.5 52.5Q504 57 509 58V344H309V384H552Z" glyph-name="G_k" horiz-adv-x="1098" /><glyph d="M795 -7Q758 -7 742 15.5Q726 38 726 87V730H605Q574 730 558.5 715Q543 700 543 666V650Q543 650 531.5 655.5Q520 661 498 668Q476 675 445 680.5Q414 686 374 686Q299 686 248.5 660.5Q198 635 166.5 591Q135 547 121.5 487.5Q108 428 108 360Q108 292 122 232Q136 172 167.5 127.5Q199 83 250.5 57Q302 31 377 31Q403 31 425 35Q447 39 464 43.5Q481 48 492.5 52.5Q504 57 509 58V344H309V384H552V29Q531 19 504 11Q479 3 448 -2.5Q417 -8 377 -8Q290 -8 230 20Q170 48 132.5 97.5Q95 147 78 214Q61 281 61 358Q61 436 78.5 503Q96 570 133.5 619.5Q171 669 230 697Q289 725 373 725Q424 725 457.5 716.5Q491 708 509 701Q514 732 533 749Q552 766 590 766H771V110Q771 65 780.5 47.5Q790 30 818 29Q824 29 830 31Q833 32 835 33V1Q830 -1 824 -3Q818 -5 811 -6Q804 -7 795 -7Z" glyph-name="G_l" horiz-adv-x="873" /><glyph d="M644 835 843 938 861 896 657 805ZM795 -7Q758 -7 742 15.5Q726 38 726 87V730H605Q574 730 558.5 715Q543 700 543 666V650Q543 650 531 656Q519 662 497.5 668.5Q476 675 444.5 680.5Q413 686 374 686Q299 686 248.5 660.5Q198 635 166.5 591Q135 547 121.5 487.5Q108 428 108 360Q108 292 122 232Q136 172 167.5 127.5Q199 83 250.5 57Q302 31 377 31Q403 31 425 35Q447 39 464 43.5Q481 48 492.5 52.5Q504 57 509 58V344H309V384H552V29Q531 19 504 11Q479 3 448 -2.5Q417 -8 377 -8Q290 -8 230 20Q170 48 132.5 97.5Q95 147 78 214Q61 281 61 358Q61 436 78.5 503Q96 570 133.5 619.5Q171 669 230 697Q289 725 373 725Q424 725 457.5 716.5Q491 708 509 701Q514 732 533 749Q552 766 590 766H771V110Q771 65 781 47Q791 29 818 29Q824 29 830 31Q833 32 835 33V1Q830 -1 824 -3Q818 -5 811 -6Q804 -7 795 -7Z" glyph-name="G_lacute" horiz-adv-x="873" /><glyph d="M845 615 878 699Q861 700 851 710Q841 720 841 736Q841 752 851 763.5Q861 775 879 775Q897 775 906 763Q915 751 915 734Q915 711 902 678Q889 645 871 605ZM795 -7Q758 -7 742 15.5Q726 38 726 87V730H605Q574 730 558.5 715Q543 700 543 666V650Q543 650 531.5 656Q520 662 498 668.5Q476 675 445 680.5Q414 686 374 686Q299 686 248.5 660.5Q198 635 166.5 591Q135 547 121.5 487.5Q108 428 108 360Q108 292 122 232Q136 172 167.5 127.5Q199 83 250.5 57Q302 31 377 31Q403 31 425 35Q447 39 464 43.5Q481 48 492.5 52.5Q504 57 509 58V344H309V384H552V29Q531 19 504 11Q479 3 448 -2.5Q417 -8 377 -8Q290 -8 230 20Q170 48 132.5 97.5Q95 147 78 214Q61 281 61 358Q61 436 78.5 503Q96 570 133.5 619.5Q171 669 230 697Q289 725 373 725Q424 725 457.5 716.5Q491 708 509 701Q514 732 533 749Q552 766 590 766H771V110Q771 65 781 47.5Q791 30 818 29Q824 29 830 31Q833 32 835 33V1Q830 -1 824 -3Q818 -5 811 -6Q804 -7 795 -7Z" glyph-name="G_lcaron" horiz-adv-x="899" /><glyph d="M795 -7Q758 -7 742 15.5Q726 38 726 87V730H605Q574 730 558.5 715.5Q543 701 543 666V650Q542 650 530.5 656Q519 662 497 668.5Q475 675 444 680.5Q413 686 374 686Q299 686 248.5 660.5Q198 635 166.5 591Q135 547 121.5 487.5Q108 428 108 360Q108 292 122 232Q136 172 167.5 127.5Q199 83 250.5 57Q302 31 377 31Q403 31 425 35Q447 39 464 43.5Q481 48 492.5 52.5Q504 57 509 58V344H309V384H552V29Q531 19 504 11Q479 3 448 -2.5Q417 -8 377 -8Q290 -8 230 20Q170 48 132.5 97.5Q95 147 78 214Q61 281 61 358Q61 436 78.5 503Q96 570 133.5 619.5Q171 669 230 697Q289 725 373 725Q424 725 457.5 716.5Q491 708 509 701Q514 732 533 749Q552 766 590 766H771V110Q771 65 780.5 47.5Q790 30 818 29Q824 29 830 31Q833 32 835 33V1Q830 -1 824 -3Q818 -5 811 -6Q804 -7 795 -7ZM737 -225 770 -141Q753 -140 743 -130Q733 -120 733 -104Q733 -88 743 -76.5Q753 -65 771 -65Q789 -65 798 -77Q807 -89 807 -106Q807 -129 794 -162Q781 -195 763 -235Z" glyph-name="G_lcommaaccent" horiz-adv-x="873" /><glyph d="M795 -7Q758 -7 742 15.5Q726 38 726 87V344L634 300V338L726 382V730H605Q574 730 558.5 715.5Q543 701 543 666V650Q524 660 498 668Q475 675 444.5 680.5Q414 686 374 686Q299 686 248.5 660.5Q198 635 166.5 591Q135 547 121.5 487.5Q108 428 108 360Q108 292 122 232Q136 172 167.5 127.5Q199 83 250.5 57Q302 31 377 31Q403 31 425 35Q447 39 464 43.5Q481 48 492.5 52.5Q504 57 509 58V344H309V384H552V29Q531 19 504 11Q479 3 448 -2.5Q417 -8 377 -8Q290 -8 230 20Q170 48 132.5 97.5Q95 147 78 214Q61 281 61 358Q61 436 78.5 503Q96 570 133.5 619.5Q171 669 230 697Q289 725 373 725Q424 725 457.5 716.5Q491 708 509 701Q514 732 533 749Q552 766 590 766H771V405L867 452V413L771 367V110Q771 65 780.5 47.5Q790 30 818 29Q824 29 830 31Q833 32 835 33V1Q830 -1 824 -3Q818 -5 811 -6Q804 -7 795 -7Z" glyph-name="G_lslash" horiz-adv-x="902" /><glyph d="M377 -8Q290 -8 230 20Q170 48 132.5 97.5Q95 147 78 214Q61 281 61 358Q61 436 78.5 503Q96 570 133.5 619.5Q171 669 230 697Q289 725 373 725Q416 725 448 719.5Q480 714 501 707Q526 699 543 689V650Q524 660 499 668Q475 675 444.5 680.5Q414 686 374 686Q299 686 248.5 660.5Q198 635 166.5 591Q135 547 121.5 487.5Q108 428 108 360Q108 292 122 232Q136 172 167.5 127.5Q199 83 250.5 57Q302 31 377 31Q403 31 425 35Q447 39 464 43.5Q481 48 492.5 52.5Q504 57 509 58V344H309V384H552V29Q531 19 504 11Q479 3 448 -2.5Q417 -8 377 -8ZM325 789Q263 789 229 823Q195 857 193 914H232Q234 879 255.5 853.5Q277 828 325 828Q372 828 393.5 853.5Q415 879 417 914H456Q454 857 420.5 823Q387 789 325 789Z" glyph-name="Gbreve" horiz-adv-x="623" unicode="&#286;" /><glyph d="M274 606Q223 606 195 632.5Q167 659 165 704H200Q202 678 219 658Q236 638 274 638Q311 638 328 658Q345 678 347 704H381Q379 659 351 632.5Q323 606 274 606ZM316 -7Q246 -7 196.5 14.5Q147 36 116 74Q85 112 71 163.5Q57 215 57 275Q57 335 71.5 386.5Q86 438 116.5 476Q147 514 195.5 535.5Q244 557 312 557Q347 557 373 552.5Q399 548 416 543Q437 537 451 529V494Q435 502 415 508Q396 513 371 517Q346 521 314 521Q255 521 214.5 502Q174 483 149 450Q124 417 113 372Q102 327 102 276Q102 225 113 180Q124 135 149.5 101.5Q175 68 215.5 48.5Q256 29 315 29Q356 29 383 38Q410 47 417 49V260H261V297H458V22Q441 14 419 8Q399 2 373.5 -2.5Q348 -7 316 -7Z" glyph-name="Gbreve.sc" horiz-adv-x="523" /><glyph d="M325 789Q263 789 229 823Q195 857 193 914H232Q234 879 255.5 853.5Q277 828 325 828Q372 828 393.5 853.5Q415 879 417 914H456Q454 857 420.5 823Q387 789 325 789ZM916 -7Q872 -7 838 7Q804 21 769 46L762 0H727V730H605Q574 730 558.5 715.5Q543 701 543 666V650Q542 650 530.5 656Q519 662 497 668.5Q475 675 444 680.5Q413 686 374 686Q299 686 248.5 660.5Q198 635 166.5 591Q135 547 121.5 487.5Q108 428 108 360Q108 292 122 232Q136 172 167.5 127.5Q199 83 250.5 57Q302 31 377 31Q403 31 425 35Q447 39 464 43.5Q481 48 492.5 52.5Q504 57 509 58V344H309V384H552V29Q531 19 504 11Q479 3 448 -2.5Q417 -8 377 -8Q290 -8 230 20Q170 48 132.5 97.5Q95 147 78 214Q61 281 61 358Q61 436 78.5 503Q96 570 133.5 619.5Q171 669 230 697Q289 725 373 725Q424 725 457.5 716.5Q491 708 509 701Q514 732 533.5 749Q553 766 591 766H772V441Q789 460 812 475Q834 488 863 498Q892 508 932 508Q983 508 1021 489.5Q1059 471 1084.5 438.5Q1110 406 1123 361Q1136 316 1136 263Q1136 196 1119 145.5Q1102 95 1072.5 61Q1043 27 1003 10Q963 -7 916 -7ZM772 76Q789 63 811 54Q830 44 854.5 37.5Q879 31 909 31Q948 31 981 45.5Q1014 60 1038 88.5Q1062 117 1075.5 160.5Q1089 204 1089 262Q1089 306 1079 344Q1069 382 1048 410Q1027 438 995.5 454Q964 470 921 470Q884 470 856 459Q828 448 809 435Q787 420 772 400Z" glyph-name="Gbreve_b" horiz-adv-x="1192" /><glyph d="M325 789Q263 789 229 823Q195 857 193 914H232Q234 879 255.5 853.5Q277 828 325 828Q372 828 393.5 853.5Q415 879 417 914H456Q454 857 420.5 823Q387 789 325 789ZM795 -7Q758 -7 742 15.5Q726 38 726 87V730H605Q574 730 558.5 715.5Q543 701 543 666V650Q543 650 531 656Q519 662 497.5 668.5Q476 675 444.5 680.5Q413 686 374 686Q299 686 248.5 660.5Q198 635 166.5 591Q135 547 121.5 487.5Q108 428 108 360Q108 292 122 232Q136 172 167.5 127.5Q199 83 250.5 57Q302 31 377 31Q403 31 425 35Q447 39 464 43.5Q481 48 492.5 52.5Q504 57 509 58V344H309V384H552V29Q531 19 504 11Q479 3 448 -2.5Q417 -8 377 -8Q290 -8 230 20Q170 48 132.5 97.5Q95 147 78 214Q61 281 61 358Q61 436 78.5 503Q96 570 133.5 619.5Q171 669 230 697Q289 725 373 725Q424 725 457.5 716.5Q491 708 509 701Q514 732 533 749Q552 766 590 766H771V110Q771 65 780.5 47.5Q790 30 818 29Q824 29 830 31Q833 32 835 33V1Q830 -1 824 -3Q818 -5 811 -6Q804 -7 795 -7Z" glyph-name="Gbreve_l" horiz-adv-x="873" /><glyph d="M377 -8Q290 -8 230 20Q170 48 132.5 97.5Q95 147 78 214Q61 281 61 358Q61 436 78.5 503Q96 570 133.5 619.5Q171 669 230 697Q289 725 373 725Q416 725 448 719.5Q480 714 501 707Q526 699 543 689V650Q524 660 499 668Q475 675 444.5 680.5Q414 686 374 686Q299 686 248.5 660.5Q198 635 166.5 591Q135 547 121.5 487.5Q108 428 108 360Q108 292 122 232Q136 172 167.5 127.5Q199 83 250.5 57Q302 31 377 31Q403 31 425 35Q447 39 464 43.5Q481 48 492.5 52.5Q504 57 509 58V344H309V384H552V29Q531 19 504 11Q479 3 448 -2.5Q417 -8 377 -8ZM195 810 328 923H358L491 810L474 785L343 883L212 785Z" glyph-name="Gcircumflex" horiz-adv-x="623" unicode="&#284;" /><glyph d="M167 623 274 711H301L409 623L393 603L287 678L181 603ZM316 -7Q246 -7 196.5 14.5Q147 36 116 74Q85 112 71 163.5Q57 215 57 275Q57 335 71.5 386.5Q86 438 116.5 476Q147 514 195.5 535.5Q244 557 312 557Q347 557 373 552.5Q399 548 416 543Q437 537 451 529V494Q435 502 415 508Q396 513 371 517Q346 521 314 521Q255 521 214.5 502Q174 483 149 450Q124 417 113 372Q102 327 102 276Q102 225 113 180Q124 135 149.5 101.5Q175 68 215.5 48.5Q256 29 315 29Q356 29 383 38Q410 47 417 49V260H261V297H458V22Q441 14 419 8Q399 2 373.5 -2.5Q348 -7 316 -7Z" glyph-name="Gcircumflex.sc" horiz-adv-x="523" /><glyph d="M377 -8Q290 -8 230 20Q170 48 132.5 97.5Q95 147 78 214Q61 281 61 358Q61 436 78.5 503Q96 570 133.5 619.5Q171 669 230 697Q289 725 373 725Q416 725 448 719.5Q480 714 501 707Q526 699 543 689V650Q524 660 499 668Q475 675 444.5 680.5Q414 686 374 686Q299 686 248.5 660.5Q198 635 166.5 591Q135 547 121.5 487.5Q108 428 108 360Q108 292 122 232Q136 172 167.5 127.5Q199 83 250.5 57Q302 31 377 31Q403 31 425 35Q447 39 464 43.5Q481 48 492.5 52.5Q504 57 509 58V344H309V384H552V29Q531 19 504 11Q479 3 448 -2.5Q417 -8 377 -8ZM323 -225 356 -141Q339 -140 329 -130Q319 -120 319 -104Q319 -88 329 -76.5Q339 -65 357 -65Q375 -65 384 -77Q393 -89 393 -106Q393 -129 380 -162Q367 -195 349 -235Z" glyph-name="Gcommaaccent" horiz-adv-x="623" unicode="&#290;" /><glyph d="M316 -7Q246 -7 196.5 14.5Q147 36 116 74Q85 112 71 163.5Q57 215 57 275Q57 335 71.5 386.5Q86 438 116.5 476Q147 514 195.5 535.5Q244 557 312 557Q347 557 373 552.5Q399 548 416 543Q437 537 451 529V494Q435 502 415 508Q396 513 371 517Q346 521 314 521Q255 521 214.5 502Q174 483 149 450Q124 417 113 372Q102 327 102 276Q102 225 113 180Q124 135 149.5 101.5Q175 68 215.5 48.5Q256 29 315 29Q356 29 383 38Q410 47 417 49V260H261V297H458V22Q441 14 419 8Q399 2 373.5 -2.5Q348 -7 316 -7ZM273 -193 300 -128Q269 -125 269 -97Q269 -84 277 -74.5Q285 -65 301 -65Q318 -65 325.5 -75Q333 -85 333 -99Q333 -118 322 -143.5Q311 -169 296 -201Z" glyph-name="Gcommaaccent.sc" horiz-adv-x="523" /><glyph d="M377 -8Q290 -8 230 20Q170 48 132.5 97.5Q95 147 78 214Q61 281 61 358Q61 436 78.5 503Q96 570 133.5 619.5Q171 669 230 697Q289 725 373 725Q416 725 448 719.5Q480 714 501 707Q526 699 543 689V650Q524 660 499 668Q475 675 444.5 680.5Q414 686 374 686Q299 686 248.5 660.5Q198 635 166.5 591Q135 547 121.5 487.5Q108 428 108 360Q108 292 122 232Q136 172 167.5 127.5Q199 83 250.5 57Q302 31 377 31Q403 31 425 35Q447 39 464 43.5Q481 48 492.5 52.5Q504 57 509 58V344H309V384H552V29Q531 19 504 11Q479 3 448 -2.5Q417 -8 377 -8ZM343 815Q328 815 317.5 825.5Q307 836 307 853Q307 870 317.5 880.5Q328 891 343 891Q360 891 370.5 880.5Q381 870 381 853Q381 836 370.5 825.5Q360 815 343 815Z" glyph-name="Gdotaccent" horiz-adv-x="623" unicode="&#288;" /><glyph d="M288 625Q274 625 265.5 633.5Q257 642 257 656Q257 687 288 687Q303 687 311.5 679Q320 671 320 657Q320 643 311.5 634Q303 625 288 625ZM316 -7Q246 -7 196.5 14.5Q147 36 116 74Q85 112 71 163.5Q57 215 57 275Q57 335 71.5 386.5Q86 438 116.5 476Q147 514 195.5 535.5Q244 557 312 557Q347 557 373 552.5Q399 548 416 543Q437 537 451 529V494Q435 502 415 508Q396 513 371 517Q346 521 314 521Q255 521 214.5 502Q174 483 149 450Q124 417 113 372Q102 327 102 276Q102 225 113 180Q124 135 149.5 101.5Q175 68 215.5 48.5Q256 29 315 29Q356 29 383 38Q410 47 417 49V260H261V297H458V22Q441 14 419 8Q399 2 373.5 -2.5Q348 -7 316 -7Z" glyph-name="Gdotaccent.sc" horiz-adv-x="523" /><glyph d="M377 -8Q290 -8 230 20Q170 48 132.5 97.5Q95 147 78 214Q61 281 61 358Q61 436 78.5 503Q96 570 133.5 619.5Q171 669 230 697Q289 725 373 725Q416 725 448 719.5Q480 714 501 707Q526 699 543 689V650Q524 660 499 668Q475 675 444.5 680.5Q414 686 374 686Q299 686 248.5 660.5Q198 635 166.5 591Q135 547 121.5 487.5Q108 428 108 360Q108 292 122 232Q136 172 167.5 127.5Q199 83 250.5 57Q302 31 377 31Q403 31 425 35Q447 39 464 43.5Q481 48 492.5 52.5Q504 57 509 58V347H309V386H633L880 716H929L670 370L935 0H881L632 347H552V29Q531 19 504 11Q479 3 448 -2.5Q417 -8 377 -8ZM343 815Q328 815 317.5 825.5Q307 836 307 853Q307 870 317.5 880.5Q328 891 343 891Q360 891 370.5 880.5Q381 870 381 853Q381 836 370.5 825.5Q360 815 343 815Z" glyph-name="Gdotaccent_K" horiz-adv-x="953" /><glyph d="M343 815Q328 815 317.5 825.5Q307 836 307 853Q307 870 317.5 880.5Q328 891 343 891Q360 891 370.5 880.5Q381 870 381 853Q381 836 370.5 825.5Q360 815 343 815ZM916 -7Q872 -7 838 7Q804 21 769 46L762 0H727V730H605Q574 730 558.5 715.5Q543 701 543 666V650Q542 650 530.5 656Q519 662 497 668.5Q475 675 444 680.5Q413 686 374 686Q299 686 248.5 660.5Q198 635 166.5 591Q135 547 121.5 487.5Q108 428 108 360Q108 292 122 232Q136 172 167.5 127.5Q199 83 250.5 57Q302 31 377 31Q403 31 425 35Q447 39 464 43.5Q481 48 492.5 52.5Q504 57 509 58V344H309V384H552V29Q531 19 504 11Q479 3 448 -2.5Q417 -8 377 -8Q290 -8 230 20Q170 48 132.5 97.5Q95 147 78 214Q61 281 61 358Q61 436 78.5 503Q96 570 133.5 619.5Q171 669 230 697Q289 725 373 725Q424 725 457.5 716.5Q491 708 509 701Q514 732 533.5 749Q553 766 591 766H772V441Q789 460 812 475Q834 488 863 498Q892 508 932 508Q983 508 1021 489.5Q1059 471 1084.5 438.5Q1110 406 1123 361Q1136 316 1136 263Q1136 196 1119 145.5Q1102 95 1072.5 61Q1043 27 1003 10Q963 -7 916 -7ZM772 76Q789 63 811 54Q830 44 854.5 37.5Q879 31 909 31Q948 31 981 45.5Q1014 60 1038 88.5Q1062 117 1075.5 160.5Q1089 204 1089 262Q1089 306 1079 344Q1069 382 1048 410Q1027 438 995.5 454Q964 470 921 470Q884 470 856 459Q828 448 809 435Q787 420 772 400Z" glyph-name="Gdotaccent_b" horiz-adv-x="1192" /><glyph d="M343 815Q328 815 317.5 825.5Q307 836 307 853Q307 870 317.5 880.5Q328 891 343 891Q360 891 370.5 880.5Q381 870 381 853Q381 836 370.5 825.5Q360 815 343 815ZM552 29Q531 19 504 11Q479 3 448 -2.5Q417 -8 377 -8Q290 -8 230 20Q170 48 132.5 97.5Q95 147 78 214Q61 281 61 358Q61 436 78.5 503Q96 570 133.5 619.5Q171 669 230 697Q289 725 373 725Q424 725 457.5 716.5Q491 708 509 701Q514 732 533 749Q552 766 590 766H771V277H840L1026 500H1076L877 264L1084 0H1027L839 242H771V0H726V730H605Q574 730 558.5 715.5Q543 701 543 666V650Q543 650 531 656Q519 662 497.5 668.5Q476 675 444.5 680.5Q413 686 374 686Q299 686 248.5 660.5Q198 635 166.5 591Q135 547 121.5 487.5Q108 428 108 360Q108 292 122 232Q136 172 167.5 127.5Q199 83 250.5 57Q302 31 377 31Q403 31 425 35Q447 39 464 43.5Q481 48 492.5 52.5Q504 57 509 58V344H309V384H552Z" glyph-name="Gdotaccent_k" horiz-adv-x="1098" /><glyph d="M343 815Q328 815 317.5 825.5Q307 836 307 853Q307 870 317.5 880.5Q328 891 343 891Q360 891 370.5 880.5Q381 870 381 853Q381 836 370.5 825.5Q360 815 343 815ZM795 -7Q758 -7 742 15.5Q726 38 726 87V730H605Q574 730 558.5 715.5Q543 701 543 666V650Q543 650 531 656Q519 662 497.5 668.5Q476 675 444.5 680.5Q413 686 374 686Q299 686 248.5 660.5Q198 635 166.5 591Q135 547 121.5 487.5Q108 428 108 360Q108 292 122 232Q136 172 167.5 127.5Q199 83 250.5 57Q302 31 377 31Q403 31 425 35Q447 39 464 43.5Q481 48 492.5 52.5Q504 57 509 58V344H309V384H552V29Q531 19 504 11Q479 3 448 -2.5Q417 -8 377 -8Q290 -8 230 20Q170 48 132.5 97.5Q95 147 78 214Q61 281 61 358Q61 436 78.5 503Q96 570 133.5 619.5Q171 669 230 697Q289 725 373 725Q424 725 457.5 716.5Q491 708 509 701Q514 732 533 749Q552 766 590 766H771V110Q771 65 780.5 47.5Q790 30 818 29Q824 29 830 31Q833 32 835 33V1Q830 -1 824 -3Q818 -5 811 -6Q804 -7 795 -7Z" glyph-name="Gdotaccent_l" horiz-adv-x="873" /><glyph d="M99 716H145V385H536V716H582V0H536V345H145V0H99Z" glyph-name="H" horiz-adv-x="681" unicode="H" /><glyph d="M88 550H132V299H439V550H483V0H439V262H132V0H88Z" glyph-name="H.sc" horiz-adv-x="571" /><glyph d="M716 390Q763 390 794 402.5Q825 415 844.5 435.5Q864 456 872 482Q880 508 880 535Q880 606 834.5 641Q789 676 692 676H581V390ZM725 40Q776 40 812 52Q848 64 871.5 85Q895 106 905.5 135.5Q916 165 916 200Q916 275 867 313Q818 351 724 351H581V40ZM99 716H144V391H536V716H694Q817 716 872 669Q927 622 927 536Q927 498 915 470.5Q903 443 884.5 423.5Q866 404 844.5 392.5Q823 381 805 375Q830 370 858 358Q886 346 909 325.5Q932 305 947.5 274Q963 243 963 201Q963 104 903 52Q843 0 728 0H536V351H144V0H99Z" glyph-name="H_B" horiz-adv-x="1018" /><glyph d="M589 302Q625 302 649.5 311.5Q674 321 689 336Q704 351 710.5 370Q717 389 717 409Q717 462 681 488.5Q645 515 570 515H482V302ZM88 550H132V303H439V550H571Q671 550 715.5 513.5Q760 477 760 411Q760 382 750.5 361Q741 340 726.5 325.5Q712 311 695 302Q678 293 663 288Q683 284 705.5 275Q728 266 747 250Q766 234 778 211Q790 188 790 155Q790 80 741 40Q692 0 598 0H439V266H132V0H88ZM595 35Q675 35 710 68.5Q745 102 745 154Q745 211 706.5 238.5Q668 266 594 266H482V35Z" glyph-name="H_B.sc" horiz-adv-x="842" /><glyph d="M714 41Q854 41 921 126.5Q988 212 988 369Q988 520 919.5 597.5Q851 675 714 675H581V41ZM144 0H99V716H144V385H536V716H714Q876 716 955.5 625Q1035 534 1035 369Q1035 194 956 97Q877 0 714 0H536V345H144Z" glyph-name="H_D" horiz-adv-x="1096" /><glyph d="M586 37Q695 37 748 101.5Q801 166 801 283Q801 395 747.5 454Q694 513 586 513H483V37ZM132 0H88V550H132V299H439V550H584Q717 550 781.5 479Q846 408 846 283Q846 150 782 75Q718 0 584 0H439V262H132Z" glyph-name="H_D.sc" horiz-adv-x="902" /><glyph d="M144 0H99V716H144V385H536V716H893V675H581V385H855V345H581V41H893V0H536V345H144Z" glyph-name="H_E" horiz-adv-x="946" /><glyph d="M132 0H88V550H132V299H439V550H732V513H483V299H702V262H483V37H732V0H439V262H132Z" glyph-name="H_E.sc" horiz-adv-x="785" /><glyph d="M144 0H99V716H144V385H536V716H893V675H581V385H855V345H581V41H893V0H536V345H144ZM634 815 834 918 852 876 647 785Z" glyph-name="H_Eacute" horiz-adv-x="946" /><glyph d="M521 629 683 707 699 672 533 603ZM132 0H88V550H132V299H439V550H732V513H483V299H702V262H483V37H732V0H439V262H132Z" glyph-name="H_Eacute.sc" horiz-adv-x="785" /><glyph d="M144 0H99V716H144V385H536V716H893V675H581V385H855V345H581V41H893V0H536V345H144ZM561 810 694 923H724L857 810L840 785L709 883L578 785Z" glyph-name="H_Ecircumflex" horiz-adv-x="946" /><glyph d="M462 623 569 711H596L704 623L689 603L583 678L477 603ZM132 0H88V550H132V299H439V550H732V513H483V299H702V262H483V37H732V0H439V262H132Z" glyph-name="H_Ecircumflex.sc" horiz-adv-x="785" /><glyph d="M144 0H99V716H144V385H536V716H893V675H581V385H855V345H581V41H893V0H536V345H144ZM630 815Q616 815 605.5 825Q595 835 595 852Q595 869 605.5 879Q616 889 631 889Q647 889 657 879Q667 869 667 852Q667 835 657 825Q647 815 630 815ZM804 815Q789 815 779 825Q769 835 769 852Q769 869 779 879Q789 889 804 889Q820 889 830.5 879Q841 869 841 852Q841 835 830.5 825Q820 815 804 815Z" glyph-name="H_Edieresis" horiz-adv-x="946" /><glyph d="M518 625Q504 625 496 633.5Q488 642 488 656Q488 670 496 678Q504 686 518 686Q532 686 541 678Q550 670 550 656Q550 642 541 633.5Q532 625 518 625ZM659 625Q645 625 637 633.5Q629 642 629 656Q629 670 637.5 678Q646 686 660 686Q674 686 682.5 678Q691 670 691 656Q691 642 682 633.5Q673 625 659 625ZM132 0H88V550H132V299H439V550H732V513H483V299H702V262H483V37H732V0H439V262H132Z" glyph-name="H_Edieresis.sc" horiz-adv-x="785" /><glyph d="M144 0H99V716H144V385H536V716H893V675H581V385H855V345H581V41H893V0H536V345H144ZM723 815Q708 815 697.5 825.5Q687 836 687 853Q687 870 697.5 880.5Q708 891 723 891Q740 891 750.5 880.5Q761 870 761 853Q761 836 750.5 825.5Q740 815 723 815Z" glyph-name="H_Edotaccent" horiz-adv-x="946" /><glyph d="M593 625Q579 625 570.5 633.5Q562 642 562 656Q562 687 593 687Q608 687 617 679Q626 671 626 657Q626 643 617 634Q608 625 593 625ZM132 0H88V550H132V299H439V550H732V513H483V299H702V262H483V37H732V0H439V262H132Z" glyph-name="H_Edotaccent.sc" horiz-adv-x="785" /><glyph d="M144 0H99V716H144V385H536V716H893V675H581V385H855V345H581V41H893V0H536V345H144ZM584 876 602 918 802 815 788 785Z" glyph-name="H_Egrave" horiz-adv-x="946" /><glyph d="M480 672 497 707 658 629 646 603ZM132 0H88V550H132V299H439V550H732V513H483V299H702V262H483V37H732V0H439V262H132Z" glyph-name="H_Egrave.sc" horiz-adv-x="785" /><glyph d="M144 0H99V716H144V385H536V716H893V675H581V385H855V345H581V41H893V0H536V345H144ZM586 874H850V833H586Z" glyph-name="H_Emacron" horiz-adv-x="946" /><glyph d="M482 674H695V639H482ZM132 0H88V550H132V299H439V550H732V513H483V299H702V262H483V37H732V0H439V262H132Z" glyph-name="H_Emacron.sc" horiz-adv-x="785" /><glyph d="M536 0V345H144V0H99V716H144V385H536V716H893V675H581V385H855V345H581V41H893V0Q842 -29 813 -64.5Q784 -100 784 -135Q784 -162 799.5 -176Q815 -190 842 -190Q869 -190 889 -179Q909 -168 919 -160V-193Q912 -199 889.5 -213Q867 -227 828 -227Q790 -227 765.5 -204Q741 -181 741 -143Q741 -101 771.5 -61.5Q802 -22 847 0Z" glyph-name="H_Eogonek" horiz-adv-x="946" /><glyph d="M439 0V262H132V0H88V550H132V299H439V550H732V513H483V299H702V262H483V37H732V0Q693 -22 669.5 -49Q646 -76 646 -102Q646 -144 693 -144Q713 -144 729.5 -135.5Q746 -127 754 -122V-148Q747 -153 729 -164Q711 -175 679 -175Q647 -175 627 -156.5Q607 -138 607 -109Q607 -76 632 -46.5Q657 -17 693 0Z" glyph-name="H_Eogonek.sc" horiz-adv-x="785" /><glyph d="M144 0H99V716H144V383H536V716H887V675H581V383H849V342H581V0H536V342H144Z" glyph-name="H_F" horiz-adv-x="917" /><glyph d="M132 0H88V550H132V297H439V550H727V513H483V296H697V259H483V0H439V259H132Z" glyph-name="H_F.sc" horiz-adv-x="761" /><glyph d="M99 716H144V387H536V716H581V386H661L918 716H966L698 370L972 0H919L660 347H581V0H536V346H144V0H99Z" glyph-name="H_K" horiz-adv-x="991" /><glyph d="M88 550H132V300H439V550H483V299H545L747 550H794L580 284L799 0H749L544 263H483V0H439V262H132V0H88Z" glyph-name="H_K.sc" horiz-adv-x="822" /><glyph d="M99 716H144V385H536V716H598L876 103L1154 716H1211V0H1166V650L890 37H857L581 652V0H536V345H144V0H99Z" glyph-name="H_M" horiz-adv-x="1310" /><glyph d="M88 550H132V299H439V550H498L719 87L939 550H993V0H950V490L733 29H701L483 493V0H439V262H132V0H88Z" glyph-name="H_M.sc" horiz-adv-x="1082" /><glyph d="M99 716H144V385H536V716H578L985 81V716H1027V0H985L579 635V0H536V345H144V0H99Z" glyph-name="H_N" horiz-adv-x="1126" /><glyph d="M88 550H132V299H439V550H480L801 73V550H841V0H802L481 477V0H439V262H132V0H88Z" glyph-name="H_N.sc" horiz-adv-x="930" /><glyph d="M99 716H144V385H536V716H578L985 81V716H1027V0H985L579 635V0H536V345H144V0H99ZM632 898 649 923 786 825 922 923 939 898 800 785H770Z" glyph-name="H_Ncaron" horiz-adv-x="1126" /><glyph d="M519 690 534 711 644 637 754 711 770 690 657 603H630ZM88 550H132V299H439V550H480L801 73V550H841V0H802L481 477V0H439V262H132V0H88Z" glyph-name="H_Ncaron.sc" horiz-adv-x="930" /><glyph d="M691 365Q790 365 842.5 407Q895 449 895 526Q895 606 843 641Q791 676 689 676H581V365ZM99 716H144V365H536V716H688Q942 716 942 528Q942 432 875.5 378.5Q809 325 689 325H581V0H536V325H144V0H99Z" glyph-name="H_P" horiz-adv-x="980" /><glyph d="M569 282Q646 282 687 313.5Q728 345 728 402Q728 462 687 488Q646 514 567 514H483V282ZM88 550H132V283H439V550H567Q669 550 721 514Q773 478 773 404Q773 329 719 288Q665 247 568 247H483V0H439V247H132V0H88Z" glyph-name="H_P.sc" horiz-adv-x="812" /><glyph d="M698 365Q736 365 769 376Q802 387 826.5 408Q851 429 865 459Q879 489 879 527Q879 561 868.5 588.5Q858 616 834.5 635.5Q811 655 774 665.5Q737 676 683 676H581V365ZM99 716H144V365H536V716H685Q811 716 868.5 666.5Q926 617 926 527Q926 459 884.5 405.5Q843 352 760 335L961 0H911L715 326H581V0H536V325H144V0H99Z" glyph-name="H_R" horiz-adv-x="991" /><glyph d="M575 283Q605 283 630.5 291Q656 299 675 315Q694 331 705 353.5Q716 376 716 404Q716 454 681.5 484Q647 514 562 514H483V283ZM88 550H132V284H439V550H563Q666 550 713.5 511.5Q761 473 761 404Q761 351 728 310.5Q695 270 629 257L789 0H741L586 248H483V0H439V247H132V0H88Z" glyph-name="H_R.sc" horiz-adv-x="823" /><glyph d="M698 365Q736 365 769 376Q802 387 826.5 408Q851 429 865 459Q879 489 879 527Q879 561 868.5 588.5Q858 616 834.5 635.5Q811 655 774 665.5Q737 676 683 676H581V365ZM99 716H144V365H536V716H685Q811 716 868.5 666.5Q926 617 926 527Q926 459 884.5 405.5Q843 352 760 335L961 0H911L715 326H581V0H536V325H144V0H99ZM639 815 839 918 857 876 652 785Z" glyph-name="H_Racute" horiz-adv-x="991" /><glyph d="M526 629 687 707 703 672 538 603ZM575 283Q605 283 630.5 291Q656 299 675 315Q694 331 705 353.5Q716 376 716 404Q716 454 681.5 484Q647 514 562 514H483V283ZM88 550H132V284H439V550H563Q666 550 713.5 511.5Q761 473 761 404Q761 351 728 310.5Q695 270 629 257L789 0H741L586 248H483V0H439V247H132V0H88Z" glyph-name="H_Racute.sc" horiz-adv-x="823" /><glyph d="M698 365Q736 365 769 376Q802 387 826.5 408Q851 429 865 459Q879 489 879 527Q879 561 868.5 588.5Q858 616 834.5 635.5Q811 655 774 665.5Q737 676 683 676H581V365ZM99 716H144V365H536V716H685Q811 716 868.5 666.5Q926 617 926 527Q926 459 884.5 405.5Q843 352 760 335L961 0H911L715 326H581V0H536V325H144V0H99ZM544 898 561 923 698 825 834 923 851 898 712 785H682Z" glyph-name="H_Rcaron" horiz-adv-x="991" /><glyph d="M449 690 464 711 574 637 684 711 699 690 588 603H560ZM575 283Q605 283 630.5 291Q656 299 675 315Q694 331 705 353.5Q716 376 716 404Q716 454 681.5 484Q647 514 562 514H483V283ZM88 550H132V284H439V550H563Q666 550 713.5 511.5Q761 473 761 404Q761 351 728 310.5Q695 270 629 257L789 0H741L586 248H483V0H439V247H132V0H88Z" glyph-name="H_Rcaron.sc" horiz-adv-x="823" /><glyph d="M99 716H144V385H548V675H346V716H814V675H593V0H548V345H144V0H99Z" glyph-name="H_T" horiz-adv-x="826" /><glyph d="M88 550H132V299H450V513H290V550H669V513H494V0H450V261H132V0H88Z" glyph-name="H_T.sc" horiz-adv-x="686" /><glyph d="M99 716H144V385H548V675H346V716H814V675H593V0H548V345H144V0H99ZM417 898 434 923 571 825 707 923 724 898 585 785H555Z" glyph-name="H_Tcaron" horiz-adv-x="826" /><glyph d="M347 690 362 711 472 637 582 711 597 690 485 603H458ZM88 550H132V299H450V513H290V550H669V513H494V0H450V261H132V0H88Z" glyph-name="H_Tcaron.sc" horiz-adv-x="686" /><glyph d="M99 716H144V385H536V716H581V238Q581 137 632 84Q683 31 773 31Q817 31 853 44Q889 57 915.5 83Q942 109 957 148Q972 187 972 239V716H1017V239Q1017 178 999 131.5Q981 85 949 54Q917 23 872 7.5Q827 -8 773 -8Q665 -8 600.5 54Q536 116 536 238V345H144V0H99Z" glyph-name="H_U" horiz-adv-x="1110" /><glyph d="M88 550H132V299H439V550H483V185Q483 109 523 69Q563 29 633 29Q702 29 745.5 68.5Q789 108 790 186V550H834V186Q834 138 819 102Q804 66 777.5 42Q751 18 714 6Q677 -6 633 -6Q546 -6 492.5 42Q439 90 439 185V262H132V0H88Z" glyph-name="H_U.sc" horiz-adv-x="916" /><glyph d="M99 716H144V385H536V716H581V238Q581 137 632 84Q683 31 773 31Q817 31 853 44Q889 57 915.5 83Q942 109 957 148Q972 187 972 239V716H1017V239Q1017 178 999 131.5Q981 85 949 54Q917 23 872 7.5Q827 -8 773 -8Q665 -8 600.5 54Q536 116 536 238V345H144V0H99ZM717 815 917 918 935 876 730 785Z" glyph-name="H_Uacute" horiz-adv-x="1110" /><glyph d="M586 629 748 707 764 672 598 603ZM88 550H132V299H439V550H483V185Q483 109 523 69Q563 29 633 29Q702 29 745.5 68.5Q789 108 790 186V550H834V186Q834 138 819 102Q804 66 777.5 42Q751 18 714 6Q677 -6 633 -6Q546 -6 492.5 42Q439 90 439 185V262H132V0H88Z" glyph-name="H_Uacute.sc" horiz-adv-x="916" /><glyph d="M99 716H144V385H536V716H581V238Q581 137 632 84Q683 31 773 31Q817 31 853 44Q889 57 915.5 83Q942 109 957 148Q972 187 972 239V716H1017V239Q1017 178 999 131.5Q981 85 949 54Q917 23 872 7.5Q827 -8 773 -8Q665 -8 600.5 54Q536 116 536 238V345H144V0H99ZM689 815Q675 815 664.5 825Q654 835 654 852Q654 869 664.5 879Q675 889 690 889Q706 889 716 879Q726 869 726 852Q726 835 716 825Q706 815 689 815ZM863 815Q848 815 838 825Q828 835 828 852Q828 869 838 879Q848 889 863 889Q879 889 889.5 879Q900 869 900 852Q900 835 889.5 825Q879 815 863 815Z" glyph-name="H_Udieresis" horiz-adv-x="1110" /><glyph d="M565 625Q551 625 543 633.5Q535 642 535 656Q535 670 543 678Q551 686 565 686Q580 686 588.5 678Q597 670 597 656Q597 642 588.5 633.5Q580 625 565 625ZM706 625Q693 625 684.5 633.5Q676 642 676 656Q676 670 684.5 678Q693 686 707 686Q721 686 729.5 678Q738 670 738 656Q738 642 729.5 633.5Q721 625 706 625ZM88 550H132V299H439V550H483V185Q483 109 523 69Q563 29 633 29Q702 29 745.5 68.5Q789 108 790 186V550H834V186Q834 138 819 102Q804 66 777.5 42Q751 18 714 6Q677 -6 633 -6Q546 -6 492.5 42Q439 90 439 185V262H132V0H88Z" glyph-name="H_Udieresis.sc" horiz-adv-x="916" /><glyph d="M99 716H144V385H536V716H581V238Q581 137 632 84Q683 31 773 31Q817 31 853 44Q889 57 915.5 83Q942 109 957 148Q972 187 972 239V716H1017V239Q1017 178 999 131.5Q981 85 949 54Q917 23 872 7.5Q827 -8 773 -8Q665 -8 600.5 54Q536 116 536 238V345H144V0H99ZM651 806 783 951 818 922 678 785ZM787 815 986 918 1004 876 800 785Z" glyph-name="H_Uhungarumlaut" horiz-adv-x="1110" /><glyph d="M534 621 639 733 670 709 557 603ZM646 628 805 707 821 673 658 603ZM88 550H132V299H439V550H483V185Q483 109 523 69Q563 29 633 29Q702 29 745.5 68.5Q789 108 790 186V550H834V186Q834 138 819 102Q804 66 777.5 42Q751 18 714 6Q677 -6 633 -6Q546 -6 492.5 42Q439 90 439 185V262H132V0H88Z" glyph-name="H_Uhungarumlaut.sc" horiz-adv-x="916" /><glyph d="M99 716H144V385H536V716H581V238Q581 137 632 84Q683 31 773 31Q817 31 853 44Q889 57 915.5 83Q942 109 957 148Q972 187 972 239V716H1017V239Q1017 178 999 131.5Q981 85 949 54Q917 23 872 7.5Q827 -8 773 -8Q665 -8 600.5 54Q536 116 536 238V345H144V0H99ZM644 874H908V833H644Z" glyph-name="H_Umacron" horiz-adv-x="1110" /><glyph d="M529 674H743V639H529ZM88 550H132V299H439V550H483V185Q483 109 523 69Q563 29 633 29Q702 29 745.5 68.5Q789 108 790 186V550H834V186Q834 138 819 102Q804 66 777.5 42Q751 18 714 6Q677 -6 633 -6Q546 -6 492.5 42Q439 90 439 185V262H132V0H88Z" glyph-name="H_Umacron.sc" horiz-adv-x="916" /><glyph d="M814 -227Q776 -227 751.5 -203.5Q727 -180 727 -141Q727 -103 750.5 -67.5Q774 -32 818 -1Q807 -5 794.5 -6.5Q782 -8 771 -8Q659 -4 597.5 56.5Q536 117 536 238V345H144V0H99V716H144V385H536V716H581V238Q581 135 632 83Q683 31 773 31Q817 31 853.5 44Q890 57 916 82.5Q942 108 957 147.5Q972 187 972 239V716H1017V239Q1017 157 987.5 107.5Q958 58 911 28Q884 10 858.5 -8Q833 -26 813.5 -45.5Q794 -65 782 -87Q770 -109 770 -134Q770 -160 785 -175Q800 -190 828 -190Q855 -190 875 -179Q895 -168 905 -160V-193Q898 -199 875.5 -213Q853 -227 814 -227Z" glyph-name="H_Uogonek" horiz-adv-x="1110" /><glyph d="M664 -175Q632 -175 612 -157Q592 -139 592 -108Q592 -78 611.5 -51Q631 -24 667 -1Q658 -4 647.5 -5Q637 -6 628 -6Q539 -3 489 44Q439 91 439 185V262H132V0H88V550H132V299H439V550H483V185Q483 107 523 68Q563 29 633 29Q701 29 745.5 68Q790 107 790 186V550H834V186Q834 120 808.5 81.5Q783 43 743 20Q722 7 702 -6.5Q682 -20 666.5 -34.5Q651 -49 641.5 -65Q632 -81 632 -100Q632 -120 644.5 -132Q657 -144 678 -144Q699 -144 715.5 -135.5Q732 -127 740 -121V-148Q732 -153 714 -164Q696 -175 664 -175Z" glyph-name="H_Uogonek.sc" horiz-adv-x="916" /><glyph d="M99 716H144V385H536V716H581V238Q581 137 632 84Q683 31 773 31Q817 31 853 44Q889 57 915.5 83Q942 109 957 148Q972 187 972 239V716H1017V239Q1017 178 999 131.5Q981 85 949 54Q917 23 872 7.5Q827 -8 773 -8Q665 -8 600.5 54Q536 116 536 238V345H144V0H99ZM778 771Q731 771 702.5 796Q674 821 674 862Q674 899 702 925.5Q730 952 778 952Q825 952 854 926Q883 900 883 862Q883 821 854.5 796Q826 771 778 771ZM778 800Q810 800 828.5 817Q847 834 847 863Q847 888 827.5 905.5Q808 923 778 923Q746 923 727.5 905.5Q709 888 709 863Q709 834 728 817Q747 800 778 800Z" glyph-name="H_Uring" horiz-adv-x="1110" /><glyph d="M637 593Q599 593 576 612Q553 631 553 663Q553 692 576 712.5Q599 733 637 733Q676 733 699.5 712.5Q723 692 723 663Q723 631 700 612Q677 593 637 593ZM637 616Q663 616 678 629Q693 642 693 663Q693 683 677 696Q661 709 637 709Q612 709 597.5 696Q583 683 583 663Q583 642 598 629Q613 616 637 616ZM88 550H132V299H439V550H483V185Q483 109 523 69Q563 29 633 29Q702 29 745.5 68.5Q789 108 790 186V550H834V186Q834 138 819 102Q804 66 777.5 42Q751 18 714 6Q677 -6 633 -6Q546 -6 492.5 42Q439 90 439 185V262H132V0H88Z" glyph-name="H_Uring.sc" horiz-adv-x="916" /><glyph d="M551 385V554H160V385ZM160 0H115V554H15V595H115V716H160V595H551V716H597V595H697V554H597V0H551V345H160Z" glyph-name="Hbar" horiz-adv-x="711" unicode="&#294;" /><glyph d="M448 299V425H141V299ZM141 0H97V425H19V459H97V550H141V459H448V550H491V459H569V425H491V0H448V262H141Z" glyph-name="Hbar.sc" horiz-adv-x="589" /><glyph d="M568 385V554H177V385ZM1050 239Q1050 178 1032 131.5Q1014 85 981.5 54Q949 23 904 7.5Q859 -8 805 -8Q698 -8 633 54Q568 116 568 238V345H177V0H131V554H31V595H131V716H177V595H568V716H613V595H713V554H613V238Q613 137 664 84Q715 31 805 31Q849 31 885.5 44Q922 57 948.5 83Q975 109 989.5 148Q1004 187 1004 239V716H1050Z" glyph-name="Hbar_U" horiz-adv-x="1142" /><glyph d="M842 186Q842 138 827 102Q812 66 785.5 42Q759 18 722.5 6Q686 -6 642 -6Q555 -6 501.5 42Q448 90 448 185V262H141V0H97V425H18V458H97V550H141V458H448V550H492V458H571V425H492V185Q492 109 532 69Q572 29 642 29Q711 29 754 68.5Q797 108 799 186V550H842ZM448 299V425H141V299Z" glyph-name="Hbar_U.sc" horiz-adv-x="925" /><glyph d="M99 716H145V385H536V716H582V0H536V345H145V0H99ZM192 810 325 923H355L488 810L471 785L340 883L209 785Z" glyph-name="Hcircumflex" horiz-adv-x="681" unicode="&#292;" /><glyph d="M165 623 272 711H299L407 623L391 603L285 678L179 603ZM88 550H132V299H439V550H483V0H439V262H132V0H88Z" glyph-name="Hcircumflex.sc" horiz-adv-x="571" /><glyph d="M99 716H145V0H99Z" glyph-name="I" horiz-adv-x="244" unicode="I" /><glyph d="M88 550H132V0H88Z" glyph-name="I.sc" horiz-adv-x="221" /><glyph d="M99 716H145V0H99ZM321 -8Q303 -8 288.5 -5.5Q274 -3 263 1Q251 4 241 9V48Q251 43 263 40Q274 36 287.5 33.5Q301 31 317 31Q359 31 378 56Q397 81 397 138V716H443V137Q443 62 412.5 27Q382 -8 321 -8Z" glyph-name="IJ" horiz-adv-x="538" unicode="&#306;" /><glyph d="M88 550H132V0H88ZM273 -6Q259 -6 247 -4Q235 -2 227 0Q217 3 209 6V42Q217 38 226 36Q234 33 245 31Q256 29 269 29Q303 29 318 48Q333 67 333 111V550H377V110Q377 50 350.5 22Q324 -6 273 -6Z" glyph-name="IJ.sc" horiz-adv-x="462" /><glyph d="M99 716H145V0H99ZM42 815 242 918 260 876 55 785Z" glyph-name="Iacute" horiz-adv-x="244" unicode="&#205;" /><glyph d="M43 629 205 707 221 672 55 603ZM88 550H132V0H88Z" glyph-name="Iacute.sc" horiz-adv-x="221" /><glyph d="M121 789Q59 789 25 823Q-9 857 -11 914H28Q30 879 51.5 853.5Q73 828 121 828Q168 828 189.5 853.5Q211 879 213 914H252Q250 857 216.5 823Q183 789 121 789ZM99 716H145V0H99Z" glyph-name="Ibreve" horiz-adv-x="244" unicode="&#300;" /><glyph d="M109 606Q59 606 31 632.5Q3 659 1 704H36Q38 678 54.5 658Q71 638 109 638Q147 638 163.5 658Q180 678 182 704H218Q215 659 187 632.5Q159 606 109 606ZM88 550H132V0H88Z" glyph-name="Ibreve.sc" horiz-adv-x="221" /><glyph d="M99 716H145V0H99ZM-27 810 106 923H136L269 810L252 785L121 883L-10 785Z" glyph-name="Icircumflex" horiz-adv-x="244" unicode="&#206;" /><glyph d="M-12 623 96 711H123L230 623L215 603L109 678L3 603ZM88 550H132V0H88Z" glyph-name="Icircumflex.sc" horiz-adv-x="221" /><glyph d="M49 815Q35 815 24.5 825Q14 835 14 852Q14 869 24.5 879Q35 889 49 889Q66 889 76 879Q86 869 86 852Q86 835 76 825Q66 815 49 815ZM197 815Q182 815 172 825Q162 835 162 852Q162 869 172 879Q182 889 197 889Q213 889 223.5 879Q234 869 234 852Q234 835 223.5 825Q213 815 197 815ZM99 716H145V0H99Z" glyph-name="Idieresis" horiz-adv-x="244" unicode="&#207;" /><glyph d="M50 625Q37 625 28.5 633.5Q20 642 20 656Q20 670 28.5 678Q37 686 50 686Q64 686 73 678Q82 670 82 656Q82 642 73 633.5Q64 625 50 625ZM171 625Q158 625 149.5 633.5Q141 642 141 656Q141 670 149.5 678Q158 686 171 686Q185 686 194 678Q203 670 203 656Q203 642 194 633.5Q185 625 171 625ZM88 550H132V0H88Z" glyph-name="Idieresis.sc" horiz-adv-x="221" /><glyph d="M99 716H145V0H99ZM121 815Q106 815 95.5 825.5Q85 836 85 853Q85 870 95.5 880.5Q106 891 121 891Q138 891 148.5 880.5Q159 870 159 853Q159 836 148.5 825.5Q138 815 121 815Z" glyph-name="Idotaccent" horiz-adv-x="245" unicode="&#304;" /><glyph d="M109 625Q95 625 86.5 633.5Q78 642 78 656Q78 670 86.5 678.5Q95 687 109 687Q125 687 133.5 679Q142 671 142 657Q142 643 133.5 634Q125 625 109 625ZM88 550H132V0H88Z" glyph-name="Idotaccent.sc" horiz-adv-x="221" /><glyph d="M99 716H145V0H99ZM-13 876 5 918 205 815 191 785Z" glyph-name="Igrave" horiz-adv-x="244" unicode="&#204;" /><glyph d="M1 672 17 707 179 629 166 603ZM88 550H132V0H88Z" glyph-name="Igrave.sc" horiz-adv-x="221" /><glyph d="M99 716H145V0H99ZM-10 874H254V833H-10Z" glyph-name="Imacron" horiz-adv-x="244" unicode="&#298;" /><glyph d="M3 674H217V639H3ZM88 550H132V0H88Z" glyph-name="Imacron.sc" horiz-adv-x="221" /><glyph d="M80 -227Q42 -227 17.5 -204Q-7 -181 -7 -143Q-7 -101 23.5 -61.5Q54 -22 99 0V716H145V0Q94 -29 65 -64.5Q36 -100 36 -135Q36 -162 51.5 -176Q67 -190 94 -190Q121 -190 141 -179Q161 -168 171 -160V-193Q164 -199 142 -213Q120 -227 80 -227Z" glyph-name="Iogonek" horiz-adv-x="244" unicode="&#302;" /><glyph d="M88 0V550H132V0Q92 -22 69 -49Q46 -76 46 -102Q46 -144 92 -144Q113 -144 129 -135.5Q145 -127 153 -122V-148Q146 -153 128 -164Q110 -175 79 -175Q47 -175 27 -156.5Q7 -138 7 -109Q7 -76 32 -46.5Q57 -17 92 0Z" glyph-name="Iogonek.sc" horiz-adv-x="221" /><glyph d="M-27 807Q-26 836 -17 858Q-9 879 7 894Q23 909 53 909Q78 909 94 896.5Q110 884 124 870Q138 856 151 844Q164 832 183 832Q199 832 207.5 841.5Q216 851 221 863Q226 877 227 894H260Q259 866 250 845Q242 824 226.5 809.5Q211 795 182 795Q157 795 141 807.5Q125 820 111 834Q97 848 83.5 860.5Q70 873 53 873Q36 873 26.5 862.5Q17 852 12 840Q7 825 6 807ZM99 716H145V0H99Z" glyph-name="Itilde" horiz-adv-x="244" unicode="&#296;" /><glyph d="M-12 620Q-12 621 -10.5 634Q-9 647 -2.5 662Q4 677 17.5 689Q31 701 55 701Q75 701 88 691.5Q101 682 113 671Q124 660 134.5 651.5Q145 643 160 643Q173 643 180 650Q187 657 190 666Q194 676 195 689H225Q225 688 223.5 675.5Q222 663 215.5 648.5Q209 634 196 622.5Q183 611 160 611Q140 611 126.5 620Q113 629 102 640Q90 651 79.5 660Q69 669 55 669Q41 669 33.5 661.5Q26 654 23 645Q19 634 18 620ZM88 550H132V0H88Z" glyph-name="Itilde.sc" horiz-adv-x="221" /><glyph d="M96 -8Q78 -8 63.5 -5.5Q49 -3 38 1Q26 4 16 9V48Q26 43 38 40Q49 36 62.5 33.5Q76 31 92 31Q134 31 153 56Q172 81 172 138V716H218V137Q218 62 187.5 27Q157 -8 96 -8Z" glyph-name="J" horiz-adv-x="313" unicode="J" /><glyph d="M86 -6Q72 -6 60 -4Q48 -2 39 0Q29 3 21 6V42Q29 38 38 36Q47 33 57.5 31Q68 29 81 29Q116 29 131 48Q146 67 146 111V550H190V110Q190 50 164 22Q138 -6 86 -6Z" glyph-name="J.sc" horiz-adv-x="275" /><glyph d="M46 810 179 923H209L342 810L325 785L194 883L63 785ZM96 -8Q78 -8 63.5 -5.5Q49 -3 38 1Q26 4 16 9V48Q26 43 38 40Q49 36 62.5 33.5Q76 31 92 31Q134 31 153 56Q172 81 172 138V716H218V137Q218 62 187.5 27Q157 -8 96 -8Z" glyph-name="Jcircumflex" horiz-adv-x="313" unicode="&#308;" /><glyph d="M46 623 153 711H181L289 623L273 603L167 678L61 603ZM86 -6Q72 -6 60 -4Q48 -2 39 0Q29 3 21 6V42Q29 38 38 36Q47 33 57.5 31Q68 29 81 29Q116 29 131 48Q146 67 146 111V550H190V110Q190 50 164 22Q138 -6 86 -6Z" glyph-name="Jcircumflex.sc" horiz-adv-x="275" /><glyph d="M99 716H145V386H225L473 716H521L262 370L527 0H473L224 347H145V0H99Z" glyph-name="K" horiz-adv-x="546" unicode="K" /><glyph d="M88 550H132V299H194L390 550H436L229 284L441 0H391L194 263H132V0H88Z" glyph-name="K.sc" horiz-adv-x="464" /><glyph d="M99 716H144V386H224L383 597Q427 655 474 685.5Q521 716 587 716H981V675H761V0H715V675H588Q558 675 534.5 669Q511 663 490.5 650Q470 637 450.5 616Q431 595 409 566L261 370L526 0H473L224 347H144V0H99Z" glyph-name="K_T" horiz-adv-x="993" /><glyph d="M88 550H132V299H194L316 454Q353 501 392.5 525.5Q432 550 489 550H809V513H633V0H590V513H491Q442 513 410 493.5Q378 474 344 429L229 284L441 0H391L194 263H132V0H88Z" glyph-name="K_T.sc" horiz-adv-x="826" /><glyph d="M99 716H144V386H224L383 597Q427 655 474 685.5Q521 716 587 716H981V675H761V0H715V675H588Q558 675 534.5 669Q511 663 490.5 650Q470 637 450.5 616Q431 595 409 566L261 370L526 0H473L224 347H144V0H99ZM705 -225 738 -141Q721 -140 711 -130Q701 -120 701 -104Q701 -88 711 -76.5Q721 -65 739 -65Q757 -65 766 -77Q775 -89 775 -106Q775 -129 762 -162Q749 -195 731 -235Z" glyph-name="K_Tcommaaccent" horiz-adv-x="993" /><glyph d="M88 550H132V299H194L316 454Q353 501 392.5 525.5Q432 550 489 550H809V513H633V0H590V513H491Q442 513 410 493.5Q378 474 344 429L229 284L441 0H391L194 263H132V0H88ZM584 -193 611 -128Q580 -125 580 -97Q580 -84 588.5 -74.5Q597 -65 612 -65Q629 -65 637 -75Q645 -85 645 -99Q645 -118 633.5 -143.5Q622 -169 607 -201Z" glyph-name="K_Tcommaaccent.sc" horiz-adv-x="826" /><glyph d="M99 716H144V386H224L403 622Q429 657 452 683.5Q475 710 501.5 728.5Q528 747 559 756.5Q590 766 630 766H696V441Q713 460 736 475Q758 488 787 498Q816 508 856 508Q907 508 945 489.5Q983 471 1008.5 438.5Q1034 406 1047 361Q1060 316 1060 263Q1060 196 1043 145.5Q1026 95 996.5 61Q967 27 927 10Q887 -7 840 -7Q796 -7 762 7Q728 21 693 46L686 0H651V730H625Q598 730 574 722.5Q550 715 527 698.5Q504 682 480.5 656Q457 630 430 593L261 370L526 0H473L224 347H144V0H99ZM696 76Q714 63 735 54Q755 44 779.5 37.5Q804 31 833 31Q872 31 905 45.5Q938 60 962 88.5Q986 117 999.5 160.5Q1013 204 1013 262Q1013 306 1003 344Q993 382 972.5 410Q952 438 920.5 454Q889 470 845 470Q808 470 780 459Q752 448 733 435Q711 420 696 400Z" glyph-name="K_b" horiz-adv-x="1116" /><glyph d="M99 716H144V386H224L403 622Q429 657 452.5 684Q476 711 502.5 729Q529 747 560 756.5Q591 766 632 766H698V423Q719 447 747 466Q772 483 804.5 495.5Q837 508 880 508Q970 508 1009.5 455Q1049 402 1049 303V0H1004V296Q1004 389 970 429.5Q936 470 864 470Q826 470 795.5 457.5Q765 445 744 430Q718 412 698 390V0H653V730H627Q599 730 575 722.5Q551 715 528 698.5Q505 682 481 656Q457 630 430 593L261 370L526 0H473L224 347H144V0H99Z" glyph-name="K_h" horiz-adv-x="1130" /><glyph d="M99 716H144V386H224L403 622Q429 657 452.5 684Q476 711 502.5 729Q529 747 560 756.5Q591 766 631 766H698V277H767L953 500H1003L804 264L1011 0H954L766 242H698V0H653V730H627Q599 730 575 722.5Q551 715 528 698.5Q505 682 481 656Q457 630 430 593L261 370L526 0H473L224 347H144V0H99Z" glyph-name="K_k" horiz-adv-x="1025" /><glyph d="M99 716H144V386H224L403 622Q429 657 451.5 683.5Q474 710 499 728.5Q524 747 553.5 756.5Q583 766 622 766H688V110Q688 64 698 46.5Q708 29 735 29Q741 29 747 31Q750 32 752 33V1Q747 -1 741 -3Q735 -5 728 -6Q721 -7 712 -7Q677 -7 660 15.5Q643 38 643 87V730H618Q591 730 568.5 722Q546 714 524 697.5Q502 681 479.5 655Q457 629 430 593L261 370L526 0H473L224 347H144V0H99Z" glyph-name="K_l" horiz-adv-x="790" /><glyph d="M99 716H144V386H224L403 622Q429 657 451.5 683.5Q474 710 499 728.5Q524 747 553.5 756.5Q583 766 622 766H688V110Q688 64 698 46.5Q708 29 735 29Q741 29 747 31Q750 32 752 33V1Q747 -1 741 -3Q735 -5 728 -6Q721 -7 712 -7Q677 -7 660 15.5Q643 38 643 87V730H618Q591 730 568.5 722Q546 714 524 697.5Q502 681 479.5 655Q457 629 430 593L261 370L526 0H473L224 347H144V0H99ZM561 836 761 939 779 897 574 806Z" glyph-name="K_lacute" horiz-adv-x="790" /><glyph d="M99 716H144V386H224L403 622Q429 657 451.5 683.5Q474 710 499 728.5Q524 747 553.5 756.5Q583 766 622 766H688V110Q688 64 698 46.5Q708 29 735 29Q741 29 747 31Q750 32 752 33V1Q747 -1 741 -3Q735 -5 728 -6Q721 -7 712 -7Q677 -7 660 15.5Q643 38 643 87V730H618Q591 730 568.5 722Q546 714 524 697.5Q502 681 479.5 655Q457 629 430 593L261 370L526 0H473L224 347H144V0H99ZM762 615 795 699Q778 700 768 710Q758 720 758 736Q758 752 768 763.5Q778 775 796 775Q814 775 823 763Q832 751 832 734Q832 711 819 678Q806 645 788 605Z" glyph-name="K_lcaron" horiz-adv-x="816" /><glyph d="M99 716H144V386H224L403 622Q429 657 451.5 683.5Q474 710 499 728.5Q524 747 553.5 756.5Q583 766 622 766H688V110Q688 64 698 46.5Q708 29 735 29Q741 29 747 31Q750 32 752 33V1Q747 -1 741 -3Q735 -5 728 -6Q721 -7 712 -7Q677 -7 660 15.5Q643 38 643 87V730H618Q591 730 568.5 722Q546 714 524 697.5Q502 681 479.5 655Q457 629 430 593L261 370L526 0H473L224 347H144V0H99ZM654 -225 687 -141Q670 -140 660 -130Q650 -120 650 -104Q650 -88 660 -76.5Q670 -65 688 -65Q706 -65 715 -77Q724 -89 724 -106Q724 -129 711 -162Q698 -195 680 -235Z" glyph-name="K_lcommaaccent" horiz-adv-x="790" /><glyph d="M712 -7Q677 -7 660 15.5Q643 38 643 87V344L551 300V338L643 382V730H618Q591 730 568.5 722Q546 714 524 697.5Q502 681 479.5 655Q457 629 430 593L261 370L526 0H473L224 347H144V0H99V716H144V386H224L403 622Q429 657 451.5 683.5Q474 710 499 728.5Q524 747 553.5 756.5Q583 766 622 766H688V405L785 452V413L688 367V110Q688 65 698 47.5Q708 30 735 29Q741 29 747 31Q750 32 752 33V1Q747 -1 741 -3Q735 -5 728 -6Q721 -7 712 -7Z" glyph-name="K_lslash" horiz-adv-x="821" /><glyph d="M681 -7Q572 -7 486.5 46.5Q401 100 320 213L224 347H144V0H99V716H144V386H224L472 716H520L261 370L361 231Q437 125 515 77Q593 29 682 29Q752 29 796.5 53.5Q841 78 841 128Q841 173 809 196.5Q777 220 725 236Q698 245 671 256Q644 267 622.5 283.5Q601 300 587.5 324Q574 348 574 382Q574 412 586.5 435Q599 458 621 474.5Q643 491 673 499.5Q703 508 738 508Q767 508 789.5 504.5Q812 501 827 496Q845 491 858 484V447Q843 454 825 460Q808 465 786.5 468.5Q765 472 738 472Q687 472 652 449.5Q617 427 617 381Q617 357 628 340Q639 323 657 310Q675 297 699.5 288Q724 279 751 270Q811 253 847 221.5Q883 190 883 133Q883 69 830.5 31Q778 -7 681 -7Z" glyph-name="K_s" horiz-adv-x="930" /><glyph d="M681 -7Q572 -7 486.5 46.5Q401 100 320 213L224 347H144V0H99V716H144V386H224L472 716H520L261 370L361 231Q437 125 515 77Q593 29 682 29Q752 29 796.5 53.5Q841 78 841 128Q841 173 809 196.5Q777 220 725 236Q698 245 671 256Q644 267 622.5 283.5Q601 300 587.5 324Q574 348 574 382Q574 412 586.5 435Q599 458 621 474.5Q643 491 673 499.5Q703 508 738 508Q767 508 789.5 504.5Q812 501 827 496Q845 491 858 484V447Q843 454 825 460Q808 465 786.5 468.5Q765 472 738 472Q687 472 652 449.5Q617 427 617 381Q617 357 628 340Q639 323 657 310Q675 297 699.5 288Q724 279 751 270Q811 253 847 221.5Q883 190 883 133Q883 69 830.5 31Q778 -7 681 -7ZM679 625 838 756 861 722 698 599Z" glyph-name="K_sacute" horiz-adv-x="930" /><glyph d="M681 -7Q572 -7 486.5 46.5Q401 100 320 213L224 347H144V0H99V716H144V386H224L472 716H520L261 370L361 231Q437 125 515 77Q593 29 682 29Q752 29 796.5 53.5Q841 78 841 128Q841 173 809 196.5Q777 220 725 236Q698 245 671 256Q644 267 622.5 283.5Q601 300 587.5 324Q574 348 574 382Q574 412 586.5 435Q599 458 621 474.5Q643 491 673 499.5Q703 508 738 508Q767 508 789.5 504.5Q812 501 827 496Q845 491 858 484V447Q843 454 825 460Q808 465 786.5 468.5Q765 472 738 472Q687 472 652 449.5Q617 427 617 381Q617 357 628 340Q639 323 657 310Q675 297 699.5 288Q724 279 751 270Q811 253 847 221.5Q883 190 883 133Q883 69 830.5 31Q778 -7 681 -7ZM579 732 600 755 719 641 837 755 858 732 729 600H709Z" glyph-name="K_scaron" horiz-adv-x="930" /><glyph d="M840 -136Q840 -161 827.5 -180Q815 -199 792.5 -211Q770 -223 739 -227.5Q708 -232 672 -229V-199Q728 -201 763 -186.5Q798 -172 798 -139Q798 -113 772.5 -99Q747 -85 684 -86L694 -7H685Q628 -7 579 6Q530 19 486 46Q442 73 401.5 114.5Q361 156 320 213L224 347H144V0H99V716H144V386H224L472 716H520L261 370L361 231Q437 125 515 77Q593 29 682 29Q752 29 796.5 53.5Q841 78 841 128Q841 173 809 196.5Q777 220 725 236Q698 245 671 256Q644 267 622.5 283.5Q601 300 587.5 324Q574 348 574 382Q574 412 586.5 435Q599 458 621 474.5Q643 491 673 499.5Q703 508 738 508Q767 508 789.5 504.5Q812 501 827 496Q845 491 858 484V447Q843 454 825 460Q808 465 786.5 468.5Q765 472 738 472Q687 472 652 449.5Q617 427 617 381Q617 357 628 340Q639 323 657 310Q675 297 699.5 288Q724 279 751 270Q811 253 847 221.5Q883 190 883 133Q883 76 842.5 40.5Q802 5 729 -4L722 -55Q783 -57 811.5 -76.5Q840 -96 840 -136Z" glyph-name="K_scedilla" horiz-adv-x="930" /><glyph d="M99 716H145V386H225L473 716H521L262 370L527 0H473L224 347H145V0H99ZM259 -225 292 -141Q275 -140 265 -130Q255 -120 255 -104Q255 -88 265 -76.5Q275 -65 293 -65Q311 -65 320 -77Q329 -89 329 -106Q329 -129 316 -162Q303 -195 285 -235Z" glyph-name="Kcommaaccent" horiz-adv-x="546" unicode="&#310;" /><glyph d="M88 550H132V299H194L390 550H436L229 284L441 0H391L194 263H132V0H88ZM225 -193 252 -128Q238 -126 229 -118.5Q220 -111 220 -97Q220 -84 229 -74.5Q238 -65 254 -65Q270 -65 278 -75Q286 -85 286 -99Q286 -118 275 -143.5Q264 -169 248 -201Z" glyph-name="Kcommaaccent.sc" horiz-adv-x="464" /><glyph d="M99 716H144V386H224L383 597Q427 655 474 685.5Q521 716 587 716H981V675H761V0H715V675H588Q558 675 534.5 669Q511 663 490.5 650Q470 637 450.5 616Q431 595 409 566L261 370L526 0H473L224 347H144V0H99ZM264 -225 297 -141Q280 -140 270 -130Q260 -120 260 -104Q260 -88 270 -76.5Q280 -65 298 -65Q316 -65 325 -77Q334 -89 334 -106Q334 -129 321 -162Q308 -195 290 -235Z" glyph-name="Kcommaaccent_T" horiz-adv-x="993" /><glyph d="M88 550H132V299H194L316 454Q353 501 392.5 525.5Q432 550 489 550H809V513H633V0H590V513H491Q442 513 410 493.5Q378 474 344 429L229 284L441 0H391L194 263H132V0H88ZM225 -193 252 -128Q238 -126 229 -118.5Q220 -111 220 -97Q220 -84 229 -74.5Q238 -65 254 -65Q270 -65 278 -75Q286 -85 286 -99Q286 -118 275 -143.5Q264 -169 248 -201Z" glyph-name="Kcommaaccent_T.sc" horiz-adv-x="826" /><glyph d="M681 -7Q572 -7 486.5 46.5Q401 100 320 213L224 347H144V0H99V716H144V386H224L472 716H520L261 370L361 231Q437 125 515 77Q593 29 682 29Q752 29 796.5 53.5Q841 78 841 128Q841 173 809 196.5Q777 220 725 236Q698 245 671 256Q644 267 622.5 283.5Q601 300 587.5 324Q574 348 574 382Q574 412 586.5 435Q599 458 621 474.5Q643 491 673 499.5Q703 508 738 508Q767 508 789.5 504.5Q812 501 827 496Q845 491 858 484V447Q843 454 825 460Q808 465 786.5 468.5Q765 472 738 472Q687 472 652 449.5Q617 427 617 381Q617 357 628 340Q639 323 657 310Q675 297 699.5 288Q724 279 751 270Q811 253 847 221.5Q883 190 883 133Q883 69 830.5 31Q778 -7 681 -7ZM291 -225 324 -141Q307 -140 297 -130Q287 -120 287 -104Q287 -88 297 -76.5Q307 -65 325 -65Q343 -65 352 -77Q361 -89 361 -106Q361 -129 348 -162Q335 -195 317 -235Z" glyph-name="Kcommaaccent_s" horiz-adv-x="930" /><glyph d="M681 -7Q572 -7 486.5 46.5Q401 100 320 213L224 347H144V0H99V716H144V386H224L472 716H520L261 370L361 231Q437 125 515 77Q593 29 682 29Q752 29 796.5 53.5Q841 78 841 128Q841 173 809 196.5Q777 220 725 236Q698 245 671 256Q644 267 622.5 283.5Q601 300 587.5 324Q574 348 574 382Q574 412 586.5 435Q599 458 621 474.5Q643 491 673 499.5Q703 508 738 508Q767 508 789.5 504.5Q812 501 827 496Q845 491 858 484V447Q843 454 825 460Q808 465 786.5 468.5Q765 472 738 472Q687 472 652 449.5Q617 427 617 381Q617 357 628 340Q639 323 657 310Q675 297 699.5 288Q724 279 751 270Q811 253 847 221.5Q883 190 883 133Q883 69 830.5 31Q778 -7 681 -7ZM579 732 600 755 719 641 837 755 858 732 729 600H709ZM291 -225 324 -141Q307 -140 297 -130Q287 -120 287 -104Q287 -88 297 -76.5Q307 -65 325 -65Q343 -65 352 -77Q361 -89 361 -106Q361 -129 348 -162Q335 -195 317 -235Z" glyph-name="Kcommaaccent_scaron" horiz-adv-x="930" /><glyph d="M99 716H145V41H458V0H99Z" glyph-name="L" horiz-adv-x="470" unicode="L" /><glyph d="M88 550H132V37H382V0H88Z" glyph-name="L.sc" horiz-adv-x="399" /><glyph d="M829 239 687 645 547 239ZM99 716H144V41H434L671 718H707L957 0H911L843 199H534L466 0H99Z" glyph-name="L_A" horiz-adv-x="978" /><glyph d="M678 185 567 490 457 185ZM88 550H132V37H362L550 551H588L787 0H743L690 149H445L391 0H88Z" glyph-name="L_A.sc" horiz-adv-x="811" /><glyph d="M829 239 687 645 547 239ZM99 716H144V41H434L671 718H707L957 0H911L843 199H534L466 0H99ZM618 815 818 918 836 876 631 785Z" glyph-name="L_Aacute" horiz-adv-x="978" /><glyph d="M508 629 670 707 686 672 521 603ZM678 185 567 490 457 185ZM88 550H132V37H362L550 551H588L787 0H743L690 149H445L391 0H88Z" glyph-name="L_Aacute.sc" horiz-adv-x="811" /><glyph d="M829 239 687 645 547 239ZM99 716H144V41H434L671 718H707L957 0H911L843 199H534L466 0H99ZM689 789Q627 789 593 823Q559 857 557 914H596Q598 879 619.5 853.5Q641 828 689 828Q736 828 757.5 853.5Q779 879 781 914H820Q818 857 784.5 823Q751 789 689 789Z" glyph-name="L_Abreve" horiz-adv-x="978" /><glyph d="M568 606Q518 606 490 632.5Q462 659 460 704H494Q496 678 513 658Q530 638 568 638Q606 638 622.5 658Q639 678 641 704H676Q674 659 646 632.5Q618 606 568 606ZM678 185 567 490 457 185ZM88 550H132V37H362L550 551H588L787 0H743L690 149H445L391 0H88Z" glyph-name="L_Abreve.sc" horiz-adv-x="811" /><glyph d="M829 239 687 645 547 239ZM99 716H144V41H434L671 718H707L957 0H911L843 199H534L466 0H99ZM540 810 673 923H703L836 810L819 785L688 883L557 785Z" glyph-name="L_Acircumflex" horiz-adv-x="978" /><glyph d="M446 623 554 711H581L688 623L673 603L567 678L461 603ZM678 185 567 490 457 185ZM88 550H132V37H362L550 551H588L787 0H743L690 149H445L391 0H88Z" glyph-name="L_Acircumflex.sc" horiz-adv-x="811" /><glyph d="M829 239 687 645 547 239ZM99 716H144V41H434L671 718H707L957 0H911L843 199H534L466 0H99ZM600 815Q586 815 575.5 825Q565 835 565 852Q565 869 575.5 879Q586 889 601 889Q617 889 627 879Q637 869 637 852Q637 835 627 825Q617 815 600 815ZM774 815Q759 815 749 825Q739 835 739 852Q739 869 749 879Q759 889 774 889Q790 889 800.5 879Q811 869 811 852Q811 835 800.5 825Q790 815 774 815Z" glyph-name="L_Adieresis" horiz-adv-x="978" /><glyph d="M496 625Q483 625 474.5 633.5Q466 642 466 656Q466 670 474.5 678Q483 686 497 686Q511 686 519.5 678Q528 670 528 656Q528 642 519.5 633.5Q511 625 496 625ZM638 625Q624 625 615.5 633.5Q607 642 607 656Q607 670 615.5 678Q624 686 638 686Q652 686 660.5 678Q669 670 669 656Q669 642 660.5 633.5Q652 625 638 625ZM678 185 567 490 457 185ZM88 550H132V37H362L550 551H588L787 0H743L690 149H445L391 0H88Z" glyph-name="L_Adieresis.sc" horiz-adv-x="811" /><glyph d="M829 239 687 645 547 239ZM99 716H144V41H434L671 718H707L957 0H911L843 199H534L466 0H99ZM533 876 551 918 751 815 737 785Z" glyph-name="L_Agrave" horiz-adv-x="978" /><glyph d="M443 672 460 707 621 629 609 603ZM678 185 567 490 457 185ZM88 550H132V37H362L550 551H588L787 0H743L690 149H445L391 0H88Z" glyph-name="L_Agrave.sc" horiz-adv-x="811" /><glyph d="M555 874H819V833H555ZM829 239 687 645 547 239ZM99 716H144V41H434L671 718H707L957 0H911L843 199H534L466 0H99Z" glyph-name="L_Amacron" horiz-adv-x="978" /><glyph d="M460 674H674V639H460ZM678 185 567 490 457 185ZM88 550H132V37H362L550 551H588L787 0H743L690 149H445L391 0H88Z" glyph-name="L_Amacron.sc" horiz-adv-x="811" /><glyph d="M892 -227Q854 -227 829.5 -204Q805 -181 805 -143Q805 -101 835.5 -61.5Q866 -22 912 0H911L843 199H534L466 0H99V716H144V41H434L671 718H707L957 0Q906 -29 877 -64.5Q848 -100 848 -135Q848 -162 863.5 -176Q879 -190 907 -190Q933 -190 953.5 -179Q974 -168 983 -160V-193Q976 -199 954 -213Q932 -227 892 -227ZM829 239 687 645 547 239Z" glyph-name="L_Aogonek" horiz-adv-x="978" /><glyph d="M743 0 690 149H445L391 0H88V550H132V37H362L550 551H588L787 0Q748 -21 724.5 -48.5Q701 -76 701 -102Q701 -144 747 -144Q768 -144 784 -135.5Q800 -127 808 -122V-148Q801 -153 783 -164Q765 -175 734 -175Q702 -175 682 -156.5Q662 -138 662 -109Q662 -76 687 -46.5Q712 -17 747 0ZM678 185 567 490 457 185Z" glyph-name="L_Aogonek.sc" horiz-adv-x="811" /><glyph d="M829 239 687 645 547 239ZM99 716H144V41H434L671 718H707L957 0H911L843 199H534L466 0H99ZM690 771Q643 771 614.5 796Q586 821 586 862Q586 899 614 925.5Q642 952 690 952Q737 952 766 926Q795 900 795 862Q795 821 766.5 796Q738 771 690 771ZM690 800Q722 800 740.5 817Q759 834 759 863Q759 888 739.5 905.5Q720 923 690 923Q658 923 639.5 905.5Q621 888 621 863Q621 834 640 817Q659 800 690 800Z" glyph-name="L_Aring" horiz-adv-x="978" /><glyph d="M569 593Q531 593 508 612Q485 631 485 663Q485 692 507.5 712.5Q530 733 569 733Q608 733 631 712.5Q654 692 654 663Q654 631 631.5 612Q609 593 569 593ZM569 616Q594 616 609 629Q624 642 624 663Q624 683 608.5 696Q593 709 569 709Q545 709 530 696Q515 683 515 663Q515 642 530 629Q545 616 569 616ZM678 185 567 490 457 185ZM88 550H132V37H362L550 551H588L787 0H743L690 149H445L391 0H88Z" glyph-name="L_Aring.sc" horiz-adv-x="811" /><glyph d="M829 239 687 645 547 239ZM99 716H144V41H434L671 718H707L957 0H911L843 199H534L466 0H99ZM546 807Q547 836 556 858Q564 879 580 894Q596 909 626 909Q651 909 667 896.5Q683 884 697 870Q711 856 724 844Q737 832 756 832Q772 832 780.5 841.5Q789 851 794 863Q799 877 800 894H833Q832 866 823 845Q815 824 799.5 809.5Q784 795 755 795Q730 795 714 807.5Q698 820 684 834Q670 848 656.5 860.5Q643 873 626 873Q609 873 599.5 862.5Q590 852 585 840Q580 825 579 807Z" glyph-name="L_Atilde" horiz-adv-x="978" /><glyph d="M451 620Q451 621 452.5 634Q454 647 460.5 662Q467 677 480.5 689Q494 701 518 701Q538 701 551 691.5Q564 682 575 671Q587 660 597.5 651.5Q608 643 622 643Q635 643 642.5 650Q650 657 653 666Q657 676 658 689H687Q687 688 685.5 675.5Q684 663 678 648.5Q672 634 659 622.5Q646 611 623 611Q603 611 589.5 620Q576 629 565 640Q554 651 543 660Q532 669 518 669Q504 669 496.5 661.5Q489 654 486 645Q482 634 481 620ZM678 185 567 490 457 185ZM88 550H132V37H362L550 551H588L787 0H743L690 149H445L391 0H88Z" glyph-name="L_Atilde.sc" horiz-adv-x="811" /><glyph d="M99 716H145V41H458V0H99ZM112 815 312 918 330 876 125 785Z" glyph-name="Lacute" horiz-adv-x="470" unicode="&#313;" /><glyph d="M99 629 262 707 278 672 111 603ZM88 550H132V37H382V0H88Z" glyph-name="Lacute.sc" horiz-adv-x="399" /><glyph d="M99 716H145V41H458V0H99ZM401 566 434 650Q417 651 407 661Q397 671 397 687Q397 703 407 714.5Q417 726 435 726Q453 726 462 714Q471 702 471 685Q471 662 458 629Q445 596 427 556Z" glyph-name="Lcaron" horiz-adv-x="511" unicode="&#317;" /><glyph d="M334 433 362 498Q348 499 339 507Q330 515 330 529Q330 542 338.5 551Q347 560 363 560Q379 560 387 550Q395 540 395 526Q395 508 383.5 482Q372 456 357 424ZM88 550H132V37H382V0H88Z" glyph-name="Lcaron.sc" horiz-adv-x="434" /><glyph d="M829 239 687 645 547 239ZM99 716H144V41H434L671 718H707L957 0H911L843 199H534L466 0H99ZM401 566 434 650Q417 651 407 661Q397 671 397 687Q397 703 407 714.5Q417 726 435 726Q453 726 462 714Q471 702 471 685Q471 662 458 629Q445 596 427 556Z" glyph-name="Lcaron_A" horiz-adv-x="978" /><glyph d="M333 433 359 498Q345 499 336.5 507Q328 515 328 529Q328 542 336 551Q344 560 361 560Q377 560 385 550Q393 540 393 526Q393 508 381.5 482Q370 456 355 424ZM678 185 567 490 457 185ZM88 550H132V37H362L550 551H588L787 0H743L690 149H445L391 0H88Z" glyph-name="Lcaron_A.sc" horiz-adv-x="811" /><glyph d="M99 716H145V41H458V0H99ZM257 -225 290 -141Q273 -140 263 -130Q253 -120 253 -104Q253 -88 263 -76.5Q273 -65 291 -65Q309 -65 318 -77Q327 -89 327 -106Q327 -129 314 -162Q301 -195 283 -235Z" glyph-name="Lcommaaccent" horiz-adv-x="470" unicode="&#315;" /><glyph d="M88 550H132V37H382V0H88ZM217 -193 244 -128Q230 -126 221 -118.5Q212 -111 212 -97Q212 -84 220.5 -74.5Q229 -65 245 -65Q262 -65 269.5 -75Q277 -85 277 -99Q277 -118 265.5 -143.5Q254 -169 239 -201Z" glyph-name="Lcommaaccent.sc" horiz-adv-x="399" /><glyph d="M829 239 687 645 547 239ZM99 716H144V41H434L671 718H707L957 0H911L843 199H534L466 0H99ZM257 -225 290 -141Q273 -140 263 -130Q253 -120 253 -104Q253 -88 263 -76.5Q273 -65 291 -65Q309 -65 318 -77Q327 -89 327 -106Q327 -129 314 -162Q301 -195 283 -235Z" glyph-name="Lcommaaccent_A" horiz-adv-x="978" /><glyph d="M678 185 567 490 457 185ZM88 550H132V37H362L550 551H588L787 0H743L690 149H445L391 0H88ZM217 -193 244 -128Q230 -126 221 -118.5Q212 -111 212 -97Q212 -84 220.5 -74.5Q229 -65 245 -65Q262 -65 269.5 -75Q277 -85 277 -99Q277 -118 265.5 -143.5Q254 -169 239 -201Z" glyph-name="Lcommaaccent_A.sc" horiz-adv-x="811" /><glyph d="M555 874H819V833H555ZM829 239 687 645 547 239ZM99 716H144V41H434L671 718H707L957 0H911L843 199H534L466 0H99ZM257 -225 290 -141Q273 -140 263 -130Q253 -120 253 -104Q253 -88 263 -76.5Q273 -65 291 -65Q309 -65 318 -77Q327 -89 327 -106Q327 -129 314 -162Q301 -195 283 -235Z" glyph-name="Lcommaaccent_Amacron" horiz-adv-x="978" /><glyph d="M460 674H674V639H460ZM678 185 567 490 457 185ZM88 550H132V37H362L550 551H588L787 0H743L690 149H445L391 0H88ZM217 -193 244 -128Q230 -126 221 -118.5Q212 -111 212 -97Q212 -84 220.5 -74.5Q229 -65 245 -65Q262 -65 269.5 -75Q277 -85 277 -99Q277 -118 265.5 -143.5Q254 -169 239 -201Z" glyph-name="Lcommaaccent_Amacron.sc" horiz-adv-x="811" /><glyph d="M99 716H145V41H458V0H99ZM363 320Q346 320 335.5 331Q325 342 325 359Q325 376 335.5 387.5Q346 399 363 399Q380 399 390 387.5Q400 376 400 359Q400 342 390 331Q380 320 363 320Z" glyph-name="Ldot" horiz-adv-x="472" unicode="&#319;" /><glyph d="M88 550H132V37H382V0H88ZM306 245Q292 245 282.5 254.5Q273 264 273 278Q273 292 282.5 301.5Q292 311 306 311Q322 311 331 301.5Q340 292 340 278Q340 264 331 254.5Q322 245 306 245Z" glyph-name="Ldot.sc" horiz-adv-x="402" /><glyph d="M114 0V336L16 286V330L114 380V716H159V405L276 465V421L159 360V41H473V0Z" glyph-name="Lslash" horiz-adv-x="484" unicode="&#321;" /><glyph d="M99 0V254L22 217V256L99 292V550H143V315L237 360V322L143 276V37H393V0Z" glyph-name="Lslash.sc" horiz-adv-x="410" /><glyph d="M862 239 720 645 579 239ZM498 0H132V336L33 286V330L132 380V716H177V405L294 465V421L177 360V41H467L704 718H740L990 0H944L875 199H567Z" glyph-name="Lslash_A" horiz-adv-x="1011" /><glyph d="M704 185 592 490 482 185ZM114 254 37 217V256L114 293V550H158V315L252 360V322L158 276V37H387L576 551H613L813 0H769L716 149H470L417 0H114Z" glyph-name="Lslash_A.sc" horiz-adv-x="837" /><glyph d="M862 239 720 645 579 239ZM875 199H567L498 0H132V336L33 286V330L132 380V716H177V405L294 465V421L177 360V41H467L704 718H740L990 0Q939 -29 910 -64.5Q881 -100 881 -135Q881 -190 939 -190Q965 -190 985.5 -179Q1006 -168 1016 -160V-193Q1009 -199 986.5 -213Q964 -227 925 -227Q887 -227 862 -204Q837 -181 837 -143Q837 -101 868 -61.5Q899 -22 944 0Z" glyph-name="Lslash_Aogonek" horiz-adv-x="1011" /><glyph d="M769 0 716 149H470L417 0H114V254L37 217V256L114 293V550H158V315L252 360V322L158 276V37H387L576 551H613L813 0Q774 -22 750 -49Q726 -76 726 -102Q726 -122 738.5 -133Q751 -144 773 -144Q794 -144 810 -135.5Q826 -127 834 -122V-148Q827 -153 809 -164Q791 -175 760 -175Q728 -175 707.5 -156.5Q687 -138 687 -109Q687 -76 712 -46.5Q737 -17 773 0ZM704 185 592 490 482 185Z" glyph-name="Lslash_Aogonek.sc" horiz-adv-x="837" /><glyph d="M158 644 121 0H79L121 716H173L415 105L656 716H705L748 0H703L666 644L429 37H396Z" glyph-name="M" horiz-adv-x="827" unicode="M" /><glyph d="M141 487 112 0H72L107 550H155L346 89L536 550H583L618 0H575L546 487L359 29H328Z" glyph-name="M.sc" horiz-adv-x="690" /><glyph d="M99 716H142L548 81V716H591V0H549L142 635V0H99Z" glyph-name="N" horiz-adv-x="690" unicode="N" /><glyph d="M88 550H128L450 73V550H490V0H450L129 477V0H88Z" glyph-name="N.sc" horiz-adv-x="578" /><glyph d="M728 390Q775 390 806 402.5Q837 415 856.5 435.5Q876 456 884 482Q892 508 892 535Q892 606 846.5 641Q801 676 704 676H593V390ZM548 716H706Q829 716 884 669Q939 622 939 536Q939 498 927 470.5Q915 443 896.5 423.5Q878 404 856.5 392.5Q835 381 817 375Q842 370 870 358Q898 346 921 325.5Q944 305 959.5 274Q975 243 975 201Q975 104 915 52Q855 0 740 0H548L142 635V0H99V716H141L548 81ZM737 40Q788 40 824 52Q860 64 883.5 85Q907 106 917.5 135.5Q928 165 928 200Q928 275 879 313Q830 351 736 351H593V40Z" glyph-name="N_B" horiz-adv-x="1030" /><glyph d="M599 302Q635 302 659.5 311.5Q684 321 699 336Q714 351 720.5 370Q727 389 727 409Q727 462 691.5 488.5Q656 515 580 515H493V302ZM450 550H582Q682 550 726.5 513.5Q771 477 771 411Q771 382 761 361Q751 340 736.5 325.5Q722 311 705 302Q688 293 674 288Q694 284 716 275Q738 266 757 250Q776 234 788 211Q800 188 800 155Q800 80 751 40Q702 0 608 0H450L129 477V0H88V550H128L450 73ZM605 35Q685 35 720 68.5Q755 102 755 154Q755 211 716.5 238.5Q678 266 605 266H493V35Z" glyph-name="N_B.sc" horiz-adv-x="852" /><glyph d="M724 41Q863 41 930 126.5Q997 212 997 369Q997 520 929 597.5Q861 675 724 675H590V41ZM99 716H141L548 81V716H723Q885 716 964.5 625Q1044 534 1044 369Q1044 194 965 97Q886 0 723 0H548L142 635V0H99Z" glyph-name="N_D" horiz-adv-x="1105" /><glyph d="M594 37Q704 37 757 101.5Q810 166 810 283Q810 395 756 454Q702 513 594 513H491V37ZM88 550H128L450 73V550H593Q726 550 790.5 479Q855 408 855 283Q855 150 791 75Q727 0 593 0H450L129 477V0H88Z" glyph-name="N_D.sc" horiz-adv-x="912" /><glyph d="M99 716H141L548 81V716H902V675H590V385H864V345H590V41H902V0H548L142 635V0H99Z" glyph-name="N_E" horiz-adv-x="955" /><glyph d="M88 550H128L450 73V550H741V513H491V299H710V262H491V37H741V0H450L129 477V0H88Z" glyph-name="N_E.sc" horiz-adv-x="793" /><glyph d="M99 716H141L548 81V716H902V675H590V385H864V345H590V41H902V0H548L142 635V0H99ZM643 815 843 918 861 876 656 785Z" glyph-name="N_Eacute" horiz-adv-x="955" /><glyph d="M529 629 691 707 707 672 541 603ZM88 550H128L450 73V550H741V513H491V299H710V262H491V37H741V0H450L129 477V0H88Z" glyph-name="N_Eacute.sc" horiz-adv-x="793" /><glyph d="M99 716H141L548 81V716H902V675H590V385H864V345H590V41H902V0H548L142 635V0H99ZM569 898 586 923 723 825 859 923 876 898 737 785H707Z" glyph-name="N_Ecaron" horiz-adv-x="955" /><glyph d="M469 690 483 711 594 637 704 711 719 690 607 603H580ZM88 550H128L450 73V550H741V513H491V299H710V262H491V37H741V0H450L129 477V0H88Z" glyph-name="N_Ecaron.sc" horiz-adv-x="793" /><glyph d="M99 716H141L548 81V716H902V675H590V385H864V345H590V41H902V0H548L142 635V0H99ZM570 810 703 923H733L866 810L849 785L718 883L587 785Z" glyph-name="N_Ecircumflex" horiz-adv-x="955" /><glyph d="M470 623 577 711H604L712 623L696 603L591 678L485 603ZM88 550H128L450 73V550H741V513H491V299H710V262H491V37H741V0H450L129 477V0H88Z" glyph-name="N_Ecircumflex.sc" horiz-adv-x="793" /><glyph d="M99 716H141L548 81V716H902V675H590V385H864V345H590V41H902V0H548L142 635V0H99ZM642 815Q628 815 617.5 825Q607 835 607 852Q607 869 617.5 879Q628 889 643 889Q659 889 669 879Q679 869 679 852Q679 835 669 825Q659 815 642 815ZM816 815Q801 815 791 825Q781 835 781 852Q781 869 791 879Q801 889 816 889Q832 889 842.5 879Q853 869 853 852Q853 835 842.5 825Q832 815 816 815Z" glyph-name="N_Edieresis" horiz-adv-x="955" /><glyph d="M528 625Q514 625 506 633.5Q498 642 498 656Q498 670 506 678Q514 686 528 686Q542 686 551 678Q560 670 560 656Q560 642 551 633.5Q542 625 528 625ZM670 625Q656 625 647.5 633.5Q639 642 639 656Q639 670 647.5 678Q656 686 670 686Q684 686 692.5 678Q701 670 701 656Q701 642 692.5 633.5Q684 625 670 625ZM88 550H128L450 73V550H741V513H491V299H710V262H491V37H741V0H450L129 477V0H88Z" glyph-name="N_Edieresis.sc" horiz-adv-x="793" /><glyph d="M99 716H141L548 81V716H902V675H590V385H864V345H590V41H902V0H548L142 635V0H99ZM733 815Q718 815 707.5 825.5Q697 836 697 853Q697 870 707.5 880.5Q718 891 733 891Q750 891 760.5 880.5Q771 870 771 853Q771 836 760.5 825.5Q750 815 733 815Z" glyph-name="N_Edotaccent" horiz-adv-x="955" /><glyph d="M601 625Q587 625 578.5 633.5Q570 642 570 656Q570 687 601 687Q617 687 625.5 679Q634 671 634 657Q634 643 625.5 634Q617 625 601 625ZM88 550H128L450 73V550H741V513H491V299H710V262H491V37H741V0H450L129 477V0H88Z" glyph-name="N_Edotaccent.sc" horiz-adv-x="793" /><glyph d="M99 716H141L548 81V716H902V675H590V385H864V345H590V41H902V0H548L142 635V0H99ZM593 876 611 918 811 815 797 785Z" glyph-name="N_Egrave" horiz-adv-x="955" /><glyph d="M489 672 505 707 667 629 654 603ZM88 550H128L450 73V550H741V513H491V299H710V262H491V37H741V0H450L129 477V0H88Z" glyph-name="N_Egrave.sc" horiz-adv-x="793" /><glyph d="M99 716H141L548 81V716H902V675H590V385H864V345H590V41H902V0H548L142 635V0H99ZM595 874H859V833H595Z" glyph-name="N_Emacron" horiz-adv-x="955" /><glyph d="M490 674H704V639H490ZM88 550H128L450 73V550H741V513H491V299H710V262H491V37H741V0H450L129 477V0H88Z" glyph-name="N_Emacron.sc" horiz-adv-x="793" /><glyph d="M548 0 142 635V0H99V716H141L548 81V716H902V675H590V385H864V345H590V41H902V0Q851 -29 822 -64.5Q793 -100 793 -135Q793 -162 808.5 -176Q824 -190 852 -190Q878 -190 898 -179Q918 -168 928 -160V-193Q921 -199 899 -213Q877 -227 837 -227Q799 -227 774.5 -204Q750 -181 750 -143Q750 -101 780.5 -61.5Q811 -22 857 0Z" glyph-name="N_Eogonek" horiz-adv-x="955" /><glyph d="M450 0 129 477V0H88V550H128L450 73V550H741V513H491V299H710V262H491V37H741V0Q701 -22 677.5 -49Q654 -76 654 -102Q654 -144 701 -144Q722 -144 738 -135.5Q754 -127 762 -122V-148Q755 -153 737 -164Q719 -175 687 -175Q656 -175 635.5 -156.5Q615 -138 615 -109Q615 -76 640 -46.5Q665 -17 701 0Z" glyph-name="N_Eogonek.sc" horiz-adv-x="793" /><glyph d="M99 716H141L548 81V716H896V675H590V380H858V339H590V0H548L142 635V0H99Z" glyph-name="N_F" horiz-adv-x="926" /><glyph d="M88 550H128L450 73V550H735V513H491V294H705V257H491V0H450L129 477V0H88Z" glyph-name="N_F.sc" horiz-adv-x="769" /><glyph d="M99 716H141L548 81V716H590V386H670L917 716H966L707 370L972 0H919L670 347H590V0H548L142 635V0H99Z" glyph-name="N_K" horiz-adv-x="991" /><glyph d="M88 550H128L450 73V550H491V299H554L748 550H795L589 284L800 0H750L553 263H491V0H450L129 477V0H88Z" glyph-name="N_K.sc" horiz-adv-x="823" /><glyph d="M99 716H141L548 81V716H590V386H670L917 716H966L707 370L972 0H919L670 347H590V0H548L142 635V0H99ZM715 -225 748 -141Q731 -140 721 -130Q711 -120 711 -104Q711 -88 721 -76.5Q731 -65 749 -65Q767 -65 776 -77Q785 -89 785 -106Q785 -129 772 -162Q759 -195 741 -235Z" glyph-name="N_Kcommaaccent" horiz-adv-x="991" /><glyph d="M88 550H128L450 73V550H491V299H554L748 550H795L589 284L800 0H750L553 263H491V0H450L129 477V0H88ZM588 -193 615 -128Q601 -126 592 -118.5Q583 -111 583 -97Q583 -84 591.5 -74.5Q600 -65 616 -65Q632 -65 640 -75Q648 -85 648 -99Q648 -118 637 -143.5Q626 -169 610 -201Z" glyph-name="N_Kcommaaccent.sc" horiz-adv-x="823" /><glyph d="M99 716H141L548 81V716H590L996 81V716H1039V0H997L590 636V0H548L142 635V0H99Z" glyph-name="N_N" horiz-adv-x="1138" /><glyph d="M88 550H128L450 73V550H490L811 73V550H851V0H811L490 478V0H450L129 477V0H88Z" glyph-name="N_N.sc" horiz-adv-x="939" /><glyph d="M689 338Q789 338 846.5 383Q904 428 904 513Q904 600 847.5 638Q791 676 688 676H590V338ZM99 716H141L548 81V716H687Q815 716 883 667Q951 618 951 513Q951 462 932.5 422Q914 382 879.5 354.5Q845 327 796 312.5Q747 298 687 298H590V0H548L142 635V0H99Z" glyph-name="N_P" horiz-adv-x="991" /><glyph d="M566 261Q644 261 689.5 295Q735 329 735 392Q735 457 690.5 485.5Q646 514 565 514H489V261ZM88 550H128L449 73V550H565Q670 550 724.5 512Q779 474 779 393Q779 314 720.5 270Q662 226 565 226H489V0H449L128 478V0H88Z" glyph-name="N_P.sc" horiz-adv-x="818" /><glyph d="M708 356Q746 356 779 367.5Q812 379 836.5 401Q861 423 875 455Q889 487 889 527Q889 560 878.5 587.5Q868 615 844.5 634.5Q821 654 783.5 665Q746 676 692 676H590V356ZM99 716H141L548 81V716H694Q819 716 877.5 665.5Q936 615 936 528Q936 494 926 462.5Q916 431 896 404Q876 377 844.5 357Q813 337 770 326L971 0H920L724 317H590V0H548L142 635V0H99Z" glyph-name="N_R" horiz-adv-x="1000" /><glyph d="M582 275Q612 275 637.5 283.5Q663 292 682 308.5Q701 325 712 349Q723 373 723 403Q723 453 688.5 483.5Q654 514 569 514H489V275ZM88 550H128L449 73V550H571Q674 550 721 511Q768 472 768 405Q768 353 737 310Q706 267 637 250L795 0H747L594 240H489V0H449L128 478V0H88Z" glyph-name="N_R.sc" horiz-adv-x="830" /><glyph d="M99 716H142L548 81V716H591V0H549L142 635V0H99ZM308 815 508 918 526 876 321 785Z" glyph-name="Nacute" horiz-adv-x="690" unicode="&#323;" /><glyph d="M99 716H142L548 81V716H591V0H549L142 635V0H99ZM318 788 404 962 439 942 346 773Z" glyph-name="Nacute.pl" horiz-adv-x="690" /><glyph d="M267 607 337 740 367 723 292 594ZM88 550H128L450 73V550H490V0H450L129 477V0H88Z" glyph-name="Nacute.pl.sc" horiz-adv-x="578" /><glyph d="M258 629 419 707 435 672 270 603ZM88 550H128L450 73V550H490V0H450L129 477V0H88Z" glyph-name="Nacute.sc" horiz-adv-x="578" /><glyph d="M99 716H141L548 81V716H590V386H670L917 716H966L707 370L972 0H919L670 347H590V0H548L142 635V0H99ZM308 815 508 918 526 876 321 785Z" glyph-name="Nacute_K" horiz-adv-x="991" /><glyph d="M258 629 419 707 435 672 270 603ZM88 550H128L450 73V550H491V299H554L748 550H795L589 284L800 0H750L553 263H491V0H450L129 477V0H88Z" glyph-name="Nacute_K.sc" horiz-adv-x="823" /><glyph d="M99 716H142L548 81V716H591V0H549L142 635V0H99ZM196 898 213 923 350 825 486 923 503 898 364 785H334Z" glyph-name="Ncaron" horiz-adv-x="690" unicode="&#327;" /><glyph d="M167 690 182 711 292 637 402 711 418 690 306 603H279ZM88 550H128L450 73V550H490V0H450L129 477V0H88Z" glyph-name="Ncaron.sc" horiz-adv-x="578" /><glyph d="M724 41Q863 41 930 126.5Q997 212 997 369Q997 520 929 597.5Q861 675 724 675H590V41ZM99 716H141L548 81V716H723Q885 716 964.5 625Q1044 534 1044 369Q1044 194 965 97Q886 0 723 0H548L142 635V0H99ZM195 898 212 923 349 825 485 923 502 898 363 785H333Z" glyph-name="Ncaron_D" horiz-adv-x="1105" /><glyph d="M167 690 182 711 292 637 402 711 418 690 306 603H279ZM594 37Q704 37 757 101.5Q810 166 810 283Q810 395 756 454Q702 513 594 513H491V37ZM88 550H128L450 73V550H593Q726 550 790.5 479Q855 408 855 283Q855 150 791 75Q727 0 593 0H450L129 477V0H88Z" glyph-name="Ncaron_D.sc" horiz-adv-x="912" /><glyph d="M99 716H141L548 81V716H590V386H670L917 716H966L707 370L972 0H919L670 347H590V0H548L142 635V0H99ZM195 898 212 923 349 825 485 923 502 898 363 785H333Z" glyph-name="Ncaron_K" horiz-adv-x="991" /><glyph d="M167 690 182 711 292 637 402 711 418 690 306 603H279ZM88 550H128L450 73V550H491V299H554L748 550H795L589 284L800 0H750L553 263H491V0H450L129 477V0H88Z" glyph-name="Ncaron_K.sc" horiz-adv-x="823" /><glyph d="M99 716H142L548 81V716H591V0H549L142 635V0H99ZM318 -225 351 -141Q334 -140 324 -130Q314 -120 314 -104Q314 -88 324 -76.5Q334 -65 352 -65Q370 -65 379 -77Q388 -89 388 -106Q388 -129 375 -162Q362 -195 344 -235Z" glyph-name="Ncommaaccent" horiz-adv-x="690" unicode="&#325;" /><glyph d="M88 550H128L450 73V550H490V0H450L129 477V0H88ZM266 -193 293 -128Q279 -126 270 -118.5Q261 -111 261 -97Q261 -84 270 -74.5Q279 -65 295 -65Q311 -65 319 -75Q327 -85 327 -99Q327 -118 316 -143.5Q305 -169 289 -201Z" glyph-name="Ncommaaccent.sc" horiz-adv-x="578" /><glyph d="M728 390Q775 390 806 402.5Q837 415 856.5 435.5Q876 456 884 482Q892 508 892 535Q892 606 846.5 641Q801 676 704 676H593V390ZM548 716H706Q829 716 884 669Q939 622 939 536Q939 498 927 470.5Q915 443 896.5 423.5Q878 404 856.5 392.5Q835 381 817 375Q842 370 870 358Q898 346 921 325.5Q944 305 959.5 274Q975 243 975 201Q975 104 915 52Q855 0 740 0H548L142 635V0H99V716H141L548 81ZM737 40Q788 40 824 52Q860 64 883.5 85Q907 106 917.5 135.5Q928 165 928 200Q928 275 879 313Q830 351 736 351H593V40ZM317 -225 350 -141Q333 -140 323 -130Q313 -120 313 -104Q313 -88 323 -76.5Q333 -65 351 -65Q369 -65 378 -77Q387 -89 387 -106Q387 -129 374 -162Q361 -195 343 -235Z" glyph-name="Ncommaaccent_B" horiz-adv-x="1030" /><glyph d="M599 302Q635 302 659.5 311.5Q684 321 699 336Q714 351 720.5 370Q727 389 727 409Q727 462 691.5 488.5Q656 515 580 515H493V302ZM450 550H582Q682 550 726.5 513.5Q771 477 771 411Q771 382 761 361Q751 340 736.5 325.5Q722 311 705 302Q688 293 674 288Q694 284 716 275Q738 266 757 250Q776 234 788 211Q800 188 800 155Q800 80 751 40Q702 0 608 0H450L129 477V0H88V550H128L450 73ZM605 35Q685 35 720 68.5Q755 102 755 154Q755 211 716.5 238.5Q678 266 605 266H493V35ZM266 -193 293 -128Q279 -126 270 -118.5Q261 -111 261 -97Q261 -84 270 -74.5Q279 -65 295 -65Q311 -65 319 -75Q327 -85 327 -99Q327 -118 316 -143.5Q305 -169 289 -201Z" glyph-name="Ncommaaccent_B.sc" horiz-adv-x="852" /><glyph d="M724 41Q863 41 930 126.5Q997 212 997 369Q997 520 929 597.5Q861 675 724 675H590V41ZM99 716H141L548 81V716H723Q885 716 964.5 625Q1044 534 1044 369Q1044 194 965 97Q886 0 723 0H548L142 635V0H99ZM317 -225 350 -141Q333 -140 323 -130Q313 -120 313 -104Q313 -88 323 -76.5Q333 -65 351 -65Q369 -65 378 -77Q387 -89 387 -106Q387 -129 374 -162Q361 -195 343 -235Z" glyph-name="Ncommaaccent_D" horiz-adv-x="1105" /><glyph d="M594 37Q704 37 757 101.5Q810 166 810 283Q810 395 756 454Q702 513 594 513H491V37ZM88 550H128L450 73V550H593Q726 550 790.5 479Q855 408 855 283Q855 150 791 75Q727 0 593 0H450L129 477V0H88ZM265 -193 292 -128Q261 -125 261 -97Q261 -84 269.5 -74.5Q278 -65 294 -65Q310 -65 318 -75Q326 -85 326 -99Q326 -118 315 -143.5Q304 -169 288 -201Z" glyph-name="Ncommaaccent_D.sc" horiz-adv-x="912" /><glyph d="M99 716H141L548 81V716H902V675H590V385H864V345H590V41H902V0H548L142 635V0H99ZM317 -225 350 -141Q333 -140 323 -130Q313 -120 313 -104Q313 -88 323 -76.5Q333 -65 351 -65Q369 -65 378 -77Q387 -89 387 -106Q387 -129 374 -162Q361 -195 343 -235Z" glyph-name="Ncommaaccent_E" horiz-adv-x="955" /><glyph d="M88 550H128L450 73V550H741V513H491V299H710V262H491V37H741V0H450L129 477V0H88ZM266 -193 293 -128Q279 -126 270 -118.5Q261 -111 261 -97Q261 -84 270 -74.5Q279 -65 295 -65Q311 -65 319 -75Q327 -85 327 -99Q327 -118 316 -143.5Q305 -169 289 -201Z" glyph-name="Ncommaaccent_E.sc" horiz-adv-x="793" /><glyph d="M99 716H141L548 81V716H902V675H590V385H864V345H590V41H902V0H548L142 635V0H99ZM595 874H859V833H595ZM317 -225 350 -141Q333 -140 323 -130Q313 -120 313 -104Q313 -88 323 -76.5Q333 -65 351 -65Q369 -65 378 -77Q387 -89 387 -106Q387 -129 374 -162Q361 -195 343 -235Z" glyph-name="Ncommaaccent_Emacron" horiz-adv-x="955" /><glyph d="M490 674H704V639H490ZM88 550H128L450 73V550H741V513H491V299H710V262H491V37H741V0H450L129 477V0H88ZM266 -193 293 -128Q279 -126 270 -118.5Q261 -111 261 -97Q261 -84 270 -74.5Q279 -65 295 -65Q311 -65 319 -75Q327 -85 327 -99Q327 -118 316 -143.5Q305 -169 289 -201Z" glyph-name="Ncommaaccent_Emacron.sc" horiz-adv-x="793" /><glyph d="M99 716H141L548 81V716H590V386H670L917 716H966L707 370L972 0H919L670 347H590V0H548L142 635V0H99ZM317 -225 350 -141Q333 -140 323 -130Q313 -120 313 -104Q313 -88 323 -76.5Q333 -65 351 -65Q369 -65 378 -77Q387 -89 387 -106Q387 -129 374 -162Q361 -195 343 -235Z" glyph-name="Ncommaaccent_K" horiz-adv-x="991" /><glyph d="M88 550H128L450 73V550H491V299H554L748 550H795L589 284L800 0H750L553 263H491V0H450L129 477V0H88ZM266 -193 293 -128Q279 -126 270 -118.5Q261 -111 261 -97Q261 -84 270 -74.5Q279 -65 295 -65Q311 -65 319 -75Q327 -85 327 -99Q327 -118 316 -143.5Q305 -169 289 -201Z" glyph-name="Ncommaaccent_K.sc" horiz-adv-x="823" /><glyph d="M99 716H141L548 81V716H590V386H670L917 716H966L707 370L972 0H919L670 347H590V0H548L142 635V0H99ZM715 -225 748 -141Q731 -140 721 -130Q711 -120 711 -104Q711 -88 721 -76.5Q731 -65 749 -65Q767 -65 776 -77Q785 -89 785 -106Q785 -129 772 -162Q759 -195 741 -235ZM317 -225 350 -141Q333 -140 323 -130Q313 -120 313 -104Q313 -88 323 -76.5Q333 -65 351 -65Q369 -65 378 -77Q387 -89 387 -106Q387 -129 374 -162Q361 -195 343 -235Z" glyph-name="Ncommaaccent_Kcommaaccent" horiz-adv-x="991" /><glyph d="M88 550H128L450 73V550H491V299H554L748 550H795L589 284L800 0H750L553 263H491V0H450L129 477V0H88ZM588 -193 615 -128Q601 -126 592 -118.5Q583 -111 583 -97Q583 -84 591.5 -74.5Q600 -65 616 -65Q632 -65 640 -75Q648 -85 648 -99Q648 -118 637 -143.5Q626 -169 610 -201ZM266 -193 293 -128Q279 -126 270 -118.5Q261 -111 261 -97Q261 -84 270 -74.5Q279 -65 295 -65Q311 -65 319 -75Q327 -85 327 -99Q327 -118 316 -143.5Q305 -169 289 -201Z" glyph-name="Ncommaaccent_Kcommaaccent.sc" horiz-adv-x="823" /><glyph d="M99 716H141L548 81V716H590L996 81V716H1039V0H997L590 636V0H548L142 635V0H99ZM317 -225 350 -141Q333 -140 323 -130Q313 -120 313 -104Q313 -88 323 -76.5Q333 -65 351 -65Q369 -65 378 -77Q387 -89 387 -106Q387 -129 374 -162Q361 -195 343 -235Z" glyph-name="Ncommaaccent_N" horiz-adv-x="1138" /><glyph d="M88 550H128L450 73V550H490L811 73V550H851V0H811L490 478V0H450L129 477V0H88ZM266 -193 293 -128Q279 -126 270 -118.5Q261 -111 261 -97Q261 -84 270 -74.5Q279 -65 295 -65Q311 -65 319 -75Q327 -85 327 -99Q327 -118 316 -143.5Q305 -169 289 -201Z" glyph-name="Ncommaaccent_N.sc" horiz-adv-x="939" /></font>
</defs>
</svg>
